%TF.GenerationSoftware,KiCad,Pcbnew,7.0.11*%
%TF.CreationDate,2024-12-01T20:51:01+09:00*%
%TF.ProjectId,AudioAmp_v0,41756469-6f41-46d7-905f-76302e6b6963,rev?*%
%TF.SameCoordinates,Original*%
%TF.FileFunction,Soldermask,Top*%
%TF.FilePolarity,Negative*%
%FSLAX46Y46*%
G04 Gerber Fmt 4.6, Leading zero omitted, Abs format (unit mm)*
G04 Created by KiCad (PCBNEW 7.0.11) date 2024-12-01 20:51:01*
%MOMM*%
%LPD*%
G01*
G04 APERTURE LIST*
G04 Aperture macros list*
%AMRoundRect*
0 Rectangle with rounded corners*
0 $1 Rounding radius*
0 $2 $3 $4 $5 $6 $7 $8 $9 X,Y pos of 4 corners*
0 Add a 4 corners polygon primitive as box body*
4,1,4,$2,$3,$4,$5,$6,$7,$8,$9,$2,$3,0*
0 Add four circle primitives for the rounded corners*
1,1,$1+$1,$2,$3*
1,1,$1+$1,$4,$5*
1,1,$1+$1,$6,$7*
1,1,$1+$1,$8,$9*
0 Add four rect primitives between the rounded corners*
20,1,$1+$1,$2,$3,$4,$5,0*
20,1,$1+$1,$4,$5,$6,$7,0*
20,1,$1+$1,$6,$7,$8,$9,0*
20,1,$1+$1,$8,$9,$2,$3,0*%
G04 Aperture macros list end*
%ADD10RoundRect,0.200000X0.200000X0.275000X-0.200000X0.275000X-0.200000X-0.275000X0.200000X-0.275000X0*%
%ADD11R,1.800000X1.800000*%
%ADD12C,1.800000*%
%ADD13C,1.600000*%
%ADD14O,1.600000X1.600000*%
%ADD15RoundRect,0.250000X-0.750000X0.600000X-0.750000X-0.600000X0.750000X-0.600000X0.750000X0.600000X0*%
%ADD16O,2.000000X1.700000*%
%ADD17C,2.000000*%
%ADD18C,3.200000*%
%ADD19RoundRect,0.150000X0.150000X-0.587500X0.150000X0.587500X-0.150000X0.587500X-0.150000X-0.587500X0*%
%ADD20RoundRect,0.225000X-0.225000X-0.250000X0.225000X-0.250000X0.225000X0.250000X-0.225000X0.250000X0*%
%ADD21RoundRect,0.200000X-0.200000X-0.275000X0.200000X-0.275000X0.200000X0.275000X-0.200000X0.275000X0*%
%ADD22RoundRect,0.250000X0.850000X0.350000X-0.850000X0.350000X-0.850000X-0.350000X0.850000X-0.350000X0*%
%ADD23RoundRect,0.249997X2.950003X2.650003X-2.950003X2.650003X-2.950003X-2.650003X2.950003X-2.650003X0*%
%ADD24R,1.600000X1.600000*%
%ADD25RoundRect,0.250000X-0.550000X1.500000X-0.550000X-1.500000X0.550000X-1.500000X0.550000X1.500000X0*%
%ADD26RoundRect,0.250000X0.475000X-0.250000X0.475000X0.250000X-0.475000X0.250000X-0.475000X-0.250000X0*%
%ADD27RoundRect,0.162500X0.162500X-0.447500X0.162500X0.447500X-0.162500X0.447500X-0.162500X-0.447500X0*%
%ADD28O,2.997200X1.803400*%
%ADD29O,1.498600X2.997200*%
%ADD30RoundRect,0.250000X0.550000X-1.500000X0.550000X1.500000X-0.550000X1.500000X-0.550000X-1.500000X0*%
%ADD31RoundRect,0.250000X0.250000X0.475000X-0.250000X0.475000X-0.250000X-0.475000X0.250000X-0.475000X0*%
%ADD32C,1.524000*%
%ADD33C,1.000000*%
%ADD34R,1.900000X1.900000*%
%ADD35C,1.900000*%
%ADD36RoundRect,0.250000X-0.250000X-0.475000X0.250000X-0.475000X0.250000X0.475000X-0.250000X0.475000X0*%
%ADD37RoundRect,0.225000X0.225000X0.250000X-0.225000X0.250000X-0.225000X-0.250000X0.225000X-0.250000X0*%
%ADD38RoundRect,0.250000X0.450000X-0.450000X0.450000X0.450000X-0.450000X0.450000X-0.450000X-0.450000X0*%
%ADD39C,1.400000*%
%ADD40RoundRect,0.250000X-0.675000X0.600000X-0.675000X-0.600000X0.675000X-0.600000X0.675000X0.600000X0*%
%ADD41O,1.850000X1.700000*%
%ADD42RoundRect,0.200000X-0.275000X0.200000X-0.275000X-0.200000X0.275000X-0.200000X0.275000X0.200000X0*%
%ADD43RoundRect,0.150000X-0.150000X0.587500X-0.150000X-0.587500X0.150000X-0.587500X0.150000X0.587500X0*%
%ADD44RoundRect,0.250000X-0.850000X-0.350000X0.850000X-0.350000X0.850000X0.350000X-0.850000X0.350000X0*%
%ADD45RoundRect,0.249997X-2.950003X-2.650003X2.950003X-2.650003X2.950003X2.650003X-2.950003X2.650003X0*%
%ADD46RoundRect,0.162500X-0.162500X0.447500X-0.162500X-0.447500X0.162500X-0.447500X0.162500X0.447500X0*%
%ADD47C,1.700000*%
G04 APERTURE END LIST*
D10*
%TO.C,R22*%
X31940000Y-20320000D03*
X30290000Y-20320000D03*
%TD*%
D11*
%TO.C,D3*%
X5080000Y-54610000D03*
D12*
X2540000Y-54610000D03*
%TD*%
D13*
%TO.C,R33*%
X8012613Y-63854341D03*
D14*
X8012613Y-53694341D03*
%TD*%
D15*
%TO.C,J6*%
X9800000Y-36850000D03*
D16*
X9800000Y-39350000D03*
%TD*%
D13*
%TO.C,C5*%
X45720000Y-53180000D03*
D14*
X45720000Y-33180000D03*
%TD*%
D15*
%TO.C,J7*%
X9800000Y-45740000D03*
D16*
X9800000Y-48240000D03*
%TD*%
D17*
%TO.C,C11*%
X90170000Y-38180000D03*
X90170000Y-48180000D03*
%TD*%
D18*
%TO.C,REF\u002A\u002A*%
X92000000Y-3000000D03*
%TD*%
D19*
%TO.C,Q7*%
X20994083Y-45387500D03*
X22894083Y-45387500D03*
X21944083Y-43512500D03*
%TD*%
D20*
%TO.C,C7*%
X32838876Y-12023612D03*
X34388876Y-12023612D03*
%TD*%
D11*
%TO.C,D1*%
X11430000Y-5080000D03*
D12*
X8890000Y-5080000D03*
%TD*%
D13*
%TO.C,R2*%
X52070000Y-38100000D03*
D14*
X52070000Y-48260000D03*
%TD*%
D13*
%TO.C,R3*%
X59690000Y-15240000D03*
D14*
X59690000Y-25400000D03*
%TD*%
D13*
%TO.C,R1*%
X52070000Y-15240000D03*
D14*
X52070000Y-25400000D03*
%TD*%
D21*
%TO.C,R27*%
X35871795Y-42241208D03*
X37521795Y-42241208D03*
%TD*%
D20*
%TO.C,C6*%
X27606841Y-12054955D03*
X29156841Y-12054955D03*
%TD*%
D13*
%TO.C,R8*%
X85090000Y-34290000D03*
D14*
X74930000Y-34290000D03*
%TD*%
D22*
%TO.C,Q1*%
X31750000Y-40640000D03*
D23*
X25450000Y-38360000D03*
D22*
X31750000Y-36080000D03*
%TD*%
D24*
%TO.C,U2*%
X64780000Y-16520000D03*
D14*
X64780000Y-19060000D03*
X64780000Y-21600000D03*
X64780000Y-24140000D03*
X72400000Y-24140000D03*
X72400000Y-21600000D03*
X72400000Y-19060000D03*
X72400000Y-16520000D03*
%TD*%
D10*
%TO.C,R17*%
X29192507Y-15864955D03*
X27542507Y-15864955D03*
%TD*%
D25*
%TO.C,C1*%
X15240000Y-13175000D03*
X15240000Y-18575000D03*
%TD*%
D26*
%TO.C,C14*%
X10795000Y-28890000D03*
X10795000Y-26990000D03*
%TD*%
D13*
%TO.C,R4*%
X59690000Y-38100000D03*
D14*
X59690000Y-48260000D03*
%TD*%
D21*
%TO.C,R24*%
X30290000Y-28575000D03*
X31940000Y-28575000D03*
%TD*%
D13*
%TO.C,R11*%
X81280000Y-25400000D03*
D14*
X81280000Y-15240000D03*
%TD*%
D27*
%TO.C,Q4*%
X14775148Y-30061082D03*
X16675148Y-30061082D03*
X15725148Y-27441082D03*
%TD*%
D21*
%TO.C,R30*%
X27750000Y-50165000D03*
X29400000Y-50165000D03*
%TD*%
D10*
%TO.C,R28*%
X22731717Y-47625000D03*
X21081717Y-47625000D03*
%TD*%
D21*
%TO.C,R25*%
X34100000Y-36195000D03*
X35750000Y-36195000D03*
%TD*%
D28*
%TO.C,J3*%
X25400000Y-62294000D03*
D29*
X25400000Y-57793999D03*
%TD*%
D13*
%TO.C,R31*%
X24130000Y-2540000D03*
D14*
X13970000Y-2540000D03*
%TD*%
D30*
%TO.C,C19*%
X16510000Y-50325000D03*
X16510000Y-44925000D03*
%TD*%
D13*
%TO.C,R32*%
X54610000Y-3810000D03*
D14*
X44450000Y-3810000D03*
%TD*%
D31*
%TO.C,C15*%
X32065000Y-30480000D03*
X30165000Y-30480000D03*
%TD*%
D18*
%TO.C,REF\u002A\u002A*%
X3000000Y-69000000D03*
%TD*%
D32*
%TO.C,U1*%
X20852500Y-9257500D03*
X23392500Y-9307500D03*
X28472500Y-9307500D03*
X31012500Y-9307500D03*
X33552500Y-9307500D03*
%TD*%
D33*
%TO.C,J5*%
X76240000Y-61000000D03*
X81240000Y-61000000D03*
D34*
X76490000Y-57000000D03*
D35*
X80990000Y-57000000D03*
X75840000Y-64500000D03*
X81640000Y-64500000D03*
%TD*%
D17*
%TO.C,RV1*%
X53200000Y-58355000D03*
X50700000Y-58355000D03*
X48200000Y-58355000D03*
X53200000Y-60855000D03*
X50700000Y-60855000D03*
X48200000Y-60855000D03*
%TD*%
D36*
%TO.C,C8*%
X27464443Y-13925586D03*
X29364443Y-13925586D03*
%TD*%
D18*
%TO.C,REF\u002A\u002A*%
X92000000Y-69000000D03*
%TD*%
D13*
%TO.C,R9*%
X85090000Y-25400000D03*
D14*
X85090000Y-15240000D03*
%TD*%
D30*
%TO.C,C18*%
X16510000Y-40800000D03*
X16510000Y-35400000D03*
%TD*%
D37*
%TO.C,C12*%
X69355000Y-13970000D03*
X67805000Y-13970000D03*
%TD*%
D31*
%TO.C,C17*%
X26318306Y-51779805D03*
X24418306Y-51779805D03*
%TD*%
D38*
%TO.C,SW1*%
X2167500Y-27900000D03*
D39*
X2167500Y-25400000D03*
X2167500Y-22900000D03*
X5467500Y-27900000D03*
X5467500Y-25400000D03*
X5467500Y-22900000D03*
%TD*%
D37*
%TO.C,C13*%
X69355000Y-36830000D03*
X67805000Y-36830000D03*
%TD*%
D36*
%TO.C,C2*%
X21283454Y-13820195D03*
X23183454Y-13820195D03*
%TD*%
D40*
%TO.C,J2*%
X7620000Y-12740000D03*
D41*
X7620000Y-15240000D03*
%TD*%
D11*
%TO.C,D2*%
X41910000Y-3810000D03*
D12*
X39370000Y-3810000D03*
%TD*%
D42*
%TO.C,R19*%
X12890000Y-26925000D03*
X12890000Y-28575000D03*
%TD*%
D17*
%TO.C,C10*%
X90180000Y-15250000D03*
X90180000Y-25250000D03*
%TD*%
D43*
%TO.C,Q3*%
X35875000Y-38432500D03*
X33975000Y-38432500D03*
X34925000Y-40307500D03*
%TD*%
D10*
%TO.C,R18*%
X34438876Y-15833612D03*
X32788876Y-15833612D03*
%TD*%
D44*
%TO.C,Q2*%
X19050000Y-28460000D03*
D45*
X25350000Y-30740000D03*
D44*
X19050000Y-33020000D03*
%TD*%
D21*
%TO.C,R21*%
X14900148Y-31926082D03*
X16550148Y-31926082D03*
%TD*%
D13*
%TO.C,R6*%
X55880000Y-38100000D03*
D14*
X55880000Y-48260000D03*
%TD*%
D22*
%TO.C,Q6*%
X27305000Y-25515000D03*
D23*
X21005000Y-23235000D03*
D22*
X27305000Y-20955000D03*
%TD*%
D13*
%TO.C,R12*%
X81280000Y-48260000D03*
D14*
X81280000Y-38100000D03*
%TD*%
D13*
%TO.C,R10*%
X85090000Y-48260000D03*
D14*
X85090000Y-38100000D03*
%TD*%
D24*
%TO.C,U3*%
X64780000Y-39380000D03*
D14*
X64780000Y-41920000D03*
X64780000Y-44460000D03*
X64780000Y-47000000D03*
X72400000Y-47000000D03*
X72400000Y-44460000D03*
X72400000Y-41920000D03*
X72400000Y-39380000D03*
%TD*%
D28*
%TO.C,J4*%
X38100000Y-62294000D03*
D29*
X38100000Y-57793999D03*
%TD*%
D13*
%TO.C,R7*%
X85090000Y-11430000D03*
D14*
X74930000Y-11430000D03*
%TD*%
D13*
%TO.C,R15*%
X72390000Y-59690000D03*
D14*
X62230000Y-59690000D03*
%TD*%
D46*
%TO.C,Q5*%
X32065000Y-22185000D03*
X30165000Y-22185000D03*
X31115000Y-24805000D03*
%TD*%
D20*
%TO.C,C3*%
X21420325Y-11926931D03*
X22970325Y-11926931D03*
%TD*%
D33*
%TO.C,J1*%
X12740000Y-61000000D03*
X17740000Y-61000000D03*
D34*
X12990000Y-57000000D03*
D35*
X17490000Y-57000000D03*
X12340000Y-64500000D03*
X18140000Y-64500000D03*
%TD*%
D13*
%TO.C,R13*%
X77470000Y-25400000D03*
D14*
X77470000Y-15240000D03*
%TD*%
D13*
%TO.C,R5*%
X55880000Y-15240000D03*
D14*
X55880000Y-25400000D03*
%TD*%
D13*
%TO.C,R34*%
X58420000Y-31750000D03*
D14*
X68580000Y-31750000D03*
%TD*%
D21*
%TO.C,R29*%
X24543306Y-49952335D03*
X26193306Y-49952335D03*
%TD*%
D13*
%TO.C,C4*%
X45720000Y-30320000D03*
D14*
X45720000Y-10320000D03*
%TD*%
D13*
%TO.C,R16*%
X72390000Y-55880000D03*
D14*
X62230000Y-55880000D03*
%TD*%
D42*
%TO.C,R26*%
X37465000Y-37910000D03*
X37465000Y-39560000D03*
%TD*%
D13*
%TO.C,R14*%
X77470000Y-48260000D03*
D14*
X77470000Y-38100000D03*
%TD*%
D21*
%TO.C,R23*%
X30290000Y-26670000D03*
X31940000Y-26670000D03*
%TD*%
D36*
%TO.C,C9*%
X32663876Y-13839580D03*
X34563876Y-13839580D03*
%TD*%
D18*
%TO.C,REF\u002A\u002A*%
X3000000Y-3000000D03*
%TD*%
D17*
%TO.C,SW2*%
X58770000Y-63060000D03*
X58770000Y-69060000D03*
X70770000Y-63060000D03*
X70770000Y-69060000D03*
D47*
X60770000Y-64810000D03*
X64770000Y-64810000D03*
X68770000Y-64810000D03*
X60770000Y-67310000D03*
X64770000Y-67310000D03*
X68770000Y-67310000D03*
%TD*%
D42*
%TO.C,R20*%
X16510000Y-23940000D03*
X16510000Y-25590000D03*
%TD*%
D26*
%TO.C,C16*%
X39370000Y-39685000D03*
X39370000Y-37785000D03*
%TD*%
D11*
%TO.C,D4*%
X71120000Y-30480000D03*
D12*
X73660000Y-30480000D03*
%TD*%
D44*
%TO.C,Q8*%
X25220000Y-43185000D03*
D45*
X31520000Y-45465000D03*
D44*
X25220000Y-47745000D03*
%TD*%
M02*
