%TF.GenerationSoftware,KiCad,Pcbnew,7.0.11*%
%TF.CreationDate,2024-12-01T20:51:01+09:00*%
%TF.ProjectId,AudioAmp_v0,41756469-6f41-46d7-905f-76302e6b6963,rev?*%
%TF.SameCoordinates,Original*%
%TF.FileFunction,Copper,L2,Bot*%
%TF.FilePolarity,Positive*%
%FSLAX46Y46*%
G04 Gerber Fmt 4.6, Leading zero omitted, Abs format (unit mm)*
G04 Created by KiCad (PCBNEW 7.0.11) date 2024-12-01 20:51:01*
%MOMM*%
%LPD*%
G01*
G04 APERTURE LIST*
G04 Aperture macros list*
%AMRoundRect*
0 Rectangle with rounded corners*
0 $1 Rounding radius*
0 $2 $3 $4 $5 $6 $7 $8 $9 X,Y pos of 4 corners*
0 Add a 4 corners polygon primitive as box body*
4,1,4,$2,$3,$4,$5,$6,$7,$8,$9,$2,$3,0*
0 Add four circle primitives for the rounded corners*
1,1,$1+$1,$2,$3*
1,1,$1+$1,$4,$5*
1,1,$1+$1,$6,$7*
1,1,$1+$1,$8,$9*
0 Add four rect primitives between the rounded corners*
20,1,$1+$1,$2,$3,$4,$5,0*
20,1,$1+$1,$4,$5,$6,$7,0*
20,1,$1+$1,$6,$7,$8,$9,0*
20,1,$1+$1,$8,$9,$2,$3,0*%
G04 Aperture macros list end*
%TA.AperFunction,ComponentPad*%
%ADD10R,1.800000X1.800000*%
%TD*%
%TA.AperFunction,ComponentPad*%
%ADD11C,1.800000*%
%TD*%
%TA.AperFunction,ComponentPad*%
%ADD12C,1.600000*%
%TD*%
%TA.AperFunction,ComponentPad*%
%ADD13O,1.600000X1.600000*%
%TD*%
%TA.AperFunction,ComponentPad*%
%ADD14RoundRect,0.250000X-0.750000X0.600000X-0.750000X-0.600000X0.750000X-0.600000X0.750000X0.600000X0*%
%TD*%
%TA.AperFunction,ComponentPad*%
%ADD15O,2.000000X1.700000*%
%TD*%
%TA.AperFunction,ComponentPad*%
%ADD16C,2.000000*%
%TD*%
%TA.AperFunction,ComponentPad*%
%ADD17R,1.600000X1.600000*%
%TD*%
%TA.AperFunction,ComponentPad*%
%ADD18O,2.997200X1.803400*%
%TD*%
%TA.AperFunction,ComponentPad*%
%ADD19O,1.498600X2.997200*%
%TD*%
%TA.AperFunction,ComponentPad*%
%ADD20C,1.524000*%
%TD*%
%TA.AperFunction,ComponentPad*%
%ADD21R,1.900000X1.900000*%
%TD*%
%TA.AperFunction,ComponentPad*%
%ADD22C,1.900000*%
%TD*%
%TA.AperFunction,ComponentPad*%
%ADD23RoundRect,0.250000X0.450000X-0.450000X0.450000X0.450000X-0.450000X0.450000X-0.450000X-0.450000X0*%
%TD*%
%TA.AperFunction,ComponentPad*%
%ADD24C,1.400000*%
%TD*%
%TA.AperFunction,ComponentPad*%
%ADD25RoundRect,0.250000X-0.675000X0.600000X-0.675000X-0.600000X0.675000X-0.600000X0.675000X0.600000X0*%
%TD*%
%TA.AperFunction,ComponentPad*%
%ADD26O,1.850000X1.700000*%
%TD*%
%TA.AperFunction,ComponentPad*%
%ADD27C,1.700000*%
%TD*%
%TA.AperFunction,ViaPad*%
%ADD28C,0.600000*%
%TD*%
%TA.AperFunction,ViaPad*%
%ADD29C,1.000000*%
%TD*%
%TA.AperFunction,Conductor*%
%ADD30C,1.000000*%
%TD*%
%TA.AperFunction,Conductor*%
%ADD31C,2.000000*%
%TD*%
%TA.AperFunction,Conductor*%
%ADD32C,0.500000*%
%TD*%
G04 APERTURE END LIST*
D10*
%TO.P,D3,1,K*%
%TO.N,Net-(D3-K)*%
X5080000Y-54610000D03*
D11*
%TO.P,D3,2,A*%
%TO.N,+9V*%
X2540000Y-54610000D03*
%TD*%
D12*
%TO.P,R33,1*%
%TO.N,-9V*%
X8012613Y-63854341D03*
D13*
%TO.P,R33,2*%
%TO.N,Net-(D3-K)*%
X8012613Y-53694341D03*
%TD*%
D14*
%TO.P,J6,1,Pin_1*%
%TO.N,GND*%
X9800000Y-36850000D03*
D15*
%TO.P,J6,2,Pin_2*%
%TO.N,+9V*%
X9800000Y-39350000D03*
%TD*%
D12*
%TO.P,C5,1*%
%TO.N,Net-(C5-Pad1)*%
X45720000Y-53180000D03*
D13*
%TO.P,C5,2*%
%TO.N,Net-(C5-Pad2)*%
X45720000Y-33180000D03*
%TD*%
D14*
%TO.P,J7,1,Pin_1*%
%TO.N,-9V*%
X9800000Y-45740000D03*
D15*
%TO.P,J7,2,Pin_2*%
%TO.N,GND*%
X9800000Y-48240000D03*
%TD*%
D16*
%TO.P,C11,1*%
%TO.N,Net-(SW2B-B)*%
X90170000Y-38180000D03*
%TO.P,C11,2*%
%TO.N,Net-(SW2B-A)*%
X90170000Y-48180000D03*
%TD*%
D10*
%TO.P,D1,1,K*%
%TO.N,Net-(D1-K)*%
X11430000Y-5080000D03*
D11*
%TO.P,D1,2,A*%
%TO.N,+5V*%
X8890000Y-5080000D03*
%TD*%
D12*
%TO.P,R2,1*%
%TO.N,Net-(C5-Pad2)*%
X52070000Y-38100000D03*
D13*
%TO.P,R2,2*%
%TO.N,Net-(U3A-+)*%
X52070000Y-48260000D03*
%TD*%
D12*
%TO.P,R3,1*%
%TO.N,GND*%
X59690000Y-15240000D03*
D13*
%TO.P,R3,2*%
%TO.N,Net-(U2A-+)*%
X59690000Y-25400000D03*
%TD*%
D12*
%TO.P,R1,1*%
%TO.N,Net-(C4-Pad2)*%
X52070000Y-15240000D03*
D13*
%TO.P,R1,2*%
%TO.N,Net-(U2A-+)*%
X52070000Y-25400000D03*
%TD*%
D12*
%TO.P,R8,1*%
%TO.N,Net-(SW2B-B)*%
X85090000Y-34290000D03*
D13*
%TO.P,R8,2*%
%TO.N,Net-(U3A--)*%
X74930000Y-34290000D03*
%TD*%
D17*
%TO.P,U2,1*%
%TO.N,Net-(U2B-+)*%
X64780000Y-16520000D03*
D13*
%TO.P,U2,2,-*%
%TO.N,Net-(U2A--)*%
X64780000Y-19060000D03*
%TO.P,U2,3,+*%
%TO.N,Net-(U2A-+)*%
X64780000Y-21600000D03*
%TO.P,U2,4,V-*%
%TO.N,VEE*%
X64780000Y-24140000D03*
%TO.P,U2,5,+*%
%TO.N,Net-(U2B-+)*%
X72400000Y-24140000D03*
%TO.P,U2,6,-*%
%TO.N,Net-(U2B--)*%
X72400000Y-21600000D03*
%TO.P,U2,7*%
X72400000Y-19060000D03*
%TO.P,U2,8,V+*%
%TO.N,VCC*%
X72400000Y-16520000D03*
%TD*%
D12*
%TO.P,R4,1*%
%TO.N,GND*%
X59690000Y-38100000D03*
D13*
%TO.P,R4,2*%
%TO.N,Net-(U3A-+)*%
X59690000Y-48260000D03*
%TD*%
D12*
%TO.P,R11,1*%
%TO.N,Net-(SW2A-A)*%
X81280000Y-25400000D03*
D13*
%TO.P,R11,2*%
%TO.N,Net-(U2B-+)*%
X81280000Y-15240000D03*
%TD*%
D18*
%TO.P,J3,1,1*%
%TO.N,GND*%
X25400000Y-62294000D03*
D19*
%TO.P,J3,2,2*%
%TO.N,Net-(J1-PadT)*%
X25400000Y-57793999D03*
%TD*%
D12*
%TO.P,R31,1*%
%TO.N,GND*%
X24130000Y-2540000D03*
D13*
%TO.P,R31,2*%
%TO.N,Net-(D1-K)*%
X13970000Y-2540000D03*
%TD*%
D12*
%TO.P,R32,1*%
%TO.N,-12V*%
X54610000Y-3810000D03*
D13*
%TO.P,R32,2*%
%TO.N,Net-(D2-K)*%
X44450000Y-3810000D03*
%TD*%
D20*
%TO.P,U1,1,+VIN*%
%TO.N,+5V*%
X20852500Y-9257500D03*
%TO.P,U1,2,-Vin*%
%TO.N,GND*%
X23392500Y-9307500D03*
%TO.P,U1,4,-VOUT*%
%TO.N,+12V*%
X28472500Y-9307500D03*
%TO.P,U1,5,Common*%
%TO.N,GND*%
X31012500Y-9307500D03*
%TO.P,U1,6,+Vout*%
%TO.N,-12V*%
X33552500Y-9307500D03*
%TD*%
D21*
%TO.P,J5,R*%
%TO.N,Net-(J5-PadR)*%
X76490000Y-57000000D03*
D22*
%TO.P,J5,S*%
%TO.N,GND*%
X80990000Y-57000000D03*
%TO.P,J5,T*%
%TO.N,Net-(J5-PadT)*%
X75840000Y-64500000D03*
X81640000Y-64500000D03*
%TD*%
D16*
%TO.P,RV1,1,1*%
%TO.N,Net-(J1-PadT)*%
X53200000Y-58355000D03*
%TO.P,RV1,2,2*%
%TO.N,Net-(C4-Pad1)*%
X50700000Y-58355000D03*
%TO.P,RV1,3,3*%
%TO.N,GND*%
X48200000Y-58355000D03*
%TO.P,RV1,4,4*%
%TO.N,Net-(J1-PadR)*%
X53200000Y-60855000D03*
%TO.P,RV1,5,5*%
%TO.N,Net-(C5-Pad1)*%
X50700000Y-60855000D03*
%TO.P,RV1,6,6*%
%TO.N,GND*%
X48200000Y-60855000D03*
%TD*%
D12*
%TO.P,R9,1*%
%TO.N,Net-(SW2A-A)*%
X85090000Y-25400000D03*
D13*
%TO.P,R9,2*%
%TO.N,Net-(SW2A-B)*%
X85090000Y-15240000D03*
%TD*%
D23*
%TO.P,SW1,1,A*%
%TO.N,Net-(Q3-G)*%
X2167500Y-27900000D03*
D24*
%TO.P,SW1,2,B*%
%TO.N,GND*%
X2167500Y-25400000D03*
%TO.P,SW1,3,C*%
%TO.N,Net-(Q7-G)*%
X2167500Y-22900000D03*
%TO.P,SW1,4,A*%
%TO.N,Net-(Q5-G)*%
X5467500Y-27900000D03*
%TO.P,SW1,5,B*%
%TO.N,GND*%
X5467500Y-25400000D03*
%TO.P,SW1,6,C*%
%TO.N,Net-(Q4-G)*%
X5467500Y-22900000D03*
%TD*%
D25*
%TO.P,J2,1,Pin_1*%
%TO.N,GND*%
X7620000Y-12740000D03*
D26*
%TO.P,J2,2,Pin_2*%
%TO.N,+5V*%
X7620000Y-15240000D03*
%TD*%
D10*
%TO.P,D2,1,K*%
%TO.N,Net-(D2-K)*%
X41910000Y-3810000D03*
D11*
%TO.P,D2,2,A*%
%TO.N,+12V*%
X39370000Y-3810000D03*
%TD*%
D16*
%TO.P,C10,1*%
%TO.N,Net-(SW2A-B)*%
X90180000Y-15250000D03*
%TO.P,C10,2*%
%TO.N,Net-(SW2A-A)*%
X90180000Y-25250000D03*
%TD*%
D12*
%TO.P,R6,1*%
%TO.N,GND*%
X55880000Y-38100000D03*
D13*
%TO.P,R6,2*%
%TO.N,Net-(U3A--)*%
X55880000Y-48260000D03*
%TD*%
D12*
%TO.P,R12,1*%
%TO.N,Net-(SW2B-A)*%
X81280000Y-48260000D03*
D13*
%TO.P,R12,2*%
%TO.N,Net-(U3B-+)*%
X81280000Y-38100000D03*
%TD*%
D12*
%TO.P,R10,1*%
%TO.N,Net-(SW2B-A)*%
X85090000Y-48260000D03*
D13*
%TO.P,R10,2*%
%TO.N,Net-(SW2B-B)*%
X85090000Y-38100000D03*
%TD*%
D17*
%TO.P,U3,1*%
%TO.N,Net-(U3B-+)*%
X64780000Y-39380000D03*
D13*
%TO.P,U3,2,-*%
%TO.N,Net-(U3A--)*%
X64780000Y-41920000D03*
%TO.P,U3,3,+*%
%TO.N,Net-(U3A-+)*%
X64780000Y-44460000D03*
%TO.P,U3,4,V-*%
%TO.N,VEE*%
X64780000Y-47000000D03*
%TO.P,U3,5,+*%
%TO.N,Net-(U3B-+)*%
X72400000Y-47000000D03*
%TO.P,U3,6,-*%
%TO.N,Net-(U3B--)*%
X72400000Y-44460000D03*
%TO.P,U3,7*%
X72400000Y-41920000D03*
%TO.P,U3,8,V+*%
%TO.N,VCC*%
X72400000Y-39380000D03*
%TD*%
D18*
%TO.P,J4,1,1*%
%TO.N,GND*%
X38100000Y-62294000D03*
D19*
%TO.P,J4,2,2*%
%TO.N,Net-(J1-PadR)*%
X38100000Y-57793999D03*
%TD*%
D12*
%TO.P,R7,1*%
%TO.N,Net-(SW2A-B)*%
X85090000Y-11430000D03*
D13*
%TO.P,R7,2*%
%TO.N,Net-(U2A--)*%
X74930000Y-11430000D03*
%TD*%
D12*
%TO.P,R15,1*%
%TO.N,Net-(J5-PadT)*%
X72390000Y-59690000D03*
D13*
%TO.P,R15,2*%
%TO.N,Net-(SW2A-A)*%
X62230000Y-59690000D03*
%TD*%
D21*
%TO.P,J1,R*%
%TO.N,Net-(J1-PadR)*%
X12990000Y-57000000D03*
D22*
%TO.P,J1,S*%
%TO.N,GND*%
X17490000Y-57000000D03*
%TO.P,J1,T*%
%TO.N,Net-(J1-PadT)*%
X12340000Y-64500000D03*
X18140000Y-64500000D03*
%TD*%
D12*
%TO.P,R13,1*%
%TO.N,Net-(SW2A-A)*%
X77470000Y-25400000D03*
D13*
%TO.P,R13,2*%
%TO.N,Net-(U2B--)*%
X77470000Y-15240000D03*
%TD*%
D12*
%TO.P,R5,1*%
%TO.N,GND*%
X55880000Y-15240000D03*
D13*
%TO.P,R5,2*%
%TO.N,Net-(U2A--)*%
X55880000Y-25400000D03*
%TD*%
D12*
%TO.P,R34,1*%
%TO.N,VEE*%
X58420000Y-31750000D03*
D13*
%TO.P,R34,2*%
%TO.N,Net-(D4-K)*%
X68580000Y-31750000D03*
%TD*%
D12*
%TO.P,C4,1*%
%TO.N,Net-(C4-Pad1)*%
X45720000Y-30320000D03*
D13*
%TO.P,C4,2*%
%TO.N,Net-(C4-Pad2)*%
X45720000Y-10320000D03*
%TD*%
D12*
%TO.P,R16,1*%
%TO.N,Net-(J5-PadR)*%
X72390000Y-55880000D03*
D13*
%TO.P,R16,2*%
%TO.N,Net-(SW2B-A)*%
X62230000Y-55880000D03*
%TD*%
D12*
%TO.P,R14,1*%
%TO.N,Net-(SW2B-A)*%
X77470000Y-48260000D03*
D13*
%TO.P,R14,2*%
%TO.N,Net-(U3B--)*%
X77470000Y-38100000D03*
%TD*%
D16*
%TO.P,SW2,*%
%TO.N,*%
X58770000Y-63060000D03*
X58770000Y-69060000D03*
X70770000Y-63060000D03*
X70770000Y-69060000D03*
D27*
%TO.P,SW2,1,A*%
%TO.N,Net-(SW2A-A)*%
X60770000Y-64810000D03*
%TO.P,SW2,2,B*%
%TO.N,Net-(SW2A-B)*%
X64770000Y-64810000D03*
%TO.P,SW2,3,C*%
%TO.N,unconnected-(SW2A-C-Pad3)*%
X68770000Y-64810000D03*
%TO.P,SW2,4,A*%
%TO.N,Net-(SW2B-A)*%
X60770000Y-67310000D03*
%TO.P,SW2,5,B*%
%TO.N,Net-(SW2B-B)*%
X64770000Y-67310000D03*
%TO.P,SW2,6,C*%
%TO.N,unconnected-(SW2B-C-Pad6)*%
X68770000Y-67310000D03*
%TD*%
D10*
%TO.P,D4,1,K*%
%TO.N,Net-(D4-K)*%
X71120000Y-30480000D03*
D11*
%TO.P,D4,2,A*%
%TO.N,VCC*%
X73660000Y-30480000D03*
%TD*%
D28*
%TO.N,GND*%
X36068000Y-30988000D03*
X34290000Y-49530000D03*
X49784000Y-54356000D03*
X23876000Y-69596000D03*
X77975193Y-49590956D03*
X58118894Y-44204775D03*
X73300028Y-48290557D03*
X13438670Y-63317052D03*
X78680416Y-24311010D03*
X23876000Y-56896000D03*
X63908709Y-27417219D03*
X49972420Y-34516290D03*
X28529319Y-49389484D03*
X11593645Y-22580276D03*
X68560703Y-22209321D03*
X1270000Y-67310000D03*
X17145000Y-6985000D03*
X45984623Y-17997051D03*
X40005000Y-11430000D03*
X17018000Y-33020000D03*
X9398000Y-29210000D03*
X984223Y-10404826D03*
X68326000Y-62230000D03*
X21434687Y-16749843D03*
X61159910Y-866295D03*
X13970000Y-30988000D03*
X44450000Y-1016000D03*
X39757568Y-55238433D03*
X32796398Y-10674248D03*
X88265097Y-61235236D03*
X50800000Y-52070000D03*
X76061939Y-22235388D03*
X5080000Y-71120000D03*
X52070000Y-63500000D03*
X7366000Y-4826000D03*
X86173851Y-37045176D03*
X93980000Y-38354000D03*
X62493844Y-57902504D03*
X79756000Y-69596000D03*
X42117355Y-37938365D03*
X65960546Y-35506279D03*
X57589297Y-71135495D03*
X46539263Y-34312628D03*
X54003325Y-67179727D03*
X954413Y-62244712D03*
X49870666Y-6409559D03*
X74012857Y-38709916D03*
X93980000Y-1270000D03*
X1270000Y-1270000D03*
X9198156Y-56477515D03*
X70922411Y-43767104D03*
X48894642Y-10428755D03*
X85863679Y-16374902D03*
X69342000Y-69596000D03*
X51189894Y-12742757D03*
X13716000Y-71120000D03*
X12446000Y-37592000D03*
X5080000Y-1270000D03*
X63784336Y-17864701D03*
X71076458Y-21303315D03*
X54538421Y-25736202D03*
X75340269Y-32996072D03*
X50564194Y-48597498D03*
X89780124Y-63049900D03*
X65278000Y-68580000D03*
X1270000Y-5080000D03*
X59690000Y-66040000D03*
X66100247Y-42262894D03*
X76594244Y-55526978D03*
X7620000Y-52324000D03*
X55459191Y-8527084D03*
X73791599Y-42260932D03*
X1270000Y-71120000D03*
X50670689Y-38385865D03*
X83641515Y-49222586D03*
X33416777Y-2697669D03*
X73152000Y-62230000D03*
X53079525Y-972967D03*
X36068000Y-26416000D03*
X90170000Y-10160000D03*
X48260000Y-71120000D03*
X43576042Y-64990022D03*
X68522304Y-44873776D03*
X23368000Y-50800000D03*
X73152000Y-14732000D03*
X64135000Y-11684000D03*
X27260687Y-53025858D03*
X44386266Y-32334198D03*
X91592664Y-39105729D03*
X66702768Y-39784077D03*
X86549428Y-55366431D03*
X9144000Y-41910000D03*
X90170000Y-66675000D03*
X81909443Y-60066676D03*
X63843828Y-43295579D03*
X25704866Y-10738749D03*
X7520990Y-8497572D03*
X81777882Y-20990015D03*
X79184322Y-9626366D03*
X93980000Y-10160000D03*
X77003924Y-65584719D03*
X84217673Y-47001143D03*
X44386266Y-43157371D03*
X36454355Y-51592264D03*
X70859719Y-12564384D03*
X54249319Y-40800713D03*
X56051337Y-20528277D03*
X50641594Y-29512027D03*
X93472000Y-59436000D03*
X74924738Y-57072817D03*
X71021871Y-47193667D03*
X4228791Y-27294470D03*
X6960550Y-29636450D03*
X53463766Y-44233870D03*
X57247467Y-48659617D03*
X61852495Y-8527084D03*
X56885568Y-58245867D03*
X56285937Y-34516290D03*
X73334454Y-10321656D03*
X46362852Y-24514231D03*
X86360000Y-13970000D03*
X19700165Y-64629526D03*
X44240793Y-36756570D03*
X79893856Y-30793336D03*
X40326978Y-6565203D03*
X1016000Y-33782000D03*
X2464630Y-24095061D03*
X11176000Y-57150000D03*
X47644856Y-48627147D03*
X72699901Y-54589783D03*
X24130000Y-19812000D03*
X39776977Y-61218687D03*
X50930696Y-20353710D03*
X42667844Y-21342925D03*
X60642472Y-45211215D03*
X63792331Y-30733998D03*
X6639146Y-64962291D03*
X36005051Y-14904424D03*
X38158599Y-48526342D03*
X50800000Y-8636000D03*
X57128537Y-51866604D03*
X826313Y-48304001D03*
X75966142Y-26354699D03*
X85786833Y-52888746D03*
X78587915Y-39178461D03*
X66802000Y-8636000D03*
X85067954Y-67657633D03*
X65232710Y-48769319D03*
X67488665Y-53928993D03*
X31596508Y-61052304D03*
X91460581Y-51027744D03*
X47338006Y-12015632D03*
X8705710Y-50130424D03*
X90170000Y-71120000D03*
X93980000Y-71120000D03*
X42608005Y-16618653D03*
X23640163Y-60860688D03*
X55623444Y-2841335D03*
X45974000Y-3810000D03*
X33274000Y-71120000D03*
X34798000Y-5080000D03*
X93980000Y-23368000D03*
X30988000Y-67564000D03*
X14478000Y-40894000D03*
X74111302Y-35513046D03*
X42073502Y-48651987D03*
X6858000Y-55626000D03*
X72390000Y-69596000D03*
X3556000Y-28956000D03*
X40020240Y-26812700D03*
X72715038Y-25662924D03*
X30480000Y-5588000D03*
X79843791Y-41759514D03*
X35052000Y-8382000D03*
X9144000Y-66548000D03*
X91694000Y-57912000D03*
X32868964Y-18031092D03*
X9088724Y-59350120D03*
X84116470Y-65542383D03*
X44764495Y-29075609D03*
X57785000Y-25400000D03*
X1947214Y-32139687D03*
X39052568Y-20332815D03*
X11430000Y-44196000D03*
X36100286Y-20237580D03*
X60490771Y-35593562D03*
X13764980Y-4354229D03*
X27178000Y-55880000D03*
X7112000Y-27940000D03*
X87877016Y-30825268D03*
X5103669Y-35400660D03*
X86917739Y-43208685D03*
X63775495Y-20256950D03*
X66057670Y-21009030D03*
X91517337Y-18371539D03*
X6845356Y-59760493D03*
X81764942Y-43064407D03*
X63927443Y-34290000D03*
X28854149Y-26523382D03*
X19034636Y-60802731D03*
X9652000Y-26162000D03*
X75385499Y-4774856D03*
X77054980Y-63396950D03*
X68871083Y-19120444D03*
X49441300Y-14421407D03*
X66185595Y-60102661D03*
X60679214Y-26486194D03*
X52070000Y-11684000D03*
X81534000Y-71120000D03*
X909504Y-55929862D03*
X75543073Y-51920020D03*
X56373221Y-27970016D03*
X25400000Y-19050000D03*
X5080000Y-5080000D03*
X44196000Y-51816000D03*
X964965Y-41759626D03*
X19050000Y-1016000D03*
X69531225Y-51946858D03*
X11745338Y-3038058D03*
X47752000Y-68072000D03*
X13716000Y-43942000D03*
X35560000Y-43434000D03*
X60997411Y-18608037D03*
X93980000Y-66675000D03*
X57622443Y-17007836D03*
X66327856Y-12804195D03*
X16566630Y-60747270D03*
X42173237Y-31322355D03*
X60622807Y-32393167D03*
X68854240Y-15199670D03*
X66655098Y-16788165D03*
X73914000Y-1016000D03*
X91596478Y-47269089D03*
X29271980Y-10636588D03*
X60475552Y-41557171D03*
X80252306Y-61693683D03*
X30596067Y-17908705D03*
X90170000Y-1270000D03*
X64887090Y-58618656D03*
X93980000Y-5080000D03*
X4387387Y-37417799D03*
X54343578Y-48613115D03*
X93980000Y-53594000D03*
X93980000Y-14478000D03*
X85567877Y-39408651D03*
X83619377Y-37970098D03*
X79382423Y-14274091D03*
X4725382Y-12950585D03*
X7366000Y-40132000D03*
X29707548Y-27831395D03*
X91694000Y-25146000D03*
X82831659Y-26514362D03*
X15494000Y-24892000D03*
X71029223Y-60082050D03*
X64516000Y-71120000D03*
X12446000Y-66802000D03*
X63897867Y-37481500D03*
X80500576Y-17764819D03*
X80549837Y-52396709D03*
X84657699Y-57175128D03*
X77371774Y-61139130D03*
X42164000Y-51816000D03*
X91645067Y-35902558D03*
X37811362Y-40673252D03*
X37582996Y-66365407D03*
X91534645Y-43146852D03*
X68950615Y-38068614D03*
X17735167Y-67688730D03*
X16002000Y-47244000D03*
X78004088Y-46928310D03*
X58495279Y-11799912D03*
X88675332Y-24215212D03*
X8352986Y-38635105D03*
X71054848Y-56309610D03*
X1028497Y-16957388D03*
X83813408Y-10708333D03*
X17018000Y-37846000D03*
X70739089Y-35436148D03*
X69068923Y-42012206D03*
X25146000Y-8128000D03*
X46713830Y-31228605D03*
X63903117Y-40793917D03*
X67330163Y-4957932D03*
X82298896Y-918286D03*
X64183834Y-56254615D03*
X5080000Y-67310000D03*
X89583638Y-49629700D03*
X6964096Y-32244205D03*
X1013669Y-23365669D03*
X13208000Y-58674000D03*
X71672810Y-17905237D03*
X71533668Y-40789693D03*
X38247780Y-34563397D03*
X73791599Y-44059461D03*
X76959385Y-44747495D03*
X66439935Y-24275008D03*
X87717353Y-20670689D03*
X39609645Y-71158399D03*
X61014047Y-4912163D03*
X90170000Y-5080000D03*
X82937376Y-4866394D03*
X3580256Y-20249973D03*
X61976000Y-68072000D03*
X39702508Y-45037435D03*
X26670000Y-6985000D03*
X44196000Y-48514000D03*
X48372219Y-44466626D03*
X68411603Y-58515600D03*
X30362383Y-53417961D03*
X6009330Y-17997829D03*
X91440000Y-28194000D03*
X47383005Y-39520552D03*
%TO.N,Net-(SW2B-A)*%
X63730000Y-57380000D03*
D29*
%TO.N,VCC*%
X32238876Y-32405000D03*
X29845000Y-32385000D03*
X31115000Y-32385000D03*
%TO.N,VEE*%
X36322000Y-49022000D03*
X34798000Y-47498000D03*
X35560000Y-48260000D03*
D28*
%TO.N,Net-(Q3-G)*%
X34925000Y-38735000D03*
%TO.N,Net-(Q4-G)*%
X7622278Y-26673662D03*
%TO.N,Net-(Q5-G)*%
X31115000Y-21590000D03*
%TO.N,Net-(Q7-G)*%
X19685000Y-45085000D03*
%TD*%
D30*
%TO.N,+5V*%
X8890000Y-5080000D02*
X5995000Y-7975000D01*
X5995000Y-14885000D02*
X6350000Y-15240000D01*
X6350000Y-15240000D02*
X7620000Y-15240000D01*
X5995000Y-7975000D02*
X5995000Y-14885000D01*
%TO.N,+12V*%
X33970000Y-3810000D02*
X28472500Y-9307500D01*
X39370000Y-3810000D02*
X33970000Y-3810000D01*
%TO.N,Net-(SW2A-A)*%
X78073453Y-62250000D02*
X89523453Y-50800000D01*
X63730000Y-61190000D02*
X74662233Y-61190000D01*
X89954164Y-50800000D02*
X92710000Y-48044164D01*
X92710000Y-48044164D02*
X92710000Y-27780000D01*
X89523453Y-50800000D02*
X89954164Y-50800000D01*
X75722233Y-62250000D02*
X78073453Y-62250000D01*
X92710000Y-27780000D02*
X90180000Y-25250000D01*
X62230000Y-59690000D02*
X63730000Y-61190000D01*
X74662233Y-61190000D02*
X75722233Y-62250000D01*
%TO.N,Net-(SW2B-A)*%
X68350000Y-57380000D02*
X63730000Y-57380000D01*
X77470000Y-48260000D02*
X68350000Y-57380000D01*
D31*
%TO.N,VCC*%
X74400000Y-17388630D02*
X74400000Y-30480000D01*
D30*
X73660000Y-30480000D02*
X74400000Y-30480000D01*
D31*
X32238876Y-32405000D02*
X38735000Y-25908876D01*
X74400000Y-31645000D02*
X72400000Y-33645000D01*
X74400000Y-30480000D02*
X74400000Y-31645000D01*
X32238876Y-32405000D02*
X29865000Y-32405000D01*
X72400000Y-33645000D02*
X72400000Y-39380000D01*
X66040000Y-10160000D02*
X72400000Y-16520000D01*
X51435000Y-10160000D02*
X66040000Y-10160000D01*
X73531370Y-16520000D02*
X74400000Y-17388630D01*
X38735000Y-22860000D02*
X51435000Y-10160000D01*
X72400000Y-16520000D02*
X73531370Y-16520000D01*
X38735000Y-25908876D02*
X38735000Y-22860000D01*
%TO.N,VEE*%
X37560000Y-50260000D02*
X61520000Y-50260000D01*
X63648630Y-47000000D02*
X62230000Y-45581370D01*
X35560000Y-48260000D02*
X36322000Y-49022000D01*
X62230000Y-35560000D02*
X62230000Y-26690000D01*
X64780000Y-47000000D02*
X63648630Y-47000000D01*
X61520000Y-50260000D02*
X62230000Y-49550000D01*
X35560000Y-48260000D02*
X34798000Y-47498000D01*
D30*
X58420000Y-31750000D02*
X62230000Y-35560000D01*
D31*
X62230000Y-26690000D02*
X64780000Y-24140000D01*
X62230000Y-49550000D02*
X62230000Y-45581370D01*
X61520000Y-50260000D02*
X64780000Y-47000000D01*
X36322000Y-49022000D02*
X37560000Y-50260000D01*
X62230000Y-45581370D02*
X62230000Y-35560000D01*
D30*
%TO.N,Net-(J1-PadR)*%
X53200000Y-60855000D02*
X50159300Y-63895700D01*
X15680000Y-59690000D02*
X24130000Y-59690000D01*
X44201701Y-63895700D02*
X40318000Y-60012000D01*
X12990000Y-57000000D02*
X15680000Y-59690000D01*
X50159300Y-63895700D02*
X44201701Y-63895700D01*
X24452000Y-60012000D02*
X40318000Y-60012000D01*
X40318000Y-60012000D02*
X38100000Y-57793999D01*
X24130000Y-59690000D02*
X24452000Y-60012000D01*
%TO.N,Net-(J1-PadT)*%
X26678215Y-57793999D02*
X25400000Y-57793999D01*
X53200000Y-58355000D02*
X51500000Y-56655000D01*
X51500000Y-56655000D02*
X39759921Y-56655000D01*
X29846214Y-54626000D02*
X26678215Y-57793999D01*
X39759921Y-56655000D02*
X37730921Y-54626000D01*
X37730921Y-54626000D02*
X29846214Y-54626000D01*
D32*
%TO.N,Net-(Q3-G)*%
X14802475Y-38735000D02*
X5277475Y-29210000D01*
X14802475Y-38735000D02*
X34925000Y-38735000D01*
X4870661Y-29210000D02*
X3560661Y-27900000D01*
X3560661Y-27900000D02*
X2167500Y-27900000D01*
X5277475Y-29210000D02*
X4870661Y-29210000D01*
%TO.N,Net-(Q4-G)*%
X7622278Y-25054778D02*
X7622278Y-26673662D01*
X5467500Y-22900000D02*
X7622278Y-25054778D01*
%TO.N,Net-(Q5-G)*%
X8212661Y-27900000D02*
X24805000Y-27900000D01*
X7422661Y-28690000D02*
X8212661Y-27900000D01*
X5467500Y-27900000D02*
X6257500Y-28690000D01*
X24805000Y-27900000D02*
X31115000Y-21590000D01*
X6257500Y-28690000D02*
X7422661Y-28690000D01*
%TO.N,Net-(Q7-G)*%
X2167500Y-23272499D02*
X2167500Y-22900000D01*
X13546522Y-45085000D02*
X1017500Y-32555978D01*
X1017500Y-32555978D02*
X1017500Y-24422499D01*
X1017500Y-24422499D02*
X2167500Y-23272499D01*
X19685000Y-45085000D02*
X13546522Y-45085000D01*
D30*
%TO.N,Net-(U2B-+)*%
X64780000Y-16520000D02*
X72400000Y-24140000D01*
%TO.N,Net-(U3B-+)*%
X64780000Y-39380000D02*
X72400000Y-47000000D01*
%TO.N,Net-(D1-K)*%
X11430000Y-5080000D02*
X13970000Y-2540000D01*
%TD*%
%TA.AperFunction,Conductor*%
%TO.N,GND*%
G36*
X94442539Y-520185D02*
G01*
X94488294Y-572989D01*
X94499500Y-624500D01*
X94499500Y-71375500D01*
X94479815Y-71442539D01*
X94427011Y-71488294D01*
X94375500Y-71499500D01*
X624500Y-71499500D01*
X557461Y-71479815D01*
X511706Y-71427011D01*
X500500Y-71375500D01*
X500500Y-69067763D01*
X1145787Y-69067763D01*
X1175413Y-69337013D01*
X1175415Y-69337024D01*
X1243926Y-69599082D01*
X1243928Y-69599088D01*
X1349870Y-69848390D01*
X1421998Y-69966575D01*
X1490979Y-70079605D01*
X1490986Y-70079615D01*
X1664253Y-70287819D01*
X1664259Y-70287824D01*
X1865998Y-70468582D01*
X2091910Y-70618044D01*
X2337176Y-70733020D01*
X2337183Y-70733022D01*
X2337185Y-70733023D01*
X2596557Y-70811057D01*
X2596564Y-70811058D01*
X2596569Y-70811060D01*
X2864561Y-70850500D01*
X2864566Y-70850500D01*
X3067629Y-70850500D01*
X3067631Y-70850500D01*
X3067636Y-70850499D01*
X3067648Y-70850499D01*
X3105191Y-70847750D01*
X3270156Y-70835677D01*
X3382758Y-70810593D01*
X3534546Y-70776782D01*
X3534548Y-70776781D01*
X3534553Y-70776780D01*
X3787558Y-70680014D01*
X4023777Y-70547441D01*
X4238177Y-70381888D01*
X4426186Y-70186881D01*
X4583799Y-69966579D01*
X4657787Y-69822669D01*
X4707649Y-69725690D01*
X4707651Y-69725684D01*
X4707656Y-69725675D01*
X4795118Y-69469305D01*
X4844319Y-69202933D01*
X4849543Y-69060000D01*
X57564357Y-69060000D01*
X57584884Y-69281535D01*
X57584885Y-69281537D01*
X57645769Y-69495523D01*
X57645775Y-69495538D01*
X57744938Y-69694683D01*
X57744943Y-69694691D01*
X57879020Y-69872238D01*
X58043437Y-70022123D01*
X58043439Y-70022125D01*
X58232595Y-70139245D01*
X58232596Y-70139245D01*
X58232599Y-70139247D01*
X58440060Y-70219618D01*
X58658757Y-70260500D01*
X58658759Y-70260500D01*
X58881241Y-70260500D01*
X58881243Y-70260500D01*
X59099940Y-70219618D01*
X59307401Y-70139247D01*
X59496562Y-70022124D01*
X59660981Y-69872236D01*
X59795058Y-69694689D01*
X59894229Y-69495528D01*
X59955115Y-69281536D01*
X59975643Y-69060000D01*
X69564357Y-69060000D01*
X69584884Y-69281535D01*
X69584885Y-69281537D01*
X69645769Y-69495523D01*
X69645775Y-69495538D01*
X69744938Y-69694683D01*
X69744943Y-69694691D01*
X69879020Y-69872238D01*
X70043437Y-70022123D01*
X70043439Y-70022125D01*
X70232595Y-70139245D01*
X70232596Y-70139245D01*
X70232599Y-70139247D01*
X70440060Y-70219618D01*
X70658757Y-70260500D01*
X70658759Y-70260500D01*
X70881241Y-70260500D01*
X70881243Y-70260500D01*
X71099940Y-70219618D01*
X71307401Y-70139247D01*
X71496562Y-70022124D01*
X71660981Y-69872236D01*
X71795058Y-69694689D01*
X71894229Y-69495528D01*
X71955115Y-69281536D01*
X71974924Y-69067763D01*
X90145787Y-69067763D01*
X90175413Y-69337013D01*
X90175415Y-69337024D01*
X90243926Y-69599082D01*
X90243928Y-69599088D01*
X90349870Y-69848390D01*
X90421998Y-69966575D01*
X90490979Y-70079605D01*
X90490986Y-70079615D01*
X90664253Y-70287819D01*
X90664259Y-70287824D01*
X90865998Y-70468582D01*
X91091910Y-70618044D01*
X91337176Y-70733020D01*
X91337183Y-70733022D01*
X91337185Y-70733023D01*
X91596557Y-70811057D01*
X91596564Y-70811058D01*
X91596569Y-70811060D01*
X91864561Y-70850500D01*
X91864566Y-70850500D01*
X92067629Y-70850500D01*
X92067631Y-70850500D01*
X92067636Y-70850499D01*
X92067648Y-70850499D01*
X92105191Y-70847750D01*
X92270156Y-70835677D01*
X92382758Y-70810593D01*
X92534546Y-70776782D01*
X92534548Y-70776781D01*
X92534553Y-70776780D01*
X92787558Y-70680014D01*
X93023777Y-70547441D01*
X93238177Y-70381888D01*
X93426186Y-70186881D01*
X93583799Y-69966579D01*
X93657787Y-69822669D01*
X93707649Y-69725690D01*
X93707651Y-69725684D01*
X93707656Y-69725675D01*
X93795118Y-69469305D01*
X93844319Y-69202933D01*
X93854212Y-68932235D01*
X93824586Y-68662982D01*
X93756072Y-68400912D01*
X93650130Y-68151610D01*
X93509018Y-67920390D01*
X93419747Y-67813119D01*
X93335746Y-67712180D01*
X93335740Y-67712175D01*
X93134002Y-67531418D01*
X92908092Y-67381957D01*
X92908090Y-67381956D01*
X92662824Y-67266980D01*
X92662819Y-67266978D01*
X92662814Y-67266976D01*
X92403442Y-67188942D01*
X92403428Y-67188939D01*
X92287791Y-67171921D01*
X92135439Y-67149500D01*
X91932369Y-67149500D01*
X91932351Y-67149500D01*
X91729844Y-67164323D01*
X91729831Y-67164325D01*
X91465453Y-67223217D01*
X91465446Y-67223220D01*
X91212439Y-67319987D01*
X90976226Y-67452557D01*
X90761822Y-67618112D01*
X90573822Y-67813109D01*
X90573816Y-67813116D01*
X90416202Y-68033419D01*
X90416199Y-68033424D01*
X90292350Y-68274309D01*
X90292343Y-68274327D01*
X90204884Y-68530685D01*
X90204881Y-68530699D01*
X90155681Y-68797068D01*
X90155680Y-68797075D01*
X90145787Y-69067763D01*
X71974924Y-69067763D01*
X71975643Y-69060000D01*
X71955115Y-68838464D01*
X71894229Y-68624472D01*
X71894224Y-68624461D01*
X71795061Y-68425316D01*
X71795056Y-68425308D01*
X71660979Y-68247761D01*
X71496562Y-68097876D01*
X71496560Y-68097874D01*
X71307404Y-67980754D01*
X71307398Y-67980752D01*
X71099940Y-67900382D01*
X70881243Y-67859500D01*
X70658757Y-67859500D01*
X70440060Y-67900382D01*
X70308864Y-67951207D01*
X70232601Y-67980752D01*
X70232595Y-67980754D01*
X70043439Y-68097874D01*
X70043437Y-68097876D01*
X69879020Y-68247761D01*
X69744943Y-68425308D01*
X69744938Y-68425316D01*
X69645775Y-68624461D01*
X69645769Y-68624476D01*
X69584885Y-68838462D01*
X69584884Y-68838464D01*
X69564357Y-69059999D01*
X69564357Y-69060000D01*
X59975643Y-69060000D01*
X59955115Y-68838464D01*
X59894229Y-68624472D01*
X59894224Y-68624461D01*
X59795061Y-68425316D01*
X59795056Y-68425308D01*
X59660979Y-68247761D01*
X59496562Y-68097876D01*
X59496560Y-68097874D01*
X59307404Y-67980754D01*
X59307398Y-67980752D01*
X59099940Y-67900382D01*
X58881243Y-67859500D01*
X58658757Y-67859500D01*
X58440060Y-67900382D01*
X58308864Y-67951207D01*
X58232601Y-67980752D01*
X58232595Y-67980754D01*
X58043439Y-68097874D01*
X58043437Y-68097876D01*
X57879020Y-68247761D01*
X57744943Y-68425308D01*
X57744938Y-68425316D01*
X57645775Y-68624461D01*
X57645769Y-68624476D01*
X57584885Y-68838462D01*
X57584884Y-68838464D01*
X57564357Y-69059999D01*
X57564357Y-69060000D01*
X4849543Y-69060000D01*
X4854212Y-68932235D01*
X4824586Y-68662982D01*
X4756072Y-68400912D01*
X4650130Y-68151610D01*
X4509018Y-67920390D01*
X4419747Y-67813119D01*
X4335746Y-67712180D01*
X4335740Y-67712175D01*
X4134002Y-67531418D01*
X3908092Y-67381957D01*
X3908090Y-67381956D01*
X3754594Y-67310000D01*
X59714417Y-67310000D01*
X59734699Y-67515932D01*
X59734700Y-67515934D01*
X59794768Y-67713954D01*
X59892315Y-67896450D01*
X59892317Y-67896452D01*
X60023589Y-68056410D01*
X60120209Y-68135702D01*
X60183550Y-68187685D01*
X60366046Y-68285232D01*
X60564066Y-68345300D01*
X60564065Y-68345300D01*
X60582529Y-68347118D01*
X60770000Y-68365583D01*
X60975934Y-68345300D01*
X61173954Y-68285232D01*
X61356450Y-68187685D01*
X61516410Y-68056410D01*
X61647685Y-67896450D01*
X61745232Y-67713954D01*
X61805300Y-67515934D01*
X61825583Y-67310000D01*
X63714417Y-67310000D01*
X63734699Y-67515932D01*
X63734700Y-67515934D01*
X63794768Y-67713954D01*
X63892315Y-67896450D01*
X63892317Y-67896452D01*
X64023589Y-68056410D01*
X64120209Y-68135702D01*
X64183550Y-68187685D01*
X64366046Y-68285232D01*
X64564066Y-68345300D01*
X64564065Y-68345300D01*
X64582529Y-68347118D01*
X64770000Y-68365583D01*
X64975934Y-68345300D01*
X65173954Y-68285232D01*
X65356450Y-68187685D01*
X65516410Y-68056410D01*
X65647685Y-67896450D01*
X65745232Y-67713954D01*
X65805300Y-67515934D01*
X65825583Y-67310000D01*
X67714417Y-67310000D01*
X67734699Y-67515932D01*
X67734700Y-67515934D01*
X67794768Y-67713954D01*
X67892315Y-67896450D01*
X67892317Y-67896452D01*
X68023589Y-68056410D01*
X68120209Y-68135702D01*
X68183550Y-68187685D01*
X68366046Y-68285232D01*
X68564066Y-68345300D01*
X68564065Y-68345300D01*
X68582529Y-68347118D01*
X68770000Y-68365583D01*
X68975934Y-68345300D01*
X69173954Y-68285232D01*
X69356450Y-68187685D01*
X69516410Y-68056410D01*
X69647685Y-67896450D01*
X69745232Y-67713954D01*
X69805300Y-67515934D01*
X69825583Y-67310000D01*
X69805300Y-67104066D01*
X69745232Y-66906046D01*
X69647685Y-66723550D01*
X69595702Y-66660209D01*
X69516410Y-66563589D01*
X69356452Y-66432317D01*
X69356453Y-66432317D01*
X69356450Y-66432315D01*
X69173954Y-66334768D01*
X68975934Y-66274700D01*
X68975932Y-66274699D01*
X68975934Y-66274699D01*
X68770000Y-66254417D01*
X68564067Y-66274699D01*
X68366043Y-66334769D01*
X68255898Y-66393643D01*
X68183550Y-66432315D01*
X68183548Y-66432316D01*
X68183547Y-66432317D01*
X68023589Y-66563589D01*
X67892317Y-66723547D01*
X67794769Y-66906043D01*
X67734699Y-67104067D01*
X67714417Y-67310000D01*
X65825583Y-67310000D01*
X65805300Y-67104066D01*
X65745232Y-66906046D01*
X65647685Y-66723550D01*
X65595702Y-66660209D01*
X65516410Y-66563589D01*
X65356452Y-66432317D01*
X65356453Y-66432317D01*
X65356450Y-66432315D01*
X65173954Y-66334768D01*
X64975934Y-66274700D01*
X64975932Y-66274699D01*
X64975934Y-66274699D01*
X64770000Y-66254417D01*
X64564067Y-66274699D01*
X64366043Y-66334769D01*
X64255898Y-66393643D01*
X64183550Y-66432315D01*
X64183548Y-66432316D01*
X64183547Y-66432317D01*
X64023589Y-66563589D01*
X63892317Y-66723547D01*
X63794769Y-66906043D01*
X63734699Y-67104067D01*
X63714417Y-67310000D01*
X61825583Y-67310000D01*
X61805300Y-67104066D01*
X61745232Y-66906046D01*
X61647685Y-66723550D01*
X61595702Y-66660209D01*
X61516410Y-66563589D01*
X61356452Y-66432317D01*
X61356453Y-66432317D01*
X61356450Y-66432315D01*
X61173954Y-66334768D01*
X60975934Y-66274700D01*
X60975932Y-66274699D01*
X60975934Y-66274699D01*
X60770000Y-66254417D01*
X60564067Y-66274699D01*
X60366043Y-66334769D01*
X60255898Y-66393643D01*
X60183550Y-66432315D01*
X60183548Y-66432316D01*
X60183547Y-66432317D01*
X60023589Y-66563589D01*
X59892317Y-66723547D01*
X59794769Y-66906043D01*
X59734699Y-67104067D01*
X59714417Y-67310000D01*
X3754594Y-67310000D01*
X3662824Y-67266980D01*
X3662819Y-67266978D01*
X3662814Y-67266976D01*
X3403442Y-67188942D01*
X3403428Y-67188939D01*
X3287791Y-67171921D01*
X3135439Y-67149500D01*
X2932369Y-67149500D01*
X2932351Y-67149500D01*
X2729844Y-67164323D01*
X2729831Y-67164325D01*
X2465453Y-67223217D01*
X2465446Y-67223220D01*
X2212439Y-67319987D01*
X1976226Y-67452557D01*
X1761822Y-67618112D01*
X1573822Y-67813109D01*
X1573816Y-67813116D01*
X1416202Y-68033419D01*
X1416199Y-68033424D01*
X1292350Y-68274309D01*
X1292343Y-68274327D01*
X1204884Y-68530685D01*
X1204881Y-68530699D01*
X1155681Y-68797068D01*
X1155680Y-68797075D01*
X1145787Y-69067763D01*
X500500Y-69067763D01*
X500500Y-63854341D01*
X7007272Y-63854341D01*
X7026588Y-64050470D01*
X7083801Y-64239074D01*
X7176699Y-64412873D01*
X7176703Y-64412880D01*
X7301729Y-64565224D01*
X7454073Y-64690250D01*
X7454080Y-64690254D01*
X7627879Y-64783152D01*
X7627882Y-64783152D01*
X7627886Y-64783155D01*
X7816481Y-64840365D01*
X8012613Y-64859682D01*
X8208745Y-64840365D01*
X8397340Y-64783155D01*
X8571151Y-64690251D01*
X8723496Y-64565224D01*
X8777024Y-64500000D01*
X11184571Y-64500000D01*
X11204244Y-64712310D01*
X11240679Y-64840365D01*
X11262596Y-64917392D01*
X11262596Y-64917394D01*
X11357632Y-65108253D01*
X11357634Y-65108255D01*
X11486128Y-65278407D01*
X11643698Y-65422052D01*
X11824981Y-65534298D01*
X12023802Y-65611321D01*
X12233390Y-65650500D01*
X12233392Y-65650500D01*
X12446608Y-65650500D01*
X12446610Y-65650500D01*
X12656198Y-65611321D01*
X12855019Y-65534298D01*
X13036302Y-65422052D01*
X13193872Y-65278407D01*
X13322366Y-65108255D01*
X13417405Y-64917389D01*
X13475756Y-64712310D01*
X13495429Y-64500000D01*
X16984571Y-64500000D01*
X17004244Y-64712310D01*
X17040679Y-64840365D01*
X17062596Y-64917392D01*
X17062596Y-64917394D01*
X17157632Y-65108253D01*
X17157634Y-65108255D01*
X17286128Y-65278407D01*
X17443698Y-65422052D01*
X17624981Y-65534298D01*
X17823802Y-65611321D01*
X18033390Y-65650500D01*
X18033392Y-65650500D01*
X18246608Y-65650500D01*
X18246610Y-65650500D01*
X18456198Y-65611321D01*
X18655019Y-65534298D01*
X18836302Y-65422052D01*
X18993872Y-65278407D01*
X19122366Y-65108255D01*
X19217405Y-64917389D01*
X19247960Y-64810000D01*
X59714417Y-64810000D01*
X59734699Y-65015932D01*
X59734700Y-65015934D01*
X59794768Y-65213954D01*
X59892315Y-65396450D01*
X59892317Y-65396452D01*
X60023589Y-65556410D01*
X60120209Y-65635702D01*
X60183550Y-65687685D01*
X60366046Y-65785232D01*
X60564066Y-65845300D01*
X60564065Y-65845300D01*
X60582529Y-65847118D01*
X60770000Y-65865583D01*
X60975934Y-65845300D01*
X61173954Y-65785232D01*
X61356450Y-65687685D01*
X61516410Y-65556410D01*
X61647685Y-65396450D01*
X61745232Y-65213954D01*
X61805300Y-65015934D01*
X61825583Y-64810000D01*
X63714417Y-64810000D01*
X63734699Y-65015932D01*
X63734700Y-65015934D01*
X63794768Y-65213954D01*
X63892315Y-65396450D01*
X63892317Y-65396452D01*
X64023589Y-65556410D01*
X64120209Y-65635702D01*
X64183550Y-65687685D01*
X64366046Y-65785232D01*
X64564066Y-65845300D01*
X64564065Y-65845300D01*
X64582529Y-65847118D01*
X64770000Y-65865583D01*
X64975934Y-65845300D01*
X65173954Y-65785232D01*
X65356450Y-65687685D01*
X65516410Y-65556410D01*
X65647685Y-65396450D01*
X65745232Y-65213954D01*
X65805300Y-65015934D01*
X65825583Y-64810000D01*
X67714417Y-64810000D01*
X67734699Y-65015932D01*
X67734700Y-65015934D01*
X67794768Y-65213954D01*
X67892315Y-65396450D01*
X67892317Y-65396452D01*
X68023589Y-65556410D01*
X68120209Y-65635702D01*
X68183550Y-65687685D01*
X68366046Y-65785232D01*
X68564066Y-65845300D01*
X68564065Y-65845300D01*
X68582529Y-65847118D01*
X68770000Y-65865583D01*
X68975934Y-65845300D01*
X69173954Y-65785232D01*
X69356450Y-65687685D01*
X69516410Y-65556410D01*
X69647685Y-65396450D01*
X69745232Y-65213954D01*
X69805300Y-65015934D01*
X69825583Y-64810000D01*
X69805300Y-64604066D01*
X69773732Y-64500000D01*
X74684571Y-64500000D01*
X74704244Y-64712310D01*
X74740679Y-64840365D01*
X74762596Y-64917392D01*
X74762596Y-64917394D01*
X74857632Y-65108253D01*
X74857634Y-65108255D01*
X74986128Y-65278407D01*
X75143698Y-65422052D01*
X75324981Y-65534298D01*
X75523802Y-65611321D01*
X75733390Y-65650500D01*
X75733392Y-65650500D01*
X75946608Y-65650500D01*
X75946610Y-65650500D01*
X76156198Y-65611321D01*
X76355019Y-65534298D01*
X76536302Y-65422052D01*
X76693872Y-65278407D01*
X76822366Y-65108255D01*
X76917405Y-64917389D01*
X76975756Y-64712310D01*
X76995429Y-64500000D01*
X80484571Y-64500000D01*
X80504244Y-64712310D01*
X80540679Y-64840365D01*
X80562596Y-64917392D01*
X80562596Y-64917394D01*
X80657632Y-65108253D01*
X80657634Y-65108255D01*
X80786128Y-65278407D01*
X80943698Y-65422052D01*
X81124981Y-65534298D01*
X81323802Y-65611321D01*
X81533390Y-65650500D01*
X81533392Y-65650500D01*
X81746608Y-65650500D01*
X81746610Y-65650500D01*
X81956198Y-65611321D01*
X82155019Y-65534298D01*
X82336302Y-65422052D01*
X82493872Y-65278407D01*
X82622366Y-65108255D01*
X82717405Y-64917389D01*
X82775756Y-64712310D01*
X82795429Y-64500000D01*
X82775756Y-64287690D01*
X82717405Y-64082611D01*
X82717403Y-64082606D01*
X82717403Y-64082605D01*
X82622367Y-63891746D01*
X82493872Y-63721593D01*
X82464353Y-63694683D01*
X82336302Y-63577948D01*
X82155019Y-63465702D01*
X82155017Y-63465701D01*
X82055608Y-63427190D01*
X81956198Y-63388679D01*
X81746610Y-63349500D01*
X81533390Y-63349500D01*
X81323802Y-63388679D01*
X81323799Y-63388679D01*
X81323799Y-63388680D01*
X81124982Y-63465701D01*
X81124980Y-63465702D01*
X80943699Y-63577947D01*
X80786127Y-63721593D01*
X80657632Y-63891746D01*
X80562596Y-64082605D01*
X80562596Y-64082607D01*
X80504244Y-64287689D01*
X80488047Y-64462492D01*
X80484571Y-64500000D01*
X76995429Y-64500000D01*
X76975756Y-64287690D01*
X76917405Y-64082611D01*
X76917403Y-64082606D01*
X76917403Y-64082605D01*
X76822367Y-63891746D01*
X76693872Y-63721593D01*
X76664353Y-63694683D01*
X76536302Y-63577948D01*
X76355019Y-63465702D01*
X76355017Y-63465701D01*
X76255608Y-63427190D01*
X76156198Y-63388679D01*
X75946610Y-63349500D01*
X75733390Y-63349500D01*
X75523802Y-63388679D01*
X75523799Y-63388679D01*
X75523799Y-63388680D01*
X75324982Y-63465701D01*
X75324980Y-63465702D01*
X75143699Y-63577947D01*
X74986127Y-63721593D01*
X74857632Y-63891746D01*
X74762596Y-64082605D01*
X74762596Y-64082607D01*
X74704244Y-64287689D01*
X74688047Y-64462492D01*
X74684571Y-64500000D01*
X69773732Y-64500000D01*
X69745232Y-64406046D01*
X69647685Y-64223550D01*
X69578498Y-64139245D01*
X69516410Y-64063589D01*
X69356452Y-63932317D01*
X69356453Y-63932317D01*
X69356450Y-63932315D01*
X69173954Y-63834768D01*
X68975934Y-63774700D01*
X68975932Y-63774699D01*
X68975934Y-63774699D01*
X68770000Y-63754417D01*
X68564067Y-63774699D01*
X68366043Y-63834769D01*
X68295949Y-63872236D01*
X68183550Y-63932315D01*
X68183548Y-63932316D01*
X68183547Y-63932317D01*
X68023589Y-64063589D01*
X67892317Y-64223547D01*
X67892315Y-64223550D01*
X67884017Y-64239074D01*
X67794769Y-64406043D01*
X67734699Y-64604067D01*
X67714417Y-64810000D01*
X65825583Y-64810000D01*
X65805300Y-64604066D01*
X65745232Y-64406046D01*
X65647685Y-64223550D01*
X65578498Y-64139245D01*
X65516410Y-64063589D01*
X65356452Y-63932317D01*
X65356453Y-63932317D01*
X65356450Y-63932315D01*
X65173954Y-63834768D01*
X64975934Y-63774700D01*
X64975932Y-63774699D01*
X64975934Y-63774699D01*
X64770000Y-63754417D01*
X64564067Y-63774699D01*
X64366043Y-63834769D01*
X64295949Y-63872236D01*
X64183550Y-63932315D01*
X64183548Y-63932316D01*
X64183547Y-63932317D01*
X64023589Y-64063589D01*
X63892317Y-64223547D01*
X63892315Y-64223550D01*
X63884017Y-64239074D01*
X63794769Y-64406043D01*
X63734699Y-64604067D01*
X63714417Y-64810000D01*
X61825583Y-64810000D01*
X61805300Y-64604066D01*
X61745232Y-64406046D01*
X61647685Y-64223550D01*
X61578498Y-64139245D01*
X61516410Y-64063589D01*
X61356452Y-63932317D01*
X61356453Y-63932317D01*
X61356450Y-63932315D01*
X61173954Y-63834768D01*
X60975934Y-63774700D01*
X60975932Y-63774699D01*
X60975934Y-63774699D01*
X60770000Y-63754417D01*
X60564067Y-63774699D01*
X60366043Y-63834769D01*
X60295949Y-63872236D01*
X60183550Y-63932315D01*
X60183548Y-63932316D01*
X60183547Y-63932317D01*
X60023589Y-64063589D01*
X59892317Y-64223547D01*
X59892315Y-64223550D01*
X59884017Y-64239074D01*
X59794769Y-64406043D01*
X59734699Y-64604067D01*
X59714417Y-64810000D01*
X19247960Y-64810000D01*
X19275756Y-64712310D01*
X19295429Y-64500000D01*
X19275756Y-64287690D01*
X19217405Y-64082611D01*
X19217403Y-64082606D01*
X19217403Y-64082605D01*
X19122367Y-63891746D01*
X18993872Y-63721593D01*
X18964353Y-63694683D01*
X18836302Y-63577948D01*
X18655019Y-63465702D01*
X18655017Y-63465701D01*
X18555608Y-63427190D01*
X18456198Y-63388679D01*
X18246610Y-63349500D01*
X18033390Y-63349500D01*
X17823802Y-63388679D01*
X17823799Y-63388679D01*
X17823799Y-63388680D01*
X17624982Y-63465701D01*
X17624980Y-63465702D01*
X17443699Y-63577947D01*
X17286127Y-63721593D01*
X17157632Y-63891746D01*
X17062596Y-64082605D01*
X17062596Y-64082607D01*
X17004244Y-64287689D01*
X16988047Y-64462492D01*
X16984571Y-64500000D01*
X13495429Y-64500000D01*
X13475756Y-64287690D01*
X13417405Y-64082611D01*
X13417403Y-64082606D01*
X13417403Y-64082605D01*
X13322367Y-63891746D01*
X13193872Y-63721593D01*
X13164353Y-63694683D01*
X13036302Y-63577948D01*
X12855019Y-63465702D01*
X12855017Y-63465701D01*
X12755608Y-63427190D01*
X12656198Y-63388679D01*
X12446610Y-63349500D01*
X12233390Y-63349500D01*
X12023802Y-63388679D01*
X12023799Y-63388679D01*
X12023799Y-63388680D01*
X11824982Y-63465701D01*
X11824980Y-63465702D01*
X11643699Y-63577947D01*
X11486127Y-63721593D01*
X11357632Y-63891746D01*
X11262596Y-64082605D01*
X11262596Y-64082607D01*
X11204244Y-64287689D01*
X11188047Y-64462492D01*
X11184571Y-64500000D01*
X8777024Y-64500000D01*
X8848523Y-64412879D01*
X8915439Y-64287689D01*
X8941424Y-64239074D01*
X8941424Y-64239073D01*
X8941427Y-64239068D01*
X8998637Y-64050473D01*
X9017954Y-63854341D01*
X8998637Y-63658209D01*
X8941427Y-63469614D01*
X8941424Y-63469610D01*
X8941424Y-63469607D01*
X8848526Y-63295808D01*
X8848522Y-63295801D01*
X8723496Y-63143457D01*
X8571152Y-63018431D01*
X8571145Y-63018427D01*
X8397346Y-62925529D01*
X8397340Y-62925527D01*
X8211224Y-62869069D01*
X8208742Y-62868316D01*
X8012613Y-62849000D01*
X7816483Y-62868316D01*
X7627879Y-62925529D01*
X7454080Y-63018427D01*
X7454073Y-63018431D01*
X7301729Y-63143457D01*
X7176703Y-63295801D01*
X7176699Y-63295808D01*
X7083801Y-63469607D01*
X7026588Y-63658211D01*
X7007272Y-63854341D01*
X500500Y-63854341D01*
X500500Y-61043933D01*
X11985668Y-61043933D01*
X12001058Y-61131210D01*
X12016135Y-61216711D01*
X12085623Y-61377804D01*
X12085624Y-61377806D01*
X12085626Y-61377809D01*
X12168920Y-61489691D01*
X12190390Y-61518530D01*
X12324786Y-61631302D01*
X12396337Y-61667236D01*
X12481562Y-61710038D01*
X12481563Y-61710038D01*
X12481567Y-61710040D01*
X12652279Y-61750500D01*
X12652282Y-61750500D01*
X12783701Y-61750500D01*
X12783709Y-61750500D01*
X12914255Y-61735241D01*
X13079117Y-61675237D01*
X13225696Y-61578830D01*
X13346092Y-61451218D01*
X13433812Y-61299281D01*
X13484130Y-61131210D01*
X13494331Y-60956065D01*
X13463865Y-60783289D01*
X13394377Y-60622196D01*
X13392767Y-60620034D01*
X13307023Y-60504860D01*
X13289610Y-60481470D01*
X13283465Y-60476314D01*
X13155214Y-60368698D01*
X13155212Y-60368697D01*
X12998437Y-60289961D01*
X12998429Y-60289959D01*
X12827721Y-60249500D01*
X12696291Y-60249500D01*
X12591854Y-60261707D01*
X12565743Y-60264759D01*
X12565740Y-60264760D01*
X12400884Y-60324762D01*
X12400880Y-60324764D01*
X12254306Y-60421167D01*
X12254305Y-60421168D01*
X12133910Y-60548778D01*
X12046188Y-60700718D01*
X11995870Y-60868789D01*
X11995869Y-60868794D01*
X11985668Y-61043933D01*
X500500Y-61043933D01*
X500500Y-57969752D01*
X11839500Y-57969752D01*
X11851131Y-58028229D01*
X11851132Y-58028230D01*
X11895447Y-58094552D01*
X11961769Y-58138867D01*
X11961770Y-58138868D01*
X12020247Y-58150499D01*
X12020250Y-58150500D01*
X12020252Y-58150500D01*
X13098481Y-58150500D01*
X13165520Y-58170185D01*
X13186162Y-58186819D01*
X15167051Y-60167707D01*
X15172171Y-60173145D01*
X15209881Y-60215711D01*
X15212073Y-60218185D01*
X15261576Y-60252354D01*
X15267612Y-60256795D01*
X15314939Y-60293875D01*
X15314942Y-60293876D01*
X15314943Y-60293877D01*
X15324176Y-60298032D01*
X15343728Y-60309060D01*
X15352070Y-60314818D01*
X15408322Y-60336151D01*
X15415228Y-60339012D01*
X15470063Y-60363692D01*
X15470064Y-60363692D01*
X15470068Y-60363694D01*
X15480030Y-60365519D01*
X15501651Y-60371546D01*
X15511125Y-60375139D01*
X15511128Y-60375140D01*
X15555234Y-60380495D01*
X15570830Y-60382389D01*
X15578235Y-60383516D01*
X15599400Y-60387394D01*
X15637394Y-60394357D01*
X15697422Y-60390726D01*
X15704909Y-60390500D01*
X17010518Y-60390500D01*
X17077557Y-60410185D01*
X17123312Y-60462989D01*
X17133256Y-60532147D01*
X17117906Y-60576497D01*
X17068648Y-60661817D01*
X17046188Y-60700719D01*
X16995870Y-60868789D01*
X16995869Y-60868794D01*
X16985668Y-61043933D01*
X17001058Y-61131210D01*
X17016135Y-61216711D01*
X17085623Y-61377804D01*
X17085624Y-61377806D01*
X17085626Y-61377809D01*
X17168920Y-61489691D01*
X17190390Y-61518530D01*
X17324786Y-61631302D01*
X17396337Y-61667236D01*
X17481562Y-61710038D01*
X17481563Y-61710038D01*
X17481567Y-61710040D01*
X17652279Y-61750500D01*
X17652282Y-61750500D01*
X17783701Y-61750500D01*
X17783709Y-61750500D01*
X17914255Y-61735241D01*
X18079117Y-61675237D01*
X18225696Y-61578830D01*
X18346092Y-61451218D01*
X18433812Y-61299281D01*
X18484130Y-61131210D01*
X18494331Y-60956065D01*
X18463865Y-60783289D01*
X18394377Y-60622196D01*
X18392767Y-60620034D01*
X18369327Y-60588548D01*
X18345083Y-60523019D01*
X18360115Y-60454786D01*
X18409651Y-60405511D01*
X18468790Y-60390500D01*
X23788481Y-60390500D01*
X23855520Y-60410185D01*
X23876162Y-60426819D01*
X23939058Y-60489715D01*
X23944178Y-60495153D01*
X23984071Y-60540183D01*
X24028624Y-60570936D01*
X24033573Y-60574352D01*
X24039591Y-60578780D01*
X24086944Y-60615878D01*
X24086947Y-60615880D01*
X24086946Y-60615880D01*
X24096177Y-60620034D01*
X24115731Y-60631062D01*
X24124070Y-60636818D01*
X24180331Y-60658154D01*
X24187208Y-60661003D01*
X24208563Y-60670615D01*
X24242063Y-60685693D01*
X24242066Y-60685693D01*
X24242069Y-60685695D01*
X24252034Y-60687521D01*
X24273656Y-60693548D01*
X24276777Y-60694731D01*
X24283128Y-60697140D01*
X24340689Y-60704128D01*
X24342815Y-60704387D01*
X24350222Y-60705514D01*
X24409394Y-60716358D01*
X24469433Y-60712725D01*
X24476921Y-60712500D01*
X39976481Y-60712500D01*
X40043520Y-60732185D01*
X40064162Y-60748819D01*
X43688760Y-64373416D01*
X43693880Y-64378854D01*
X43733772Y-64423883D01*
X43783302Y-64458072D01*
X43789282Y-64462472D01*
X43836645Y-64499578D01*
X43836646Y-64499578D01*
X43836647Y-64499579D01*
X43836647Y-64499580D01*
X43845878Y-64503734D01*
X43865432Y-64514762D01*
X43873771Y-64520518D01*
X43930032Y-64541854D01*
X43936909Y-64544703D01*
X43958264Y-64554315D01*
X43991764Y-64569393D01*
X43991767Y-64569393D01*
X43991770Y-64569395D01*
X44001735Y-64571221D01*
X44023357Y-64577248D01*
X44023368Y-64577252D01*
X44032829Y-64580840D01*
X44090390Y-64587828D01*
X44092516Y-64588087D01*
X44099923Y-64589214D01*
X44159095Y-64600058D01*
X44219134Y-64596425D01*
X44226622Y-64596200D01*
X50134379Y-64596200D01*
X50141866Y-64596425D01*
X50201906Y-64600058D01*
X50261082Y-64589213D01*
X50268485Y-64588087D01*
X50272221Y-64587633D01*
X50328172Y-64580840D01*
X50337635Y-64577250D01*
X50359261Y-64571222D01*
X50360193Y-64571051D01*
X50369232Y-64569395D01*
X50424108Y-64544696D01*
X50430978Y-64541850D01*
X50487230Y-64520518D01*
X50495566Y-64514762D01*
X50515121Y-64503734D01*
X50524357Y-64499578D01*
X50571713Y-64462475D01*
X50577704Y-64458066D01*
X50627229Y-64423883D01*
X50667122Y-64378851D01*
X50672224Y-64373431D01*
X51985655Y-63060000D01*
X57564357Y-63060000D01*
X57584884Y-63281535D01*
X57584885Y-63281537D01*
X57645769Y-63495523D01*
X57645775Y-63495538D01*
X57744938Y-63694683D01*
X57744943Y-63694691D01*
X57879020Y-63872238D01*
X58043437Y-64022123D01*
X58043439Y-64022125D01*
X58232595Y-64139245D01*
X58232596Y-64139245D01*
X58232599Y-64139247D01*
X58440060Y-64219618D01*
X58658757Y-64260500D01*
X58658759Y-64260500D01*
X58881241Y-64260500D01*
X58881243Y-64260500D01*
X59099940Y-64219618D01*
X59307401Y-64139247D01*
X59496562Y-64022124D01*
X59660981Y-63872236D01*
X59795058Y-63694689D01*
X59894229Y-63495528D01*
X59955115Y-63281536D01*
X59975643Y-63060000D01*
X59965496Y-62950500D01*
X59955115Y-62838464D01*
X59955114Y-62838462D01*
X59948947Y-62816788D01*
X59894229Y-62624472D01*
X59894224Y-62624461D01*
X59795061Y-62425316D01*
X59795056Y-62425308D01*
X59660979Y-62247761D01*
X59496562Y-62097876D01*
X59496560Y-62097874D01*
X59307404Y-61980754D01*
X59307398Y-61980752D01*
X59296624Y-61976578D01*
X59099940Y-61900382D01*
X58881243Y-61859500D01*
X58658757Y-61859500D01*
X58440060Y-61900382D01*
X58352650Y-61934245D01*
X58232601Y-61980752D01*
X58232595Y-61980754D01*
X58043439Y-62097874D01*
X58043437Y-62097876D01*
X57879020Y-62247761D01*
X57744943Y-62425308D01*
X57744938Y-62425316D01*
X57645775Y-62624461D01*
X57645769Y-62624476D01*
X57584885Y-62838462D01*
X57584884Y-62838464D01*
X57564357Y-63059999D01*
X57564357Y-63060000D01*
X51985655Y-63060000D01*
X52959469Y-62086186D01*
X53020790Y-62052703D01*
X53069932Y-62051981D01*
X53088757Y-62055500D01*
X53088759Y-62055500D01*
X53311241Y-62055500D01*
X53311243Y-62055500D01*
X53529940Y-62014618D01*
X53737401Y-61934247D01*
X53926562Y-61817124D01*
X54090981Y-61667236D01*
X54225058Y-61489689D01*
X54324229Y-61290528D01*
X54385115Y-61076536D01*
X54405643Y-60855000D01*
X54398998Y-60783293D01*
X54385115Y-60633464D01*
X54385114Y-60633462D01*
X54384431Y-60631062D01*
X54324229Y-60419472D01*
X54319605Y-60410185D01*
X54225061Y-60220316D01*
X54225056Y-60220308D01*
X54090979Y-60042761D01*
X53926562Y-59892876D01*
X53926560Y-59892874D01*
X53737404Y-59775754D01*
X53737395Y-59775750D01*
X53639074Y-59737661D01*
X53595101Y-59720625D01*
X53555247Y-59690000D01*
X61224659Y-59690000D01*
X61243975Y-59886129D01*
X61243976Y-59886132D01*
X61291254Y-60041987D01*
X61301188Y-60074733D01*
X61394086Y-60248532D01*
X61394090Y-60248539D01*
X61519116Y-60400883D01*
X61671460Y-60525909D01*
X61671467Y-60525913D01*
X61845266Y-60618811D01*
X61845269Y-60618811D01*
X61845273Y-60618814D01*
X62033868Y-60676024D01*
X62202135Y-60692596D01*
X62266921Y-60718757D01*
X62277661Y-60728318D01*
X63217058Y-61667715D01*
X63222178Y-61673153D01*
X63262071Y-61718183D01*
X63286784Y-61735241D01*
X63311569Y-61752349D01*
X63317601Y-61756788D01*
X63364938Y-61793874D01*
X63364943Y-61793877D01*
X63374174Y-61798031D01*
X63393727Y-61809059D01*
X63402070Y-61814818D01*
X63458322Y-61836151D01*
X63465228Y-61839012D01*
X63520063Y-61863692D01*
X63520064Y-61863692D01*
X63520068Y-61863694D01*
X63530030Y-61865519D01*
X63551651Y-61871546D01*
X63561125Y-61875139D01*
X63561128Y-61875140D01*
X63605234Y-61880495D01*
X63620830Y-61882389D01*
X63628235Y-61883516D01*
X63649400Y-61887394D01*
X63687394Y-61894357D01*
X63747423Y-61890726D01*
X63754910Y-61890500D01*
X69950838Y-61890500D01*
X70017877Y-61910185D01*
X70063632Y-61962989D01*
X70073576Y-62032147D01*
X70044551Y-62095703D01*
X70034376Y-62106137D01*
X69879020Y-62247761D01*
X69744943Y-62425308D01*
X69744938Y-62425316D01*
X69645775Y-62624461D01*
X69645769Y-62624476D01*
X69584885Y-62838462D01*
X69584884Y-62838464D01*
X69564357Y-63059999D01*
X69564357Y-63060000D01*
X69584884Y-63281535D01*
X69584885Y-63281537D01*
X69645769Y-63495523D01*
X69645775Y-63495538D01*
X69744938Y-63694683D01*
X69744943Y-63694691D01*
X69879020Y-63872238D01*
X70043437Y-64022123D01*
X70043439Y-64022125D01*
X70232595Y-64139245D01*
X70232596Y-64139245D01*
X70232599Y-64139247D01*
X70440060Y-64219618D01*
X70658757Y-64260500D01*
X70658759Y-64260500D01*
X70881241Y-64260500D01*
X70881243Y-64260500D01*
X71099940Y-64219618D01*
X71307401Y-64139247D01*
X71496562Y-64022124D01*
X71660981Y-63872236D01*
X71795058Y-63694689D01*
X71894229Y-63495528D01*
X71955115Y-63281536D01*
X71975643Y-63060000D01*
X71965496Y-62950500D01*
X71955115Y-62838464D01*
X71955114Y-62838462D01*
X71948947Y-62816788D01*
X71894229Y-62624472D01*
X71894224Y-62624461D01*
X71795061Y-62425316D01*
X71795056Y-62425308D01*
X71660979Y-62247761D01*
X71505624Y-62106137D01*
X71469342Y-62046426D01*
X71471103Y-61976578D01*
X71510346Y-61918771D01*
X71574613Y-61891356D01*
X71589162Y-61890500D01*
X74320714Y-61890500D01*
X74387753Y-61910185D01*
X74408395Y-61926819D01*
X75209291Y-62727715D01*
X75214411Y-62733153D01*
X75254304Y-62778183D01*
X75297251Y-62807827D01*
X75303802Y-62812349D01*
X75309834Y-62816788D01*
X75357171Y-62853874D01*
X75357176Y-62853877D01*
X75366407Y-62858031D01*
X75385960Y-62869059D01*
X75394303Y-62874818D01*
X75450555Y-62896151D01*
X75457461Y-62899012D01*
X75512296Y-62923692D01*
X75512297Y-62923692D01*
X75512301Y-62923694D01*
X75522263Y-62925519D01*
X75543884Y-62931546D01*
X75543900Y-62931552D01*
X75553361Y-62935140D01*
X75597467Y-62940495D01*
X75613063Y-62942389D01*
X75620468Y-62943516D01*
X75641633Y-62947394D01*
X75679627Y-62954357D01*
X75739656Y-62950726D01*
X75747143Y-62950500D01*
X78048532Y-62950500D01*
X78056019Y-62950725D01*
X78116059Y-62954358D01*
X78175235Y-62943513D01*
X78182638Y-62942387D01*
X78186374Y-62941933D01*
X78242325Y-62935140D01*
X78251788Y-62931550D01*
X78273414Y-62925522D01*
X78274346Y-62925351D01*
X78283385Y-62923695D01*
X78338261Y-62898996D01*
X78345131Y-62896150D01*
X78401383Y-62874818D01*
X78409719Y-62869062D01*
X78429274Y-62858034D01*
X78438510Y-62853878D01*
X78485866Y-62816775D01*
X78491857Y-62812366D01*
X78541382Y-62778183D01*
X78581275Y-62733151D01*
X78586377Y-62727731D01*
X80284935Y-61029173D01*
X80346256Y-60995690D01*
X80415948Y-61000674D01*
X80471881Y-61042546D01*
X80494730Y-61095323D01*
X80516133Y-61216705D01*
X80516134Y-61216708D01*
X80516135Y-61216711D01*
X80585623Y-61377804D01*
X80585624Y-61377806D01*
X80585626Y-61377809D01*
X80668920Y-61489691D01*
X80690390Y-61518530D01*
X80824786Y-61631302D01*
X80896337Y-61667236D01*
X80981562Y-61710038D01*
X80981563Y-61710038D01*
X80981567Y-61710040D01*
X81152279Y-61750500D01*
X81152282Y-61750500D01*
X81283701Y-61750500D01*
X81283709Y-61750500D01*
X81414255Y-61735241D01*
X81579117Y-61675237D01*
X81725696Y-61578830D01*
X81846092Y-61451218D01*
X81933812Y-61299281D01*
X81984130Y-61131210D01*
X81994331Y-60956065D01*
X81963865Y-60783289D01*
X81894377Y-60622196D01*
X81892767Y-60620034D01*
X81807023Y-60504860D01*
X81789610Y-60481470D01*
X81783465Y-60476314D01*
X81655214Y-60368698D01*
X81655212Y-60368697D01*
X81498433Y-60289959D01*
X81331205Y-60250325D01*
X81270512Y-60215711D01*
X81238169Y-60153778D01*
X81244442Y-60084191D01*
X81272119Y-60041989D01*
X89777291Y-51536819D01*
X89838614Y-51503334D01*
X89864972Y-51500500D01*
X89929243Y-51500500D01*
X89936730Y-51500725D01*
X89996770Y-51504358D01*
X90055946Y-51493513D01*
X90063349Y-51492387D01*
X90067085Y-51491933D01*
X90123036Y-51485140D01*
X90132499Y-51481550D01*
X90154125Y-51475522D01*
X90155057Y-51475351D01*
X90164096Y-51473695D01*
X90218972Y-51448996D01*
X90225842Y-51446150D01*
X90282094Y-51424818D01*
X90290430Y-51419062D01*
X90309985Y-51408034D01*
X90319221Y-51403878D01*
X90366577Y-51366775D01*
X90372568Y-51362366D01*
X90422093Y-51328183D01*
X90461986Y-51283151D01*
X90467088Y-51277731D01*
X93187731Y-48557088D01*
X93193151Y-48551986D01*
X93238183Y-48512093D01*
X93272362Y-48462575D01*
X93276789Y-48456560D01*
X93313878Y-48409220D01*
X93318037Y-48399977D01*
X93329061Y-48380432D01*
X93334818Y-48372094D01*
X93356145Y-48315858D01*
X93359013Y-48308934D01*
X93383693Y-48254100D01*
X93383693Y-48254098D01*
X93383695Y-48254095D01*
X93385522Y-48244123D01*
X93391546Y-48222511D01*
X93395140Y-48213036D01*
X93402387Y-48153348D01*
X93403514Y-48145941D01*
X93405726Y-48133872D01*
X93414358Y-48086770D01*
X93410726Y-48026729D01*
X93410500Y-48019242D01*
X93410500Y-27804908D01*
X93410726Y-27797421D01*
X93414357Y-27737394D01*
X93414356Y-27737391D01*
X93403516Y-27678235D01*
X93402389Y-27670830D01*
X93395140Y-27611129D01*
X93395139Y-27611125D01*
X93391546Y-27601651D01*
X93385519Y-27580029D01*
X93383694Y-27570070D01*
X93383694Y-27570068D01*
X93367206Y-27533435D01*
X93359012Y-27515228D01*
X93356151Y-27508322D01*
X93334818Y-27452070D01*
X93329059Y-27443727D01*
X93318030Y-27424172D01*
X93313877Y-27414943D01*
X93313874Y-27414938D01*
X93276788Y-27367601D01*
X93272349Y-27361569D01*
X93267827Y-27355018D01*
X93238183Y-27312071D01*
X93193153Y-27272178D01*
X93187715Y-27267058D01*
X91408571Y-25487914D01*
X91375086Y-25426591D01*
X91372781Y-25388798D01*
X91385643Y-25250000D01*
X91365115Y-25028464D01*
X91304229Y-24814472D01*
X91296095Y-24798136D01*
X91205061Y-24615316D01*
X91205056Y-24615308D01*
X91070979Y-24437761D01*
X90906562Y-24287876D01*
X90906560Y-24287874D01*
X90717404Y-24170754D01*
X90717398Y-24170752D01*
X90694213Y-24161770D01*
X90509940Y-24090382D01*
X90291243Y-24049500D01*
X90068757Y-24049500D01*
X89850060Y-24090382D01*
X89756488Y-24126632D01*
X89642601Y-24170752D01*
X89642595Y-24170754D01*
X89453439Y-24287874D01*
X89453437Y-24287876D01*
X89289020Y-24437761D01*
X89154943Y-24615308D01*
X89154938Y-24615316D01*
X89055775Y-24814461D01*
X89055769Y-24814476D01*
X88994885Y-25028463D01*
X88974357Y-25249999D01*
X88974357Y-25250000D01*
X88994884Y-25471535D01*
X88994885Y-25471537D01*
X89055769Y-25685523D01*
X89055775Y-25685538D01*
X89154938Y-25884683D01*
X89154943Y-25884691D01*
X89289020Y-26062238D01*
X89453437Y-26212123D01*
X89453439Y-26212125D01*
X89642595Y-26329245D01*
X89642596Y-26329245D01*
X89642599Y-26329247D01*
X89850060Y-26409618D01*
X90068757Y-26450500D01*
X90068759Y-26450500D01*
X90291241Y-26450500D01*
X90291243Y-26450500D01*
X90310067Y-26446981D01*
X90379581Y-26454012D01*
X90420532Y-26481189D01*
X91973181Y-28033838D01*
X92006666Y-28095161D01*
X92009500Y-28121519D01*
X92009500Y-47702644D01*
X91989815Y-47769683D01*
X91973181Y-47790325D01*
X91580050Y-48183455D01*
X91518727Y-48216940D01*
X91449035Y-48211956D01*
X91393102Y-48170084D01*
X91368898Y-48107217D01*
X91355115Y-47958464D01*
X91294229Y-47744472D01*
X91294224Y-47744461D01*
X91195061Y-47545316D01*
X91195056Y-47545308D01*
X91060979Y-47367761D01*
X90896562Y-47217876D01*
X90896560Y-47217874D01*
X90707404Y-47100754D01*
X90707398Y-47100752D01*
X90499940Y-47020382D01*
X90281243Y-46979500D01*
X90058757Y-46979500D01*
X89840060Y-47020382D01*
X89748943Y-47055681D01*
X89632601Y-47100752D01*
X89632595Y-47100754D01*
X89443439Y-47217874D01*
X89443437Y-47217876D01*
X89279020Y-47367761D01*
X89144943Y-47545308D01*
X89144938Y-47545316D01*
X89045775Y-47744461D01*
X89045769Y-47744476D01*
X88984885Y-47958462D01*
X88984884Y-47958464D01*
X88964357Y-48179999D01*
X88964357Y-48180000D01*
X88984884Y-48401535D01*
X88984885Y-48401537D01*
X89045769Y-48615523D01*
X89045775Y-48615538D01*
X89144938Y-48814683D01*
X89144943Y-48814691D01*
X89279020Y-48992238D01*
X89443437Y-49142123D01*
X89443439Y-49142125D01*
X89632595Y-49259245D01*
X89632596Y-49259245D01*
X89632599Y-49259247D01*
X89840060Y-49339618D01*
X90058757Y-49380500D01*
X90058759Y-49380500D01*
X90083644Y-49380500D01*
X90150683Y-49400185D01*
X90196438Y-49452989D01*
X90206382Y-49522147D01*
X90177357Y-49585703D01*
X90171325Y-49592181D01*
X89700326Y-50063181D01*
X89639003Y-50096666D01*
X89612645Y-50099500D01*
X89548363Y-50099500D01*
X89540876Y-50099274D01*
X89480849Y-50095643D01*
X89480842Y-50095643D01*
X89421696Y-50106481D01*
X89414296Y-50107608D01*
X89354578Y-50114860D01*
X89345095Y-50118456D01*
X89323491Y-50124478D01*
X89321988Y-50124754D01*
X89313518Y-50126306D01*
X89313516Y-50126307D01*
X89258687Y-50150983D01*
X89251772Y-50153848D01*
X89195521Y-50175182D01*
X89187177Y-50180942D01*
X89167636Y-50191964D01*
X89158397Y-50196122D01*
X89158392Y-50196125D01*
X89111047Y-50233216D01*
X89105019Y-50237652D01*
X89055525Y-50271816D01*
X89055517Y-50271823D01*
X89015636Y-50316838D01*
X89010504Y-50322290D01*
X77819615Y-61513181D01*
X77758292Y-61546666D01*
X77731934Y-61549500D01*
X77004122Y-61549500D01*
X76937083Y-61529815D01*
X76891328Y-61477011D01*
X76881384Y-61407853D01*
X76896734Y-61363502D01*
X76933812Y-61299281D01*
X76984130Y-61131210D01*
X76994331Y-60956065D01*
X76963865Y-60783289D01*
X76894377Y-60622196D01*
X76892767Y-60620034D01*
X76807023Y-60504860D01*
X76789610Y-60481470D01*
X76783465Y-60476314D01*
X76655214Y-60368698D01*
X76655212Y-60368697D01*
X76498437Y-60289961D01*
X76498429Y-60289959D01*
X76327721Y-60249500D01*
X76196291Y-60249500D01*
X76091854Y-60261707D01*
X76065743Y-60264759D01*
X76065740Y-60264760D01*
X75900884Y-60324762D01*
X75900880Y-60324764D01*
X75754306Y-60421167D01*
X75754305Y-60421168D01*
X75633910Y-60548778D01*
X75546188Y-60700718D01*
X75546186Y-60700723D01*
X75517619Y-60796142D01*
X75479534Y-60854719D01*
X75415825Y-60883407D01*
X75346721Y-60873097D01*
X75311148Y-60848258D01*
X75175173Y-60712283D01*
X75170038Y-60706828D01*
X75130162Y-60661816D01*
X75130157Y-60661812D01*
X75080671Y-60627655D01*
X75074636Y-60623215D01*
X75027293Y-60586124D01*
X75027288Y-60586120D01*
X75018046Y-60581961D01*
X74998499Y-60570936D01*
X74990164Y-60565183D01*
X74990165Y-60565183D01*
X74990163Y-60565182D01*
X74933927Y-60543854D01*
X74927023Y-60540994D01*
X74872165Y-60516305D01*
X74872163Y-60516304D01*
X74862179Y-60514474D01*
X74840576Y-60508451D01*
X74831107Y-60504860D01*
X74831104Y-60504859D01*
X74771404Y-60497610D01*
X74764003Y-60496483D01*
X74704842Y-60485642D01*
X74704836Y-60485642D01*
X74644800Y-60489274D01*
X74637312Y-60489500D01*
X73290334Y-60489500D01*
X73223295Y-60469815D01*
X73177540Y-60417011D01*
X73167596Y-60347853D01*
X73194481Y-60286835D01*
X73206280Y-60272456D01*
X73225910Y-60248538D01*
X73276560Y-60153778D01*
X73318811Y-60074733D01*
X73318811Y-60074732D01*
X73318814Y-60074727D01*
X73376024Y-59886132D01*
X73395341Y-59690000D01*
X73376024Y-59493868D01*
X73318814Y-59305273D01*
X73318811Y-59305269D01*
X73318811Y-59305266D01*
X73225913Y-59131467D01*
X73225909Y-59131460D01*
X73100883Y-58979116D01*
X72948539Y-58854090D01*
X72948532Y-58854086D01*
X72774733Y-58761188D01*
X72774727Y-58761186D01*
X72586132Y-58703976D01*
X72586129Y-58703975D01*
X72390000Y-58684659D01*
X72193870Y-58703975D01*
X72005266Y-58761188D01*
X71831467Y-58854086D01*
X71831460Y-58854090D01*
X71679116Y-58979116D01*
X71554090Y-59131460D01*
X71554086Y-59131467D01*
X71461188Y-59305266D01*
X71403975Y-59493870D01*
X71384659Y-59690000D01*
X71403975Y-59886129D01*
X71403976Y-59886132D01*
X71451254Y-60041987D01*
X71461188Y-60074733D01*
X71554086Y-60248532D01*
X71554089Y-60248536D01*
X71554090Y-60248538D01*
X71555557Y-60250325D01*
X71585519Y-60286835D01*
X71612832Y-60351145D01*
X71601041Y-60420013D01*
X71553889Y-60471573D01*
X71489666Y-60489500D01*
X64071519Y-60489500D01*
X64004480Y-60469815D01*
X63983838Y-60453181D01*
X63268318Y-59737661D01*
X63234833Y-59676338D01*
X63232596Y-59662134D01*
X63231844Y-59654500D01*
X63216024Y-59493868D01*
X63158814Y-59305273D01*
X63158811Y-59305269D01*
X63158811Y-59305266D01*
X63065913Y-59131467D01*
X63065909Y-59131460D01*
X62940883Y-58979116D01*
X62788539Y-58854090D01*
X62788532Y-58854086D01*
X62614733Y-58761188D01*
X62614727Y-58761186D01*
X62426132Y-58703976D01*
X62426129Y-58703975D01*
X62230000Y-58684659D01*
X62033870Y-58703975D01*
X61845266Y-58761188D01*
X61671467Y-58854086D01*
X61671460Y-58854090D01*
X61519116Y-58979116D01*
X61394090Y-59131460D01*
X61394086Y-59131467D01*
X61301188Y-59305266D01*
X61243975Y-59493870D01*
X61224659Y-59690000D01*
X53555247Y-59690000D01*
X53539701Y-59678054D01*
X53516110Y-59612288D01*
X53531821Y-59544207D01*
X53581844Y-59495428D01*
X53595093Y-59489377D01*
X53737401Y-59434247D01*
X53926562Y-59317124D01*
X54066282Y-59189751D01*
X54090979Y-59167238D01*
X54117998Y-59131460D01*
X54225058Y-58989689D01*
X54324229Y-58790528D01*
X54385115Y-58576536D01*
X54405643Y-58355000D01*
X54386693Y-58150499D01*
X54385115Y-58133464D01*
X54385114Y-58133462D01*
X54374043Y-58094552D01*
X54324229Y-57919472D01*
X54296194Y-57863170D01*
X54225061Y-57720316D01*
X54225056Y-57720308D01*
X54090979Y-57542761D01*
X54005739Y-57465055D01*
X63029500Y-57465055D01*
X63070210Y-57630226D01*
X63149263Y-57780849D01*
X63149266Y-57780852D01*
X63262071Y-57908183D01*
X63318000Y-57946788D01*
X63402068Y-58004817D01*
X63402069Y-58004817D01*
X63402070Y-58004818D01*
X63463803Y-58028230D01*
X63530949Y-58053695D01*
X63561128Y-58065140D01*
X63630094Y-58073514D01*
X63687626Y-58080500D01*
X63687628Y-58080500D01*
X68325079Y-58080500D01*
X68332566Y-58080725D01*
X68392606Y-58084358D01*
X68451782Y-58073513D01*
X68459185Y-58072387D01*
X68462921Y-58071933D01*
X68518872Y-58065140D01*
X68528335Y-58061550D01*
X68549961Y-58055522D01*
X68550893Y-58055351D01*
X68559932Y-58053695D01*
X68614808Y-58028996D01*
X68621678Y-58026150D01*
X68677930Y-58004818D01*
X68686266Y-57999062D01*
X68705821Y-57988034D01*
X68715057Y-57983878D01*
X68733087Y-57969752D01*
X75339500Y-57969752D01*
X75351131Y-58028229D01*
X75351132Y-58028230D01*
X75395447Y-58094552D01*
X75461769Y-58138867D01*
X75461770Y-58138868D01*
X75520247Y-58150499D01*
X75520250Y-58150500D01*
X75520252Y-58150500D01*
X77459750Y-58150500D01*
X77459751Y-58150499D01*
X77474568Y-58147552D01*
X77518229Y-58138868D01*
X77518229Y-58138867D01*
X77518231Y-58138867D01*
X77584552Y-58094552D01*
X77628867Y-58028231D01*
X77628867Y-58028229D01*
X77628868Y-58028229D01*
X77640499Y-57969752D01*
X77640500Y-57969750D01*
X77640500Y-56030249D01*
X77640499Y-56030247D01*
X77628868Y-55971770D01*
X77628867Y-55971769D01*
X77584552Y-55905447D01*
X77518230Y-55861132D01*
X77518229Y-55861131D01*
X77459752Y-55849500D01*
X77459748Y-55849500D01*
X75520252Y-55849500D01*
X75520247Y-55849500D01*
X75461770Y-55861131D01*
X75461769Y-55861132D01*
X75395447Y-55905447D01*
X75351132Y-55971769D01*
X75351131Y-55971770D01*
X75339500Y-56030247D01*
X75339500Y-57969752D01*
X68733087Y-57969752D01*
X68762413Y-57946775D01*
X68768404Y-57942366D01*
X68817929Y-57908183D01*
X68857822Y-57863151D01*
X68862924Y-57857731D01*
X71213821Y-55506834D01*
X71275142Y-55473351D01*
X71344834Y-55478335D01*
X71400767Y-55520207D01*
X71425184Y-55585671D01*
X71420161Y-55630511D01*
X71403976Y-55683867D01*
X71384659Y-55880000D01*
X71403975Y-56076129D01*
X71403976Y-56076132D01*
X71452016Y-56234499D01*
X71461188Y-56264733D01*
X71554086Y-56438532D01*
X71554090Y-56438539D01*
X71679116Y-56590883D01*
X71831460Y-56715909D01*
X71831467Y-56715913D01*
X72005266Y-56808811D01*
X72005269Y-56808811D01*
X72005273Y-56808814D01*
X72193868Y-56866024D01*
X72390000Y-56885341D01*
X72586132Y-56866024D01*
X72774727Y-56808814D01*
X72948538Y-56715910D01*
X73100883Y-56590883D01*
X73225910Y-56438538D01*
X73318814Y-56264727D01*
X73376024Y-56076132D01*
X73395341Y-55880000D01*
X73376024Y-55683868D01*
X73318814Y-55495273D01*
X73318811Y-55495269D01*
X73318811Y-55495266D01*
X73225913Y-55321467D01*
X73225909Y-55321460D01*
X73100883Y-55169116D01*
X72948539Y-55044090D01*
X72948532Y-55044086D01*
X72774733Y-54951188D01*
X72774727Y-54951186D01*
X72641540Y-54910784D01*
X72586129Y-54893975D01*
X72390000Y-54874659D01*
X72193867Y-54893976D01*
X72140511Y-54910161D01*
X72070644Y-54910784D01*
X72011532Y-54873535D01*
X71981941Y-54810241D01*
X71991268Y-54740996D01*
X72016833Y-54703822D01*
X77422339Y-49298316D01*
X77483660Y-49264833D01*
X77497855Y-49262597D01*
X77666132Y-49246024D01*
X77854727Y-49188814D01*
X78028538Y-49095910D01*
X78180883Y-48970883D01*
X78305910Y-48818538D01*
X78398814Y-48644727D01*
X78456024Y-48456132D01*
X78475341Y-48260000D01*
X80274659Y-48260000D01*
X80293975Y-48456129D01*
X80351188Y-48644733D01*
X80444086Y-48818532D01*
X80444090Y-48818539D01*
X80569116Y-48970883D01*
X80721460Y-49095909D01*
X80721467Y-49095913D01*
X80895266Y-49188811D01*
X80895269Y-49188811D01*
X80895273Y-49188814D01*
X81083868Y-49246024D01*
X81280000Y-49265341D01*
X81476132Y-49246024D01*
X81664727Y-49188814D01*
X81838538Y-49095910D01*
X81990883Y-48970883D01*
X82115910Y-48818538D01*
X82208814Y-48644727D01*
X82266024Y-48456132D01*
X82285341Y-48260000D01*
X84084659Y-48260000D01*
X84103975Y-48456129D01*
X84161188Y-48644733D01*
X84254086Y-48818532D01*
X84254090Y-48818539D01*
X84379116Y-48970883D01*
X84531460Y-49095909D01*
X84531467Y-49095913D01*
X84705266Y-49188811D01*
X84705269Y-49188811D01*
X84705273Y-49188814D01*
X84893868Y-49246024D01*
X85090000Y-49265341D01*
X85286132Y-49246024D01*
X85474727Y-49188814D01*
X85648538Y-49095910D01*
X85800883Y-48970883D01*
X85925910Y-48818538D01*
X86018814Y-48644727D01*
X86076024Y-48456132D01*
X86095341Y-48260000D01*
X86076024Y-48063868D01*
X86018814Y-47875273D01*
X86018811Y-47875269D01*
X86018811Y-47875266D01*
X85925913Y-47701467D01*
X85925909Y-47701460D01*
X85800883Y-47549116D01*
X85648539Y-47424090D01*
X85648532Y-47424086D01*
X85474733Y-47331188D01*
X85474727Y-47331186D01*
X85292913Y-47276033D01*
X85286129Y-47273975D01*
X85090000Y-47254659D01*
X84893870Y-47273975D01*
X84705266Y-47331188D01*
X84531467Y-47424086D01*
X84531460Y-47424090D01*
X84379116Y-47549116D01*
X84254090Y-47701460D01*
X84254086Y-47701467D01*
X84161188Y-47875266D01*
X84103975Y-48063870D01*
X84084659Y-48260000D01*
X82285341Y-48260000D01*
X82266024Y-48063868D01*
X82208814Y-47875273D01*
X82208811Y-47875269D01*
X82208811Y-47875266D01*
X82115913Y-47701467D01*
X82115909Y-47701460D01*
X81990883Y-47549116D01*
X81838539Y-47424090D01*
X81838532Y-47424086D01*
X81664733Y-47331188D01*
X81664727Y-47331186D01*
X81482913Y-47276033D01*
X81476129Y-47273975D01*
X81280000Y-47254659D01*
X81083870Y-47273975D01*
X80895266Y-47331188D01*
X80721467Y-47424086D01*
X80721460Y-47424090D01*
X80569116Y-47549116D01*
X80444090Y-47701460D01*
X80444086Y-47701467D01*
X80351188Y-47875266D01*
X80293975Y-48063870D01*
X80274659Y-48260000D01*
X78475341Y-48260000D01*
X78456024Y-48063868D01*
X78398814Y-47875273D01*
X78398811Y-47875269D01*
X78398811Y-47875266D01*
X78305913Y-47701467D01*
X78305909Y-47701460D01*
X78180883Y-47549116D01*
X78028539Y-47424090D01*
X78028532Y-47424086D01*
X77854733Y-47331188D01*
X77854727Y-47331186D01*
X77672913Y-47276033D01*
X77666129Y-47273975D01*
X77470000Y-47254659D01*
X77273870Y-47273975D01*
X77085266Y-47331188D01*
X76911467Y-47424086D01*
X76911460Y-47424090D01*
X76759116Y-47549116D01*
X76634090Y-47701460D01*
X76634086Y-47701467D01*
X76541188Y-47875266D01*
X76483975Y-48063870D01*
X76467403Y-48232133D01*
X76441242Y-48296921D01*
X76431681Y-48307660D01*
X68096162Y-56643181D01*
X68034839Y-56676666D01*
X68008481Y-56679500D01*
X63687626Y-56679500D01*
X63561131Y-56694859D01*
X63561125Y-56694860D01*
X63402068Y-56755182D01*
X63262072Y-56851816D01*
X63149263Y-56979150D01*
X63070210Y-57129773D01*
X63029500Y-57294944D01*
X63029500Y-57465055D01*
X54005739Y-57465055D01*
X53926562Y-57392876D01*
X53926560Y-57392874D01*
X53737404Y-57275754D01*
X53737398Y-57275752D01*
X53529940Y-57195382D01*
X53311243Y-57154500D01*
X53088757Y-57154500D01*
X53088754Y-57154500D01*
X53069926Y-57158019D01*
X53000412Y-57150984D01*
X52959467Y-57123810D01*
X52012940Y-56177283D01*
X52007805Y-56171828D01*
X51967929Y-56126816D01*
X51967924Y-56126812D01*
X51918438Y-56092655D01*
X51912403Y-56088215D01*
X51865060Y-56051124D01*
X51865055Y-56051120D01*
X51855813Y-56046961D01*
X51836266Y-56035936D01*
X51827931Y-56030183D01*
X51827932Y-56030183D01*
X51827930Y-56030182D01*
X51771694Y-56008854D01*
X51764790Y-56005994D01*
X51709932Y-55981305D01*
X51709930Y-55981304D01*
X51699946Y-55979474D01*
X51678343Y-55973451D01*
X51668874Y-55969860D01*
X51668871Y-55969859D01*
X51609171Y-55962610D01*
X51601770Y-55961483D01*
X51542609Y-55950642D01*
X51542603Y-55950642D01*
X51482567Y-55954274D01*
X51475079Y-55954500D01*
X40101440Y-55954500D01*
X40034401Y-55934815D01*
X40013759Y-55918181D01*
X39975578Y-55880000D01*
X61224659Y-55880000D01*
X61243975Y-56076129D01*
X61243976Y-56076132D01*
X61292016Y-56234499D01*
X61301188Y-56264733D01*
X61394086Y-56438532D01*
X61394090Y-56438539D01*
X61519116Y-56590883D01*
X61671460Y-56715909D01*
X61671467Y-56715913D01*
X61845266Y-56808811D01*
X61845269Y-56808811D01*
X61845273Y-56808814D01*
X62033868Y-56866024D01*
X62230000Y-56885341D01*
X62426132Y-56866024D01*
X62614727Y-56808814D01*
X62788538Y-56715910D01*
X62940883Y-56590883D01*
X63065910Y-56438538D01*
X63158814Y-56264727D01*
X63216024Y-56076132D01*
X63235341Y-55880000D01*
X63216024Y-55683868D01*
X63158814Y-55495273D01*
X63158811Y-55495269D01*
X63158811Y-55495266D01*
X63065913Y-55321467D01*
X63065909Y-55321460D01*
X62940883Y-55169116D01*
X62788539Y-55044090D01*
X62788532Y-55044086D01*
X62614733Y-54951188D01*
X62614727Y-54951186D01*
X62481540Y-54910784D01*
X62426129Y-54893975D01*
X62230000Y-54874659D01*
X62033870Y-54893975D01*
X61845266Y-54951188D01*
X61671467Y-55044086D01*
X61671460Y-55044090D01*
X61519116Y-55169116D01*
X61394090Y-55321460D01*
X61394086Y-55321467D01*
X61301188Y-55495266D01*
X61243975Y-55683870D01*
X61224659Y-55880000D01*
X39975578Y-55880000D01*
X38243861Y-54148283D01*
X38238726Y-54142828D01*
X38198850Y-54097816D01*
X38198845Y-54097812D01*
X38149359Y-54063655D01*
X38143324Y-54059215D01*
X38095981Y-54022124D01*
X38095976Y-54022120D01*
X38086734Y-54017961D01*
X38067187Y-54006936D01*
X38065578Y-54005826D01*
X38058851Y-54001182D01*
X38002615Y-53979854D01*
X37995711Y-53976994D01*
X37940853Y-53952305D01*
X37940851Y-53952304D01*
X37930867Y-53950474D01*
X37909264Y-53944451D01*
X37899795Y-53940860D01*
X37899792Y-53940859D01*
X37840092Y-53933610D01*
X37832691Y-53932483D01*
X37773530Y-53921642D01*
X37773524Y-53921642D01*
X37713488Y-53925274D01*
X37706000Y-53925500D01*
X29871124Y-53925500D01*
X29863637Y-53925274D01*
X29803610Y-53921643D01*
X29803603Y-53921643D01*
X29744457Y-53932481D01*
X29737057Y-53933608D01*
X29677339Y-53940860D01*
X29667856Y-53944456D01*
X29646252Y-53950478D01*
X29644749Y-53950754D01*
X29636279Y-53952306D01*
X29581443Y-53976986D01*
X29574527Y-53979851D01*
X29545915Y-53990702D01*
X29518284Y-54001182D01*
X29518282Y-54001183D01*
X29518280Y-54001184D01*
X29518275Y-54001186D01*
X29509936Y-54006942D01*
X29490404Y-54017959D01*
X29481160Y-54022120D01*
X29481158Y-54022121D01*
X29481157Y-54022122D01*
X29473427Y-54028178D01*
X29433811Y-54059214D01*
X29427783Y-54063649D01*
X29378282Y-54097819D01*
X29338397Y-54142838D01*
X29333265Y-54148290D01*
X26546910Y-56934645D01*
X26485587Y-56968130D01*
X26415895Y-56963146D01*
X26359962Y-56921274D01*
X26335865Y-56859504D01*
X26335155Y-56852520D01*
X26335154Y-56852517D01*
X26335154Y-56852515D01*
X26277330Y-56668216D01*
X26277328Y-56668213D01*
X26277327Y-56668208D01*
X26183581Y-56499310D01*
X26183579Y-56499307D01*
X26057756Y-56352742D01*
X26057755Y-56352740D01*
X25905002Y-56234501D01*
X25905001Y-56234500D01*
X25731572Y-56149429D01*
X25731570Y-56149428D01*
X25731567Y-56149427D01*
X25731569Y-56149427D01*
X25544576Y-56101011D01*
X25544570Y-56101010D01*
X25379822Y-56092655D01*
X25351645Y-56091226D01*
X25351644Y-56091226D01*
X25351642Y-56091226D01*
X25160710Y-56120476D01*
X25160698Y-56120479D01*
X24979561Y-56187565D01*
X24979552Y-56187569D01*
X24815627Y-56289743D01*
X24815627Y-56289744D01*
X24675614Y-56422835D01*
X24565262Y-56581382D01*
X24489085Y-56758897D01*
X24450200Y-56948113D01*
X24450200Y-58591465D01*
X24464844Y-58735479D01*
X24505286Y-58864375D01*
X24506574Y-58934233D01*
X24469888Y-58993697D01*
X24406878Y-59023888D01*
X24347731Y-59016493D01*
X24347095Y-59018537D01*
X24339930Y-59016304D01*
X24329946Y-59014474D01*
X24308343Y-59008451D01*
X24298874Y-59004860D01*
X24298871Y-59004859D01*
X24239171Y-58997610D01*
X24231770Y-58996483D01*
X24172609Y-58985642D01*
X24172603Y-58985642D01*
X24112567Y-58989274D01*
X24105079Y-58989500D01*
X16021518Y-58989500D01*
X15954479Y-58969815D01*
X15933837Y-58953181D01*
X14176819Y-57196162D01*
X14143334Y-57134839D01*
X14140500Y-57108481D01*
X14140500Y-56030249D01*
X14140499Y-56030247D01*
X14128868Y-55971770D01*
X14128867Y-55971769D01*
X14084552Y-55905447D01*
X14018230Y-55861132D01*
X14018229Y-55861131D01*
X13959752Y-55849500D01*
X13959748Y-55849500D01*
X12020252Y-55849500D01*
X12020247Y-55849500D01*
X11961770Y-55861131D01*
X11961769Y-55861132D01*
X11895447Y-55905447D01*
X11851132Y-55971769D01*
X11851131Y-55971770D01*
X11839500Y-56030247D01*
X11839500Y-57969752D01*
X500500Y-57969752D01*
X500500Y-54610000D01*
X1434785Y-54610000D01*
X1453602Y-54813082D01*
X1509417Y-55009247D01*
X1509422Y-55009260D01*
X1600327Y-55191821D01*
X1723237Y-55354581D01*
X1873958Y-55491980D01*
X1873960Y-55491982D01*
X1934955Y-55529748D01*
X2047363Y-55599348D01*
X2237544Y-55673024D01*
X2438024Y-55710500D01*
X2438026Y-55710500D01*
X2641974Y-55710500D01*
X2641976Y-55710500D01*
X2842456Y-55673024D01*
X3032637Y-55599348D01*
X3145039Y-55529752D01*
X3979500Y-55529752D01*
X3991131Y-55588229D01*
X3991132Y-55588230D01*
X4035447Y-55654552D01*
X4101769Y-55698867D01*
X4101770Y-55698868D01*
X4160247Y-55710499D01*
X4160250Y-55710500D01*
X4160252Y-55710500D01*
X5999750Y-55710500D01*
X5999751Y-55710499D01*
X6014568Y-55707552D01*
X6058229Y-55698868D01*
X6058229Y-55698867D01*
X6058231Y-55698867D01*
X6124552Y-55654552D01*
X6168867Y-55588231D01*
X6168867Y-55588229D01*
X6168868Y-55588229D01*
X6180499Y-55529752D01*
X6180500Y-55529750D01*
X6180500Y-53694341D01*
X7007272Y-53694341D01*
X7026588Y-53890470D01*
X7041874Y-53940860D01*
X7079123Y-54063655D01*
X7083801Y-54079074D01*
X7176699Y-54252873D01*
X7176703Y-54252880D01*
X7301729Y-54405224D01*
X7454073Y-54530250D01*
X7454080Y-54530254D01*
X7627879Y-54623152D01*
X7627882Y-54623152D01*
X7627886Y-54623155D01*
X7816481Y-54680365D01*
X8012613Y-54699682D01*
X8208745Y-54680365D01*
X8397340Y-54623155D01*
X8421952Y-54610000D01*
X8571145Y-54530254D01*
X8571151Y-54530251D01*
X8723496Y-54405224D01*
X8848523Y-54252879D01*
X8907347Y-54142828D01*
X8941424Y-54079074D01*
X8941424Y-54079073D01*
X8941427Y-54079068D01*
X8998637Y-53890473D01*
X9017954Y-53694341D01*
X8998637Y-53498209D01*
X8941427Y-53309614D01*
X8941424Y-53309610D01*
X8941424Y-53309607D01*
X8872147Y-53180000D01*
X44714659Y-53180000D01*
X44733975Y-53376129D01*
X44733976Y-53376132D01*
X44771008Y-53498211D01*
X44791188Y-53564733D01*
X44884086Y-53738532D01*
X44884090Y-53738539D01*
X45009116Y-53890883D01*
X45161460Y-54015909D01*
X45161467Y-54015913D01*
X45335266Y-54108811D01*
X45335269Y-54108811D01*
X45335273Y-54108814D01*
X45523868Y-54166024D01*
X45720000Y-54185341D01*
X45916132Y-54166024D01*
X46104727Y-54108814D01*
X46125311Y-54097812D01*
X46266920Y-54022120D01*
X46278538Y-54015910D01*
X46430883Y-53890883D01*
X46555910Y-53738538D01*
X46618920Y-53620655D01*
X46648811Y-53564733D01*
X46648811Y-53564732D01*
X46648814Y-53564727D01*
X46706024Y-53376132D01*
X46725341Y-53180000D01*
X46706024Y-52983868D01*
X46648814Y-52795273D01*
X46648811Y-52795269D01*
X46648811Y-52795266D01*
X46555913Y-52621467D01*
X46555909Y-52621460D01*
X46430883Y-52469116D01*
X46278539Y-52344090D01*
X46278532Y-52344086D01*
X46104733Y-52251188D01*
X46104727Y-52251186D01*
X45916132Y-52193976D01*
X45916129Y-52193975D01*
X45720000Y-52174659D01*
X45523870Y-52193975D01*
X45335266Y-52251188D01*
X45161467Y-52344086D01*
X45161460Y-52344090D01*
X45009116Y-52469116D01*
X44884090Y-52621460D01*
X44884086Y-52621467D01*
X44791188Y-52795266D01*
X44733975Y-52983870D01*
X44714659Y-53180000D01*
X8872147Y-53180000D01*
X8848526Y-53135808D01*
X8848522Y-53135801D01*
X8723496Y-52983457D01*
X8571152Y-52858431D01*
X8571145Y-52858427D01*
X8397346Y-52765529D01*
X8397340Y-52765527D01*
X8208745Y-52708317D01*
X8208742Y-52708316D01*
X8012613Y-52689000D01*
X7816483Y-52708316D01*
X7627879Y-52765529D01*
X7454080Y-52858427D01*
X7454073Y-52858431D01*
X7301729Y-52983457D01*
X7176703Y-53135801D01*
X7176699Y-53135808D01*
X7083801Y-53309607D01*
X7026588Y-53498211D01*
X7007272Y-53694341D01*
X6180500Y-53694341D01*
X6180500Y-53690249D01*
X6180499Y-53690247D01*
X6168868Y-53631770D01*
X6168867Y-53631769D01*
X6124552Y-53565447D01*
X6058230Y-53521132D01*
X6058229Y-53521131D01*
X5999752Y-53509500D01*
X5999748Y-53509500D01*
X4160252Y-53509500D01*
X4160247Y-53509500D01*
X4101770Y-53521131D01*
X4101769Y-53521132D01*
X4035447Y-53565447D01*
X3991132Y-53631769D01*
X3991131Y-53631770D01*
X3979500Y-53690247D01*
X3979500Y-55529752D01*
X3145039Y-55529752D01*
X3206041Y-55491981D01*
X3356764Y-55354579D01*
X3479673Y-55191821D01*
X3570582Y-55009250D01*
X3626397Y-54813083D01*
X3645215Y-54610000D01*
X3626397Y-54406917D01*
X3570582Y-54210750D01*
X3557929Y-54185340D01*
X3514346Y-54097812D01*
X3479673Y-54028179D01*
X3375992Y-53890883D01*
X3356762Y-53865418D01*
X3206041Y-53728019D01*
X3206039Y-53728017D01*
X3032642Y-53620655D01*
X3032635Y-53620651D01*
X2888277Y-53564727D01*
X2842456Y-53546976D01*
X2641976Y-53509500D01*
X2438024Y-53509500D01*
X2237544Y-53546976D01*
X2237541Y-53546976D01*
X2237541Y-53546977D01*
X2047364Y-53620651D01*
X2047357Y-53620655D01*
X1873960Y-53728017D01*
X1873958Y-53728019D01*
X1723237Y-53865418D01*
X1600327Y-54028178D01*
X1509422Y-54210739D01*
X1509417Y-54210752D01*
X1453602Y-54406917D01*
X1434785Y-54609999D01*
X1434785Y-54610000D01*
X500500Y-54610000D01*
X500500Y-47553684D01*
X33593644Y-47553684D01*
X33624382Y-47774033D01*
X33695085Y-47984985D01*
X33695086Y-47984989D01*
X33803346Y-48179349D01*
X33803354Y-48179362D01*
X33870316Y-48260000D01*
X33909872Y-48307635D01*
X33909880Y-48307643D01*
X36689477Y-51087240D01*
X36693433Y-51091383D01*
X36747763Y-51150981D01*
X36782987Y-51177580D01*
X36812109Y-51199572D01*
X36816585Y-51203117D01*
X36878647Y-51254653D01*
X36878649Y-51254654D01*
X36895512Y-51264046D01*
X36909905Y-51273424D01*
X36925311Y-51285058D01*
X36997501Y-51321005D01*
X37002549Y-51323665D01*
X37073015Y-51362914D01*
X37077676Y-51364476D01*
X37091317Y-51369048D01*
X37107181Y-51375619D01*
X37124472Y-51384229D01*
X37124474Y-51384229D01*
X37124475Y-51384230D01*
X37202049Y-51406301D01*
X37207522Y-51407996D01*
X37221438Y-51412660D01*
X37283967Y-51433618D01*
X37303078Y-51436283D01*
X37319878Y-51439826D01*
X37338464Y-51445115D01*
X37418799Y-51452558D01*
X37424422Y-51453210D01*
X37504319Y-51464356D01*
X37584869Y-51460632D01*
X37590595Y-51460500D01*
X61489405Y-51460500D01*
X61495131Y-51460632D01*
X61575681Y-51464356D01*
X61655586Y-51453209D01*
X61661194Y-51452559D01*
X61741536Y-51445115D01*
X61760111Y-51439829D01*
X61776906Y-51436285D01*
X61796033Y-51433618D01*
X61872502Y-51407987D01*
X61877911Y-51406312D01*
X61955528Y-51384229D01*
X61972810Y-51375623D01*
X61988675Y-51369051D01*
X62006985Y-51362915D01*
X62077448Y-51323666D01*
X62082492Y-51321008D01*
X62154681Y-51285062D01*
X62154681Y-51285061D01*
X62154689Y-51285058D01*
X62170102Y-51273417D01*
X62184476Y-51264051D01*
X62201353Y-51254652D01*
X62263425Y-51203106D01*
X62267863Y-51199591D01*
X62332236Y-51150981D01*
X62386576Y-51091371D01*
X62390489Y-51087272D01*
X62720369Y-50757394D01*
X63057262Y-50420500D01*
X63061384Y-50416565D01*
X63120981Y-50362236D01*
X63132618Y-50346824D01*
X63143884Y-50333877D01*
X65563877Y-47913884D01*
X65576824Y-47902618D01*
X65592236Y-47890981D01*
X65646578Y-47831369D01*
X65650491Y-47827270D01*
X65668128Y-47809635D01*
X65684083Y-47790419D01*
X65687768Y-47786186D01*
X65742124Y-47726562D01*
X65752289Y-47710143D01*
X65762317Y-47696205D01*
X65774652Y-47681353D01*
X65813898Y-47610889D01*
X65816776Y-47605990D01*
X65859247Y-47537401D01*
X65866219Y-47519402D01*
X65873519Y-47503853D01*
X65882911Y-47486992D01*
X65882910Y-47486992D01*
X65882915Y-47486985D01*
X65908555Y-47410480D01*
X65910477Y-47405158D01*
X65939618Y-47329940D01*
X65943165Y-47310958D01*
X65947481Y-47294341D01*
X65953618Y-47276033D01*
X65964759Y-47196162D01*
X65965678Y-47190531D01*
X65980499Y-47111247D01*
X65980500Y-47111242D01*
X65980500Y-47091931D01*
X65981689Y-47074799D01*
X65984356Y-47055681D01*
X65980632Y-46975128D01*
X65980500Y-46969403D01*
X65980500Y-46888759D01*
X65976951Y-46869774D01*
X65974972Y-46852714D01*
X65974081Y-46833433D01*
X65955609Y-46754899D01*
X65954445Y-46749380D01*
X65939618Y-46670060D01*
X65932638Y-46652043D01*
X65927564Y-46635657D01*
X65923143Y-46616857D01*
X65890556Y-46543056D01*
X65888381Y-46537804D01*
X65859248Y-46462602D01*
X65859247Y-46462599D01*
X65849079Y-46446178D01*
X65841075Y-46430993D01*
X65833276Y-46413329D01*
X65833274Y-46413326D01*
X65787713Y-46346814D01*
X65784586Y-46342016D01*
X65751831Y-46289116D01*
X65742124Y-46273438D01*
X65729115Y-46259168D01*
X65718455Y-46245710D01*
X65707542Y-46229779D01*
X65650521Y-46172758D01*
X65646565Y-46168615D01*
X65592237Y-46109019D01*
X65576824Y-46097380D01*
X65563871Y-46086108D01*
X65550225Y-46072462D01*
X65550221Y-46072458D01*
X65550217Y-46072455D01*
X65550212Y-46072451D01*
X65483688Y-46026881D01*
X65479038Y-46023536D01*
X65414690Y-45974942D01*
X65404863Y-45970049D01*
X65397398Y-45966332D01*
X65382598Y-45957634D01*
X65377047Y-45953831D01*
X65366675Y-45946726D01*
X65366664Y-45946720D01*
X65326002Y-45928767D01*
X65292892Y-45914147D01*
X65287740Y-45911729D01*
X65263335Y-45899576D01*
X65215533Y-45875773D01*
X65215517Y-45875767D01*
X65196942Y-45870481D01*
X65180801Y-45864653D01*
X65163146Y-45856858D01*
X65163135Y-45856854D01*
X65084652Y-45838396D01*
X65079117Y-45836959D01*
X65053010Y-45829530D01*
X65001531Y-45814883D01*
X64982294Y-45813100D01*
X64965358Y-45810338D01*
X64964496Y-45810135D01*
X64946567Y-45805919D01*
X64942215Y-45805717D01*
X64866014Y-45802194D01*
X64860306Y-45801798D01*
X64853720Y-45801188D01*
X64835503Y-45799500D01*
X64835495Y-45799500D01*
X64810595Y-45799500D01*
X64804869Y-45799368D01*
X64801949Y-45799233D01*
X64724319Y-45795644D01*
X64724318Y-45795644D01*
X64724315Y-45795644D01*
X64705200Y-45798311D01*
X64688069Y-45799500D01*
X64197255Y-45799500D01*
X64130216Y-45779815D01*
X64109574Y-45763181D01*
X63466819Y-45120426D01*
X63433334Y-45059103D01*
X63430500Y-45032745D01*
X63430500Y-44460000D01*
X63774659Y-44460000D01*
X63793975Y-44656129D01*
X63793976Y-44656132D01*
X63849286Y-44838465D01*
X63851188Y-44844733D01*
X63944086Y-45018532D01*
X63944090Y-45018539D01*
X64069116Y-45170883D01*
X64221460Y-45295909D01*
X64221467Y-45295913D01*
X64395266Y-45388811D01*
X64395269Y-45388811D01*
X64395273Y-45388814D01*
X64583868Y-45446024D01*
X64780000Y-45465341D01*
X64976132Y-45446024D01*
X65164727Y-45388814D01*
X65179846Y-45380733D01*
X65338532Y-45295913D01*
X65338538Y-45295910D01*
X65490883Y-45170883D01*
X65615910Y-45018538D01*
X65664776Y-44927117D01*
X65708811Y-44844733D01*
X65708811Y-44844732D01*
X65708814Y-44844727D01*
X65766024Y-44656132D01*
X65785341Y-44460000D01*
X65766024Y-44263868D01*
X65708814Y-44075273D01*
X65708811Y-44075269D01*
X65708811Y-44075266D01*
X65615913Y-43901467D01*
X65615909Y-43901460D01*
X65490883Y-43749116D01*
X65338539Y-43624090D01*
X65338532Y-43624086D01*
X65164733Y-43531188D01*
X65164727Y-43531186D01*
X64976132Y-43473976D01*
X64976129Y-43473975D01*
X64780000Y-43454659D01*
X64583870Y-43473975D01*
X64395266Y-43531188D01*
X64221467Y-43624086D01*
X64221460Y-43624090D01*
X64069116Y-43749116D01*
X63944090Y-43901460D01*
X63944086Y-43901467D01*
X63851188Y-44075266D01*
X63793975Y-44263870D01*
X63774659Y-44460000D01*
X63430500Y-44460000D01*
X63430500Y-41920000D01*
X63774659Y-41920000D01*
X63793975Y-42116129D01*
X63851188Y-42304733D01*
X63944086Y-42478532D01*
X63944090Y-42478539D01*
X64069116Y-42630883D01*
X64221460Y-42755909D01*
X64221467Y-42755913D01*
X64395266Y-42848811D01*
X64395269Y-42848811D01*
X64395273Y-42848814D01*
X64583868Y-42906024D01*
X64780000Y-42925341D01*
X64976132Y-42906024D01*
X65164727Y-42848814D01*
X65338538Y-42755910D01*
X65490883Y-42630883D01*
X65615910Y-42478538D01*
X65708814Y-42304727D01*
X65766024Y-42116132D01*
X65785341Y-41920000D01*
X65766024Y-41723868D01*
X65749838Y-41670513D01*
X65749214Y-41600648D01*
X65786462Y-41541534D01*
X65849756Y-41511943D01*
X65919000Y-41521268D01*
X65956180Y-41546837D01*
X71361681Y-46952338D01*
X71395166Y-47013661D01*
X71397403Y-47027865D01*
X71413975Y-47196129D01*
X71413976Y-47196132D01*
X71467286Y-47371872D01*
X71471188Y-47384733D01*
X71564086Y-47558532D01*
X71564090Y-47558539D01*
X71689116Y-47710883D01*
X71841460Y-47835909D01*
X71841467Y-47835913D01*
X72015266Y-47928811D01*
X72015269Y-47928811D01*
X72015273Y-47928814D01*
X72203868Y-47986024D01*
X72400000Y-48005341D01*
X72596132Y-47986024D01*
X72784727Y-47928814D01*
X72855508Y-47890981D01*
X72958532Y-47835913D01*
X72958538Y-47835910D01*
X73110883Y-47710883D01*
X73235910Y-47558538D01*
X73328814Y-47384727D01*
X73386024Y-47196132D01*
X73405341Y-47000000D01*
X73386024Y-46803868D01*
X73328814Y-46615273D01*
X73328811Y-46615269D01*
X73328811Y-46615266D01*
X73235913Y-46441467D01*
X73235909Y-46441460D01*
X73110883Y-46289116D01*
X72958539Y-46164090D01*
X72958532Y-46164086D01*
X72784733Y-46071188D01*
X72784727Y-46071186D01*
X72596132Y-46013976D01*
X72596129Y-46013975D01*
X72427865Y-45997403D01*
X72363078Y-45971242D01*
X72352338Y-45961681D01*
X72026837Y-45636180D01*
X71993352Y-45574857D01*
X71998336Y-45505165D01*
X72040208Y-45449232D01*
X72105672Y-45424815D01*
X72150512Y-45429838D01*
X72182395Y-45439510D01*
X72203867Y-45446024D01*
X72221452Y-45447755D01*
X72400000Y-45465341D01*
X72596132Y-45446024D01*
X72784727Y-45388814D01*
X72799846Y-45380733D01*
X72958532Y-45295913D01*
X72958538Y-45295910D01*
X73110883Y-45170883D01*
X73235910Y-45018538D01*
X73284776Y-44927117D01*
X73328811Y-44844733D01*
X73328811Y-44844732D01*
X73328814Y-44844727D01*
X73386024Y-44656132D01*
X73405341Y-44460000D01*
X73386024Y-44263868D01*
X73328814Y-44075273D01*
X73328811Y-44075269D01*
X73328811Y-44075266D01*
X73235913Y-43901467D01*
X73235909Y-43901460D01*
X73110883Y-43749116D01*
X72958539Y-43624090D01*
X72958532Y-43624086D01*
X72784733Y-43531188D01*
X72784727Y-43531186D01*
X72596132Y-43473976D01*
X72596129Y-43473975D01*
X72400000Y-43454659D01*
X72203870Y-43473975D01*
X72015266Y-43531188D01*
X71841467Y-43624086D01*
X71841460Y-43624090D01*
X71689116Y-43749116D01*
X71564090Y-43901460D01*
X71564086Y-43901467D01*
X71471188Y-44075266D01*
X71413975Y-44263870D01*
X71394659Y-44460000D01*
X71413975Y-44656130D01*
X71430161Y-44709486D01*
X71430784Y-44779353D01*
X71393536Y-44838465D01*
X71330242Y-44868056D01*
X71260997Y-44858731D01*
X71223819Y-44833162D01*
X68310657Y-41920000D01*
X71394659Y-41920000D01*
X71413975Y-42116129D01*
X71471188Y-42304733D01*
X71564086Y-42478532D01*
X71564090Y-42478539D01*
X71689116Y-42630883D01*
X71841460Y-42755909D01*
X71841467Y-42755913D01*
X72015266Y-42848811D01*
X72015269Y-42848811D01*
X72015273Y-42848814D01*
X72203868Y-42906024D01*
X72400000Y-42925341D01*
X72596132Y-42906024D01*
X72784727Y-42848814D01*
X72958538Y-42755910D01*
X73110883Y-42630883D01*
X73235910Y-42478538D01*
X73328814Y-42304727D01*
X73386024Y-42116132D01*
X73405341Y-41920000D01*
X73386024Y-41723868D01*
X73328814Y-41535273D01*
X73328811Y-41535269D01*
X73328811Y-41535266D01*
X73235913Y-41361467D01*
X73235909Y-41361460D01*
X73110883Y-41209116D01*
X72958539Y-41084090D01*
X72958532Y-41084086D01*
X72784733Y-40991188D01*
X72784727Y-40991186D01*
X72658997Y-40953046D01*
X72596129Y-40933975D01*
X72400000Y-40914659D01*
X72203870Y-40933975D01*
X72015266Y-40991188D01*
X71841467Y-41084086D01*
X71841460Y-41084090D01*
X71689116Y-41209116D01*
X71564090Y-41361460D01*
X71564086Y-41361467D01*
X71471188Y-41535266D01*
X71413975Y-41723870D01*
X71394659Y-41920000D01*
X68310657Y-41920000D01*
X65816819Y-39426162D01*
X65783334Y-39364839D01*
X65780500Y-39338481D01*
X65780500Y-38560249D01*
X65780499Y-38560247D01*
X65768868Y-38501770D01*
X65768867Y-38501769D01*
X65724552Y-38435447D01*
X65658230Y-38391132D01*
X65658229Y-38391131D01*
X65599752Y-38379500D01*
X65599748Y-38379500D01*
X63960252Y-38379500D01*
X63960247Y-38379500D01*
X63901770Y-38391131D01*
X63901769Y-38391132D01*
X63835447Y-38435447D01*
X63791132Y-38501769D01*
X63791131Y-38501770D01*
X63779500Y-38560247D01*
X63779500Y-40199752D01*
X63791131Y-40258229D01*
X63791132Y-40258230D01*
X63835447Y-40324552D01*
X63901769Y-40368867D01*
X63901770Y-40368868D01*
X63960247Y-40380499D01*
X63960250Y-40380500D01*
X63960252Y-40380500D01*
X64738481Y-40380500D01*
X64805520Y-40400185D01*
X64826162Y-40416819D01*
X65153162Y-40743819D01*
X65186647Y-40805142D01*
X65181663Y-40874834D01*
X65139791Y-40930767D01*
X65074327Y-40955184D01*
X65029486Y-40950161D01*
X64976130Y-40933975D01*
X64780000Y-40914659D01*
X64583870Y-40933975D01*
X64395266Y-40991188D01*
X64221467Y-41084086D01*
X64221460Y-41084090D01*
X64069116Y-41209116D01*
X63944090Y-41361460D01*
X63944086Y-41361467D01*
X63851188Y-41535266D01*
X63793975Y-41723870D01*
X63774659Y-41920000D01*
X63430500Y-41920000D01*
X63430500Y-31750000D01*
X67574659Y-31750000D01*
X67593975Y-31946129D01*
X67593976Y-31946132D01*
X67633086Y-32075061D01*
X67651188Y-32134733D01*
X67744086Y-32308532D01*
X67744090Y-32308539D01*
X67869116Y-32460883D01*
X68021460Y-32585909D01*
X68021467Y-32585913D01*
X68195266Y-32678811D01*
X68195269Y-32678811D01*
X68195273Y-32678814D01*
X68383868Y-32736024D01*
X68580000Y-32755341D01*
X68776132Y-32736024D01*
X68964727Y-32678814D01*
X69138538Y-32585910D01*
X69290883Y-32460883D01*
X69415910Y-32308538D01*
X69508814Y-32134727D01*
X69566024Y-31946132D01*
X69585341Y-31750000D01*
X69566024Y-31553868D01*
X69519273Y-31399752D01*
X70019500Y-31399752D01*
X70031131Y-31458229D01*
X70031132Y-31458230D01*
X70075447Y-31524552D01*
X70141769Y-31568867D01*
X70141770Y-31568868D01*
X70200247Y-31580499D01*
X70200250Y-31580500D01*
X70200252Y-31580500D01*
X72039750Y-31580500D01*
X72039751Y-31580499D01*
X72054568Y-31577552D01*
X72098229Y-31568868D01*
X72098229Y-31568867D01*
X72098231Y-31568867D01*
X72164552Y-31524552D01*
X72208867Y-31458231D01*
X72208867Y-31458229D01*
X72208868Y-31458229D01*
X72220499Y-31399752D01*
X72220500Y-31399750D01*
X72220500Y-29560249D01*
X72220499Y-29560247D01*
X72208868Y-29501770D01*
X72208867Y-29501769D01*
X72164552Y-29435447D01*
X72098230Y-29391132D01*
X72098229Y-29391131D01*
X72039752Y-29379500D01*
X72039748Y-29379500D01*
X70200252Y-29379500D01*
X70200247Y-29379500D01*
X70141770Y-29391131D01*
X70141769Y-29391132D01*
X70075447Y-29435447D01*
X70031132Y-29501769D01*
X70031131Y-29501770D01*
X70019500Y-29560247D01*
X70019500Y-31399752D01*
X69519273Y-31399752D01*
X69508814Y-31365273D01*
X69508811Y-31365269D01*
X69508811Y-31365266D01*
X69415913Y-31191467D01*
X69415909Y-31191460D01*
X69290883Y-31039116D01*
X69138539Y-30914090D01*
X69138532Y-30914086D01*
X68964733Y-30821188D01*
X68964727Y-30821186D01*
X68776132Y-30763976D01*
X68776129Y-30763975D01*
X68580000Y-30744659D01*
X68383870Y-30763975D01*
X68195266Y-30821188D01*
X68021467Y-30914086D01*
X68021460Y-30914090D01*
X67869116Y-31039116D01*
X67744090Y-31191460D01*
X67744086Y-31191467D01*
X67651188Y-31365266D01*
X67593975Y-31553870D01*
X67574659Y-31750000D01*
X63430500Y-31750000D01*
X63430500Y-27238625D01*
X63450185Y-27171586D01*
X63466819Y-27150944D01*
X64506880Y-26110883D01*
X65668129Y-24949635D01*
X65774653Y-24821353D01*
X65882915Y-24626985D01*
X65953619Y-24416032D01*
X65984357Y-24195681D01*
X65974082Y-23973432D01*
X65937647Y-23818525D01*
X65923145Y-23756865D01*
X65923144Y-23756863D01*
X65923143Y-23756857D01*
X65833277Y-23553329D01*
X65707543Y-23369779D01*
X65550221Y-23212457D01*
X65366671Y-23086723D01*
X65366670Y-23086722D01*
X65366668Y-23086721D01*
X65163149Y-22996859D01*
X65163134Y-22996854D01*
X64946571Y-22945918D01*
X64946573Y-22945918D01*
X64823096Y-22940209D01*
X64724319Y-22935643D01*
X64724318Y-22935643D01*
X64724315Y-22935643D01*
X64503967Y-22966381D01*
X64293014Y-23037085D01*
X64098647Y-23145346D01*
X63970376Y-23251861D01*
X63970356Y-23251879D01*
X61402756Y-25819479D01*
X61398614Y-25823434D01*
X61339022Y-25877760D01*
X61290427Y-25942109D01*
X61286873Y-25946596D01*
X61235350Y-26008644D01*
X61235344Y-26008652D01*
X61225951Y-26025517D01*
X61216579Y-26039900D01*
X61204943Y-26055309D01*
X61168988Y-26127512D01*
X61166319Y-26132575D01*
X61127083Y-26203017D01*
X61120947Y-26221325D01*
X61114379Y-26237183D01*
X61105773Y-26254466D01*
X61105771Y-26254470D01*
X61105771Y-26254472D01*
X61102250Y-26266848D01*
X61083698Y-26332048D01*
X61082004Y-26337517D01*
X61056382Y-26413962D01*
X61056380Y-26413973D01*
X61053713Y-26433089D01*
X61050171Y-26449881D01*
X61044885Y-26468459D01*
X61044885Y-26468462D01*
X61037442Y-26548779D01*
X61036782Y-26554466D01*
X61025644Y-26634314D01*
X61025644Y-26634317D01*
X61025644Y-26634319D01*
X61026576Y-26654481D01*
X61029368Y-26714869D01*
X61029500Y-26720595D01*
X61029500Y-33069481D01*
X61009815Y-33136520D01*
X60957011Y-33182275D01*
X60887853Y-33192219D01*
X60824297Y-33163194D01*
X60817819Y-33157162D01*
X59458318Y-31797661D01*
X59424833Y-31736338D01*
X59422596Y-31722134D01*
X59420483Y-31700682D01*
X59406024Y-31553868D01*
X59348814Y-31365273D01*
X59348811Y-31365269D01*
X59348811Y-31365266D01*
X59255913Y-31191467D01*
X59255909Y-31191460D01*
X59130883Y-31039116D01*
X58978539Y-30914090D01*
X58978532Y-30914086D01*
X58804733Y-30821188D01*
X58804727Y-30821186D01*
X58616132Y-30763976D01*
X58616129Y-30763975D01*
X58420000Y-30744659D01*
X58223870Y-30763975D01*
X58035266Y-30821188D01*
X57861467Y-30914086D01*
X57861460Y-30914090D01*
X57709116Y-31039116D01*
X57584090Y-31191460D01*
X57584086Y-31191467D01*
X57491188Y-31365266D01*
X57433975Y-31553870D01*
X57414659Y-31750000D01*
X57433975Y-31946129D01*
X57433976Y-31946132D01*
X57473086Y-32075061D01*
X57491188Y-32134733D01*
X57584086Y-32308532D01*
X57584090Y-32308539D01*
X57709116Y-32460883D01*
X57861460Y-32585909D01*
X57861467Y-32585913D01*
X58035266Y-32678811D01*
X58035269Y-32678811D01*
X58035273Y-32678814D01*
X58223868Y-32736024D01*
X58392135Y-32752596D01*
X58456921Y-32778757D01*
X58467661Y-32788318D01*
X60993181Y-35313838D01*
X61026666Y-35375161D01*
X61029500Y-35401519D01*
X61029500Y-45550773D01*
X61029368Y-45556498D01*
X61025644Y-45637053D01*
X61028311Y-45656169D01*
X61029500Y-45673301D01*
X61029500Y-48935500D01*
X61009815Y-49002539D01*
X60957011Y-49048294D01*
X60905500Y-49059500D01*
X60590334Y-49059500D01*
X60523295Y-49039815D01*
X60477540Y-48987011D01*
X60467596Y-48917853D01*
X60494481Y-48856835D01*
X60506280Y-48842456D01*
X60525910Y-48818538D01*
X60618814Y-48644727D01*
X60676024Y-48456132D01*
X60695341Y-48260000D01*
X60676024Y-48063868D01*
X60618814Y-47875273D01*
X60618811Y-47875269D01*
X60618811Y-47875266D01*
X60525913Y-47701467D01*
X60525909Y-47701460D01*
X60400883Y-47549116D01*
X60248539Y-47424090D01*
X60248532Y-47424086D01*
X60074733Y-47331188D01*
X60074727Y-47331186D01*
X59892913Y-47276033D01*
X59886129Y-47273975D01*
X59690000Y-47254659D01*
X59493870Y-47273975D01*
X59305266Y-47331188D01*
X59131467Y-47424086D01*
X59131460Y-47424090D01*
X58979116Y-47549116D01*
X58854090Y-47701460D01*
X58854086Y-47701467D01*
X58761188Y-47875266D01*
X58703975Y-48063870D01*
X58684659Y-48260000D01*
X58703975Y-48456129D01*
X58761188Y-48644733D01*
X58854086Y-48818532D01*
X58854091Y-48818539D01*
X58885519Y-48856835D01*
X58912832Y-48921145D01*
X58901041Y-48990013D01*
X58853889Y-49041573D01*
X58789666Y-49059500D01*
X56780334Y-49059500D01*
X56713295Y-49039815D01*
X56667540Y-48987011D01*
X56657596Y-48917853D01*
X56684481Y-48856835D01*
X56696280Y-48842456D01*
X56715910Y-48818538D01*
X56808814Y-48644727D01*
X56866024Y-48456132D01*
X56885341Y-48260000D01*
X56866024Y-48063868D01*
X56808814Y-47875273D01*
X56808811Y-47875269D01*
X56808811Y-47875266D01*
X56715913Y-47701467D01*
X56715909Y-47701460D01*
X56590883Y-47549116D01*
X56438539Y-47424090D01*
X56438532Y-47424086D01*
X56264733Y-47331188D01*
X56264727Y-47331186D01*
X56082913Y-47276033D01*
X56076129Y-47273975D01*
X55880000Y-47254659D01*
X55683870Y-47273975D01*
X55495266Y-47331188D01*
X55321467Y-47424086D01*
X55321460Y-47424090D01*
X55169116Y-47549116D01*
X55044090Y-47701460D01*
X55044086Y-47701467D01*
X54951188Y-47875266D01*
X54893975Y-48063870D01*
X54874659Y-48260000D01*
X54893975Y-48456129D01*
X54951188Y-48644733D01*
X55044086Y-48818532D01*
X55044091Y-48818539D01*
X55075519Y-48856835D01*
X55102832Y-48921145D01*
X55091041Y-48990013D01*
X55043889Y-49041573D01*
X54979666Y-49059500D01*
X52970334Y-49059500D01*
X52903295Y-49039815D01*
X52857540Y-48987011D01*
X52847596Y-48917853D01*
X52874481Y-48856835D01*
X52886280Y-48842456D01*
X52905910Y-48818538D01*
X52998814Y-48644727D01*
X53056024Y-48456132D01*
X53075341Y-48260000D01*
X53056024Y-48063868D01*
X52998814Y-47875273D01*
X52998811Y-47875269D01*
X52998811Y-47875266D01*
X52905913Y-47701467D01*
X52905909Y-47701460D01*
X52780883Y-47549116D01*
X52628539Y-47424090D01*
X52628532Y-47424086D01*
X52454733Y-47331188D01*
X52454727Y-47331186D01*
X52272913Y-47276033D01*
X52266129Y-47273975D01*
X52070000Y-47254659D01*
X51873870Y-47273975D01*
X51685266Y-47331188D01*
X51511467Y-47424086D01*
X51511460Y-47424090D01*
X51359116Y-47549116D01*
X51234090Y-47701460D01*
X51234086Y-47701467D01*
X51141188Y-47875266D01*
X51083975Y-48063870D01*
X51064659Y-48260000D01*
X51083975Y-48456129D01*
X51141188Y-48644733D01*
X51234086Y-48818532D01*
X51234091Y-48818539D01*
X51265519Y-48856835D01*
X51292832Y-48921145D01*
X51281041Y-48990013D01*
X51233889Y-49041573D01*
X51169666Y-49059500D01*
X38108625Y-49059500D01*
X38041586Y-49039815D01*
X38020944Y-49023181D01*
X35607643Y-46609880D01*
X35607635Y-46609872D01*
X35607623Y-46609862D01*
X35479362Y-46503354D01*
X35479355Y-46503349D01*
X35479353Y-46503348D01*
X35448913Y-46486393D01*
X35284989Y-46395086D01*
X35284985Y-46395085D01*
X35074033Y-46324382D01*
X34853682Y-46293644D01*
X34853681Y-46293644D01*
X34809231Y-46295699D01*
X34631429Y-46303919D01*
X34414864Y-46354854D01*
X34414848Y-46354860D01*
X34211331Y-46444721D01*
X34027779Y-46570457D01*
X34027773Y-46570462D01*
X33870462Y-46727773D01*
X33870457Y-46727779D01*
X33744721Y-46911331D01*
X33654860Y-47114848D01*
X33654854Y-47114864D01*
X33603919Y-47331429D01*
X33603919Y-47331433D01*
X33595229Y-47519410D01*
X33593644Y-47553684D01*
X500500Y-47553684D01*
X500500Y-46394269D01*
X8599500Y-46394269D01*
X8602353Y-46424699D01*
X8602353Y-46424701D01*
X8647206Y-46552880D01*
X8647207Y-46552882D01*
X8727850Y-46662150D01*
X8837118Y-46742793D01*
X8855843Y-46749345D01*
X8965299Y-46787646D01*
X8995730Y-46790500D01*
X8995734Y-46790500D01*
X10604270Y-46790500D01*
X10634699Y-46787646D01*
X10634701Y-46787646D01*
X10728133Y-46754952D01*
X10762882Y-46742793D01*
X10872150Y-46662150D01*
X10952793Y-46552882D01*
X10975219Y-46488790D01*
X10997646Y-46424701D01*
X10997646Y-46424699D01*
X11000500Y-46394269D01*
X11000500Y-45085730D01*
X10997646Y-45055300D01*
X10997646Y-45055298D01*
X10952793Y-44927119D01*
X10952792Y-44927117D01*
X10872150Y-44817850D01*
X10762882Y-44737207D01*
X10762880Y-44737206D01*
X10634700Y-44692353D01*
X10604270Y-44689500D01*
X10604266Y-44689500D01*
X8995734Y-44689500D01*
X8995730Y-44689500D01*
X8965300Y-44692353D01*
X8965298Y-44692353D01*
X8837119Y-44737206D01*
X8837117Y-44737207D01*
X8727850Y-44817850D01*
X8647207Y-44927117D01*
X8647206Y-44927119D01*
X8602353Y-45055298D01*
X8602353Y-45055300D01*
X8599500Y-45085730D01*
X8599500Y-46394269D01*
X500500Y-46394269D01*
X500500Y-32977063D01*
X520185Y-32910024D01*
X572989Y-32864269D01*
X642147Y-32854325D01*
X705703Y-32883350D01*
X715399Y-32892723D01*
X733444Y-32912172D01*
X740710Y-32917966D01*
X740189Y-32918619D01*
X752430Y-32928012D01*
X13205152Y-45380733D01*
X13214417Y-45391100D01*
X13236643Y-45418970D01*
X13236645Y-45418972D01*
X13283885Y-45451180D01*
X13287663Y-45453860D01*
X13333640Y-45487793D01*
X13341176Y-45491776D01*
X13348841Y-45495467D01*
X13348849Y-45495472D01*
X13373710Y-45503140D01*
X13403502Y-45512330D01*
X13407893Y-45513774D01*
X13461823Y-45532646D01*
X13461827Y-45532646D01*
X13470220Y-45534234D01*
X13478617Y-45535500D01*
X13478620Y-45535500D01*
X13535767Y-45535500D01*
X13540405Y-45535587D01*
X13597531Y-45537725D01*
X13597531Y-45537724D01*
X13597532Y-45537725D01*
X13597532Y-45537724D01*
X13606764Y-45536685D01*
X13606857Y-45537513D01*
X13622161Y-45535500D01*
X19427273Y-45535500D01*
X19466004Y-45543926D01*
X19466437Y-45542455D01*
X19613036Y-45585499D01*
X19613038Y-45585500D01*
X19613039Y-45585500D01*
X19756962Y-45585500D01*
X19756962Y-45585499D01*
X19895053Y-45544953D01*
X20016128Y-45467143D01*
X20110377Y-45358373D01*
X20170165Y-45227457D01*
X20190647Y-45085000D01*
X20170165Y-44942543D01*
X20110377Y-44811627D01*
X20016128Y-44702857D01*
X19895053Y-44625047D01*
X19895051Y-44625046D01*
X19895049Y-44625045D01*
X19895050Y-44625045D01*
X19756963Y-44584500D01*
X19756961Y-44584500D01*
X19613039Y-44584500D01*
X19613036Y-44584500D01*
X19466437Y-44627545D01*
X19466004Y-44626073D01*
X19427273Y-44634500D01*
X13784488Y-44634500D01*
X13717449Y-44614815D01*
X13696807Y-44598181D01*
X9710807Y-40612181D01*
X9677322Y-40550858D01*
X9682306Y-40481166D01*
X9724178Y-40425233D01*
X9789642Y-40400816D01*
X9798488Y-40400500D01*
X10001605Y-40400500D01*
X10001608Y-40400500D01*
X10155934Y-40385300D01*
X10353954Y-40325232D01*
X10536450Y-40227685D01*
X10696410Y-40096410D01*
X10827685Y-39936450D01*
X10925232Y-39753954D01*
X10985300Y-39555934D01*
X11005583Y-39350000D01*
X10985300Y-39144066D01*
X10925232Y-38946046D01*
X10827685Y-38763550D01*
X10775702Y-38700209D01*
X10696410Y-38603589D01*
X10536452Y-38472317D01*
X10536453Y-38472317D01*
X10536450Y-38472315D01*
X10353954Y-38374768D01*
X10155934Y-38314700D01*
X10155932Y-38314699D01*
X10155934Y-38314699D01*
X10036805Y-38302966D01*
X10001608Y-38299500D01*
X9598392Y-38299500D01*
X9560298Y-38303251D01*
X9444067Y-38314699D01*
X9246043Y-38374769D01*
X9195965Y-38401537D01*
X9063550Y-38472315D01*
X9063548Y-38472316D01*
X9063547Y-38472317D01*
X8903589Y-38603589D01*
X8795745Y-38735000D01*
X8772315Y-38763550D01*
X8744979Y-38814691D01*
X8674769Y-38946043D01*
X8614699Y-39144067D01*
X8607043Y-39221806D01*
X8580882Y-39286593D01*
X8523847Y-39326952D01*
X8454047Y-39330069D01*
X8395959Y-39297333D01*
X1504319Y-32405693D01*
X1470834Y-32344370D01*
X1468000Y-32318012D01*
X1468000Y-28914741D01*
X1487685Y-28847702D01*
X1540489Y-28801947D01*
X1609647Y-28792003D01*
X1632144Y-28797503D01*
X1632800Y-28797646D01*
X1663230Y-28800500D01*
X1663234Y-28800500D01*
X2671770Y-28800500D01*
X2702199Y-28797646D01*
X2702201Y-28797646D01*
X2766290Y-28775219D01*
X2830382Y-28752793D01*
X2939650Y-28672150D01*
X3020293Y-28562882D01*
X3048494Y-28482289D01*
X3065551Y-28433544D01*
X3106273Y-28376769D01*
X3171226Y-28351022D01*
X3182592Y-28350500D01*
X3322695Y-28350500D01*
X3389734Y-28370185D01*
X3410376Y-28386819D01*
X4529291Y-29505733D01*
X4538556Y-29516100D01*
X4560782Y-29543970D01*
X4560784Y-29543972D01*
X4608024Y-29576180D01*
X4611806Y-29578863D01*
X4657779Y-29612793D01*
X4665315Y-29616776D01*
X4672980Y-29620467D01*
X4672988Y-29620472D01*
X4697849Y-29628140D01*
X4727641Y-29637330D01*
X4732032Y-29638774D01*
X4785962Y-29657646D01*
X4785966Y-29657646D01*
X4794359Y-29659234D01*
X4802756Y-29660500D01*
X4802759Y-29660500D01*
X4859906Y-29660500D01*
X4864544Y-29660587D01*
X4921670Y-29662725D01*
X4921670Y-29662724D01*
X4921671Y-29662725D01*
X4921671Y-29662724D01*
X4930903Y-29661685D01*
X4930996Y-29662513D01*
X4946300Y-29660500D01*
X5039509Y-29660500D01*
X5106548Y-29680185D01*
X5127190Y-29696819D01*
X14461105Y-39030733D01*
X14470370Y-39041100D01*
X14492596Y-39068970D01*
X14492598Y-39068972D01*
X14539838Y-39101180D01*
X14543616Y-39103860D01*
X14589593Y-39137793D01*
X14597129Y-39141776D01*
X14604794Y-39145467D01*
X14604802Y-39145472D01*
X14629663Y-39153140D01*
X14659455Y-39162330D01*
X14663846Y-39163774D01*
X14717776Y-39182646D01*
X14717780Y-39182646D01*
X14726154Y-39184230D01*
X14734571Y-39185499D01*
X14734573Y-39185500D01*
X14791737Y-39185500D01*
X14796373Y-39185586D01*
X14853485Y-39187724D01*
X14862719Y-39186684D01*
X14862812Y-39187513D01*
X14878111Y-39185500D01*
X34667273Y-39185500D01*
X34706004Y-39193926D01*
X34706437Y-39192455D01*
X34853036Y-39235499D01*
X34853038Y-39235500D01*
X34853039Y-39235500D01*
X34996962Y-39235500D01*
X34996962Y-39235499D01*
X35135053Y-39194953D01*
X35256128Y-39117143D01*
X35350377Y-39008373D01*
X35410165Y-38877457D01*
X35430647Y-38735000D01*
X35410165Y-38592543D01*
X35350377Y-38461627D01*
X35256128Y-38352857D01*
X35135053Y-38275047D01*
X35135051Y-38275046D01*
X35135049Y-38275045D01*
X35135050Y-38275045D01*
X34996963Y-38234500D01*
X34996961Y-38234500D01*
X34853039Y-38234500D01*
X34853036Y-38234500D01*
X34706437Y-38277545D01*
X34706004Y-38276073D01*
X34667273Y-38284500D01*
X15040440Y-38284500D01*
X14973401Y-38264815D01*
X14952759Y-38248181D01*
X14804578Y-38100000D01*
X51064659Y-38100000D01*
X51083975Y-38296129D01*
X51083976Y-38296132D01*
X51137421Y-38472317D01*
X51141188Y-38484733D01*
X51234086Y-38658532D01*
X51234090Y-38658539D01*
X51359116Y-38810883D01*
X51511460Y-38935909D01*
X51511467Y-38935913D01*
X51685266Y-39028811D01*
X51685269Y-39028811D01*
X51685273Y-39028814D01*
X51873868Y-39086024D01*
X52070000Y-39105341D01*
X52266132Y-39086024D01*
X52454727Y-39028814D01*
X52492970Y-39008373D01*
X52609575Y-38946046D01*
X52628538Y-38935910D01*
X52780883Y-38810883D01*
X52905910Y-38658538D01*
X52998814Y-38484727D01*
X53056024Y-38296132D01*
X53075341Y-38100000D01*
X53056024Y-37903868D01*
X52998814Y-37715273D01*
X52998811Y-37715269D01*
X52998811Y-37715266D01*
X52905913Y-37541467D01*
X52905909Y-37541460D01*
X52780883Y-37389116D01*
X52628539Y-37264090D01*
X52628532Y-37264086D01*
X52454733Y-37171188D01*
X52454727Y-37171186D01*
X52266132Y-37113976D01*
X52266129Y-37113975D01*
X52070000Y-37094659D01*
X51873870Y-37113975D01*
X51685266Y-37171188D01*
X51511467Y-37264086D01*
X51511460Y-37264090D01*
X51359116Y-37389116D01*
X51234090Y-37541460D01*
X51234086Y-37541467D01*
X51141188Y-37715266D01*
X51083975Y-37903870D01*
X51064659Y-38100000D01*
X14804578Y-38100000D01*
X9220821Y-32516243D01*
X28664500Y-32516243D01*
X28705382Y-32734940D01*
X28776287Y-32917966D01*
X28785752Y-32942398D01*
X28785754Y-32942404D01*
X28902874Y-33131560D01*
X28902876Y-33131562D01*
X29052761Y-33295979D01*
X29230308Y-33430056D01*
X29230316Y-33430061D01*
X29429461Y-33529224D01*
X29429465Y-33529225D01*
X29429472Y-33529229D01*
X29643464Y-33590115D01*
X29809497Y-33605500D01*
X32208281Y-33605500D01*
X32214007Y-33605632D01*
X32294557Y-33609356D01*
X32374462Y-33598209D01*
X32380070Y-33597559D01*
X32460412Y-33590115D01*
X32478987Y-33584829D01*
X32495782Y-33581285D01*
X32514909Y-33578618D01*
X32591378Y-33552987D01*
X32596787Y-33551312D01*
X32674404Y-33529229D01*
X32691684Y-33520624D01*
X32707551Y-33514051D01*
X32725861Y-33507915D01*
X32796324Y-33468666D01*
X32801368Y-33466008D01*
X32873557Y-33430062D01*
X32873557Y-33430061D01*
X32873565Y-33430058D01*
X32888978Y-33418417D01*
X32903352Y-33409051D01*
X32920229Y-33399652D01*
X32982301Y-33348106D01*
X32986739Y-33344591D01*
X33051112Y-33295981D01*
X33105452Y-33236371D01*
X33109386Y-33232251D01*
X33161637Y-33180000D01*
X44714659Y-33180000D01*
X44733975Y-33376129D01*
X44733976Y-33376132D01*
X44787627Y-33552996D01*
X44791188Y-33564733D01*
X44884086Y-33738532D01*
X44884090Y-33738539D01*
X45009116Y-33890883D01*
X45161460Y-34015909D01*
X45161467Y-34015913D01*
X45335266Y-34108811D01*
X45335269Y-34108811D01*
X45335273Y-34108814D01*
X45523868Y-34166024D01*
X45720000Y-34185341D01*
X45916132Y-34166024D01*
X46104727Y-34108814D01*
X46110099Y-34105943D01*
X46278532Y-34015913D01*
X46278538Y-34015910D01*
X46430883Y-33890883D01*
X46555910Y-33738538D01*
X46639965Y-33581282D01*
X46648811Y-33564733D01*
X46648811Y-33564732D01*
X46648814Y-33564727D01*
X46706024Y-33376132D01*
X46725341Y-33180000D01*
X46706024Y-32983868D01*
X46648814Y-32795273D01*
X46648811Y-32795269D01*
X46648811Y-32795266D01*
X46555913Y-32621467D01*
X46555909Y-32621460D01*
X46430883Y-32469116D01*
X46278539Y-32344090D01*
X46278532Y-32344086D01*
X46104733Y-32251188D01*
X46104727Y-32251186D01*
X45960688Y-32207492D01*
X45916129Y-32193975D01*
X45720000Y-32174659D01*
X45523870Y-32193975D01*
X45335266Y-32251188D01*
X45161467Y-32344086D01*
X45161460Y-32344090D01*
X45009116Y-32469116D01*
X44884090Y-32621460D01*
X44884086Y-32621467D01*
X44791188Y-32795266D01*
X44733975Y-32983870D01*
X44714659Y-33180000D01*
X33161637Y-33180000D01*
X36021637Y-30320000D01*
X44714659Y-30320000D01*
X44733975Y-30516129D01*
X44791188Y-30704733D01*
X44884086Y-30878532D01*
X44884090Y-30878539D01*
X45009116Y-31030883D01*
X45161460Y-31155909D01*
X45161467Y-31155913D01*
X45335266Y-31248811D01*
X45335269Y-31248811D01*
X45335273Y-31248814D01*
X45523868Y-31306024D01*
X45720000Y-31325341D01*
X45916132Y-31306024D01*
X46104727Y-31248814D01*
X46150068Y-31224579D01*
X46212029Y-31191460D01*
X46278538Y-31155910D01*
X46430883Y-31030883D01*
X46555910Y-30878538D01*
X46648814Y-30704727D01*
X46706024Y-30516132D01*
X46725341Y-30320000D01*
X46706024Y-30123868D01*
X46648814Y-29935273D01*
X46648811Y-29935269D01*
X46648811Y-29935266D01*
X46555913Y-29761467D01*
X46555909Y-29761460D01*
X46430883Y-29609116D01*
X46278539Y-29484090D01*
X46278532Y-29484086D01*
X46104733Y-29391188D01*
X46104727Y-29391186D01*
X45978997Y-29353046D01*
X45916129Y-29333975D01*
X45720000Y-29314659D01*
X45523870Y-29333975D01*
X45335266Y-29391188D01*
X45161467Y-29484086D01*
X45161460Y-29484090D01*
X45009116Y-29609116D01*
X44884090Y-29761460D01*
X44884086Y-29761467D01*
X44791188Y-29935266D01*
X44733975Y-30123870D01*
X44714659Y-30320000D01*
X36021637Y-30320000D01*
X39562251Y-26779386D01*
X39566373Y-26775451D01*
X39625981Y-26721112D01*
X39674591Y-26656739D01*
X39678099Y-26652310D01*
X39729653Y-26590229D01*
X39739050Y-26573356D01*
X39748422Y-26558971D01*
X39760058Y-26543565D01*
X39796001Y-26471379D01*
X39798652Y-26466348D01*
X39837915Y-26395861D01*
X39844051Y-26377551D01*
X39850624Y-26361684D01*
X39859227Y-26344408D01*
X39859226Y-26344408D01*
X39859229Y-26344404D01*
X39881310Y-26266796D01*
X39882977Y-26261412D01*
X39908619Y-26184908D01*
X39911285Y-26165791D01*
X39914831Y-26148981D01*
X39920115Y-26130412D01*
X39927557Y-26050091D01*
X39928207Y-26044483D01*
X39939357Y-25964557D01*
X39935632Y-25883982D01*
X39935500Y-25878257D01*
X39935500Y-25400000D01*
X51064659Y-25400000D01*
X51083975Y-25596129D01*
X51141188Y-25784733D01*
X51234086Y-25958532D01*
X51234090Y-25958539D01*
X51359116Y-26110883D01*
X51511460Y-26235909D01*
X51511467Y-26235913D01*
X51685266Y-26328811D01*
X51685269Y-26328811D01*
X51685273Y-26328814D01*
X51873868Y-26386024D01*
X52070000Y-26405341D01*
X52266132Y-26386024D01*
X52454727Y-26328814D01*
X52628538Y-26235910D01*
X52780883Y-26110883D01*
X52905910Y-25958538D01*
X52998814Y-25784727D01*
X53056024Y-25596132D01*
X53075341Y-25400000D01*
X54874659Y-25400000D01*
X54893975Y-25596129D01*
X54951188Y-25784733D01*
X55044086Y-25958532D01*
X55044090Y-25958539D01*
X55169116Y-26110883D01*
X55321460Y-26235909D01*
X55321467Y-26235913D01*
X55495266Y-26328811D01*
X55495269Y-26328811D01*
X55495273Y-26328814D01*
X55683868Y-26386024D01*
X55880000Y-26405341D01*
X56076132Y-26386024D01*
X56264727Y-26328814D01*
X56438538Y-26235910D01*
X56590883Y-26110883D01*
X56715910Y-25958538D01*
X56808814Y-25784727D01*
X56866024Y-25596132D01*
X56885341Y-25400000D01*
X58684659Y-25400000D01*
X58703975Y-25596129D01*
X58761188Y-25784733D01*
X58854086Y-25958532D01*
X58854090Y-25958539D01*
X58979116Y-26110883D01*
X59131460Y-26235909D01*
X59131467Y-26235913D01*
X59305266Y-26328811D01*
X59305269Y-26328811D01*
X59305273Y-26328814D01*
X59493868Y-26386024D01*
X59690000Y-26405341D01*
X59886132Y-26386024D01*
X60074727Y-26328814D01*
X60248538Y-26235910D01*
X60400883Y-26110883D01*
X60525910Y-25958538D01*
X60618814Y-25784727D01*
X60676024Y-25596132D01*
X60695341Y-25400000D01*
X60676024Y-25203868D01*
X60618814Y-25015273D01*
X60618811Y-25015269D01*
X60618811Y-25015266D01*
X60525913Y-24841467D01*
X60525909Y-24841460D01*
X60400883Y-24689116D01*
X60248539Y-24564090D01*
X60248532Y-24564086D01*
X60074733Y-24471188D01*
X60074727Y-24471186D01*
X59892910Y-24416032D01*
X59886129Y-24413975D01*
X59690000Y-24394659D01*
X59493870Y-24413975D01*
X59305266Y-24471188D01*
X59131467Y-24564086D01*
X59131460Y-24564090D01*
X58979116Y-24689116D01*
X58854090Y-24841460D01*
X58854086Y-24841467D01*
X58761188Y-25015266D01*
X58703975Y-25203870D01*
X58684659Y-25400000D01*
X56885341Y-25400000D01*
X56866024Y-25203868D01*
X56808814Y-25015273D01*
X56808811Y-25015269D01*
X56808811Y-25015266D01*
X56715913Y-24841467D01*
X56715909Y-24841460D01*
X56590883Y-24689116D01*
X56438539Y-24564090D01*
X56438532Y-24564086D01*
X56264733Y-24471188D01*
X56264727Y-24471186D01*
X56082910Y-24416032D01*
X56076129Y-24413975D01*
X55880000Y-24394659D01*
X55683870Y-24413975D01*
X55495266Y-24471188D01*
X55321467Y-24564086D01*
X55321460Y-24564090D01*
X55169116Y-24689116D01*
X55044090Y-24841460D01*
X55044086Y-24841467D01*
X54951188Y-25015266D01*
X54893975Y-25203870D01*
X54874659Y-25400000D01*
X53075341Y-25400000D01*
X53056024Y-25203868D01*
X52998814Y-25015273D01*
X52998811Y-25015269D01*
X52998811Y-25015266D01*
X52905913Y-24841467D01*
X52905909Y-24841460D01*
X52780883Y-24689116D01*
X52628539Y-24564090D01*
X52628532Y-24564086D01*
X52454733Y-24471188D01*
X52454727Y-24471186D01*
X52272910Y-24416032D01*
X52266129Y-24413975D01*
X52070000Y-24394659D01*
X51873870Y-24413975D01*
X51685266Y-24471188D01*
X51511467Y-24564086D01*
X51511460Y-24564090D01*
X51359116Y-24689116D01*
X51234090Y-24841460D01*
X51234086Y-24841467D01*
X51141188Y-25015266D01*
X51083975Y-25203870D01*
X51064659Y-25400000D01*
X39935500Y-25400000D01*
X39935500Y-23408625D01*
X39955185Y-23341586D01*
X39971819Y-23320944D01*
X41692763Y-21600000D01*
X63774659Y-21600000D01*
X63793975Y-21796129D01*
X63793976Y-21796132D01*
X63849286Y-21978465D01*
X63851188Y-21984733D01*
X63944086Y-22158532D01*
X63944090Y-22158539D01*
X64069116Y-22310883D01*
X64221460Y-22435909D01*
X64221467Y-22435913D01*
X64395266Y-22528811D01*
X64395269Y-22528811D01*
X64395273Y-22528814D01*
X64583868Y-22586024D01*
X64780000Y-22605341D01*
X64976132Y-22586024D01*
X65164727Y-22528814D01*
X65338538Y-22435910D01*
X65490883Y-22310883D01*
X65615910Y-22158538D01*
X65673950Y-22049953D01*
X65708811Y-21984733D01*
X65708811Y-21984732D01*
X65708814Y-21984727D01*
X65766024Y-21796132D01*
X65785341Y-21600000D01*
X65766024Y-21403868D01*
X65708814Y-21215273D01*
X65708811Y-21215269D01*
X65708811Y-21215266D01*
X65615913Y-21041467D01*
X65615909Y-21041460D01*
X65490883Y-20889116D01*
X65338539Y-20764090D01*
X65338532Y-20764086D01*
X65164733Y-20671188D01*
X65164727Y-20671186D01*
X64976132Y-20613976D01*
X64976129Y-20613975D01*
X64780000Y-20594659D01*
X64583870Y-20613975D01*
X64395266Y-20671188D01*
X64221467Y-20764086D01*
X64221460Y-20764090D01*
X64069116Y-20889116D01*
X63944090Y-21041460D01*
X63944086Y-21041467D01*
X63851188Y-21215266D01*
X63793975Y-21403870D01*
X63774659Y-21600000D01*
X41692763Y-21600000D01*
X48052763Y-15240000D01*
X51064659Y-15240000D01*
X51083975Y-15436129D01*
X51083976Y-15436132D01*
X51127746Y-15580423D01*
X51141188Y-15624733D01*
X51234086Y-15798532D01*
X51234090Y-15798539D01*
X51359116Y-15950883D01*
X51511460Y-16075909D01*
X51511467Y-16075913D01*
X51685266Y-16168811D01*
X51685269Y-16168811D01*
X51685273Y-16168814D01*
X51873868Y-16226024D01*
X52070000Y-16245341D01*
X52266132Y-16226024D01*
X52454727Y-16168814D01*
X52628538Y-16075910D01*
X52780883Y-15950883D01*
X52905910Y-15798538D01*
X52996520Y-15629019D01*
X52998811Y-15624733D01*
X52998811Y-15624732D01*
X52998814Y-15624727D01*
X53056024Y-15436132D01*
X53075341Y-15240000D01*
X53056024Y-15043868D01*
X52998814Y-14855273D01*
X52998811Y-14855269D01*
X52998811Y-14855266D01*
X52905913Y-14681467D01*
X52905909Y-14681460D01*
X52780883Y-14529116D01*
X52628539Y-14404090D01*
X52628532Y-14404086D01*
X52454733Y-14311188D01*
X52454727Y-14311186D01*
X52266132Y-14253976D01*
X52266129Y-14253975D01*
X52070000Y-14234659D01*
X51873870Y-14253975D01*
X51685266Y-14311188D01*
X51511467Y-14404086D01*
X51511460Y-14404090D01*
X51359116Y-14529116D01*
X51234090Y-14681460D01*
X51234086Y-14681467D01*
X51141188Y-14855266D01*
X51083975Y-15043870D01*
X51064659Y-15240000D01*
X48052763Y-15240000D01*
X51895944Y-11396819D01*
X51957267Y-11363334D01*
X51983625Y-11360500D01*
X65491375Y-11360500D01*
X65558414Y-11380185D01*
X65579056Y-11396819D01*
X71529477Y-17347240D01*
X71533433Y-17351383D01*
X71587761Y-17410979D01*
X71652113Y-17459574D01*
X71656604Y-17463132D01*
X71718642Y-17514648D01*
X71718647Y-17514652D01*
X71735522Y-17524051D01*
X71749901Y-17533421D01*
X71765309Y-17545057D01*
X71765310Y-17545057D01*
X71765311Y-17545058D01*
X71837518Y-17581012D01*
X71842543Y-17583662D01*
X71913012Y-17622914D01*
X71931323Y-17629051D01*
X71947187Y-17635622D01*
X71964472Y-17644229D01*
X72042086Y-17666311D01*
X72047495Y-17667987D01*
X72123967Y-17693618D01*
X72143078Y-17696283D01*
X72159878Y-17699826D01*
X72178464Y-17705115D01*
X72258799Y-17712558D01*
X72264422Y-17713210D01*
X72344319Y-17724356D01*
X72424869Y-17720632D01*
X72430595Y-17720500D01*
X72982745Y-17720500D01*
X73049784Y-17740185D01*
X73070426Y-17756819D01*
X73163181Y-17849574D01*
X73196666Y-17910897D01*
X73199500Y-17937255D01*
X73199500Y-18159666D01*
X73179815Y-18226705D01*
X73127011Y-18272460D01*
X73057853Y-18282404D01*
X72996835Y-18255519D01*
X72958539Y-18224091D01*
X72958532Y-18224086D01*
X72784733Y-18131188D01*
X72784727Y-18131186D01*
X72658997Y-18093046D01*
X72596129Y-18073975D01*
X72400000Y-18054659D01*
X72203870Y-18073975D01*
X72015266Y-18131188D01*
X71841467Y-18224086D01*
X71841460Y-18224090D01*
X71689116Y-18349116D01*
X71564090Y-18501460D01*
X71564086Y-18501467D01*
X71471188Y-18675266D01*
X71413975Y-18863870D01*
X71394659Y-19060000D01*
X71413975Y-19256129D01*
X71471188Y-19444733D01*
X71564086Y-19618532D01*
X71564090Y-19618539D01*
X71689116Y-19770883D01*
X71841460Y-19895909D01*
X71841467Y-19895913D01*
X72015266Y-19988811D01*
X72015269Y-19988811D01*
X72015273Y-19988814D01*
X72203868Y-20046024D01*
X72400000Y-20065341D01*
X72596132Y-20046024D01*
X72784727Y-19988814D01*
X72958538Y-19895910D01*
X72996834Y-19864480D01*
X73061144Y-19837167D01*
X73130011Y-19848957D01*
X73181572Y-19896109D01*
X73199500Y-19960333D01*
X73199500Y-20699666D01*
X73179815Y-20766705D01*
X73127011Y-20812460D01*
X73057853Y-20822404D01*
X72996835Y-20795519D01*
X72958539Y-20764091D01*
X72958532Y-20764086D01*
X72784733Y-20671188D01*
X72784727Y-20671186D01*
X72596132Y-20613976D01*
X72596129Y-20613975D01*
X72400000Y-20594659D01*
X72203870Y-20613975D01*
X72015266Y-20671188D01*
X71841467Y-20764086D01*
X71841460Y-20764090D01*
X71689116Y-20889116D01*
X71564090Y-21041460D01*
X71564086Y-21041467D01*
X71471188Y-21215266D01*
X71413975Y-21403870D01*
X71394659Y-21600000D01*
X71413975Y-21796130D01*
X71430161Y-21849486D01*
X71430784Y-21919353D01*
X71393536Y-21978465D01*
X71330242Y-22008056D01*
X71260997Y-21998731D01*
X71223819Y-21973162D01*
X65816819Y-16566162D01*
X65783334Y-16504839D01*
X65780500Y-16478481D01*
X65780500Y-15700249D01*
X65780499Y-15700247D01*
X65768868Y-15641770D01*
X65768867Y-15641769D01*
X65724552Y-15575447D01*
X65658230Y-15531132D01*
X65658229Y-15531131D01*
X65599752Y-15519500D01*
X65599748Y-15519500D01*
X63960252Y-15519500D01*
X63960247Y-15519500D01*
X63901770Y-15531131D01*
X63901769Y-15531132D01*
X63835447Y-15575447D01*
X63791132Y-15641769D01*
X63791131Y-15641770D01*
X63779500Y-15700247D01*
X63779500Y-17339752D01*
X63791131Y-17398229D01*
X63791132Y-17398230D01*
X63835447Y-17464552D01*
X63901769Y-17508867D01*
X63901770Y-17508868D01*
X63960247Y-17520499D01*
X63960250Y-17520500D01*
X63960252Y-17520500D01*
X64738481Y-17520500D01*
X64805520Y-17540185D01*
X64826162Y-17556819D01*
X65153162Y-17883819D01*
X65186647Y-17945142D01*
X65181663Y-18014834D01*
X65139791Y-18070767D01*
X65074327Y-18095184D01*
X65029486Y-18090161D01*
X64976130Y-18073975D01*
X64780000Y-18054659D01*
X64583870Y-18073975D01*
X64395266Y-18131188D01*
X64221467Y-18224086D01*
X64221460Y-18224090D01*
X64069116Y-18349116D01*
X63944090Y-18501460D01*
X63944086Y-18501467D01*
X63851188Y-18675266D01*
X63793975Y-18863870D01*
X63774659Y-19060000D01*
X63793975Y-19256129D01*
X63851188Y-19444733D01*
X63944086Y-19618532D01*
X63944090Y-19618539D01*
X64069116Y-19770883D01*
X64221460Y-19895909D01*
X64221467Y-19895913D01*
X64395266Y-19988811D01*
X64395269Y-19988811D01*
X64395273Y-19988814D01*
X64583868Y-20046024D01*
X64780000Y-20065341D01*
X64976132Y-20046024D01*
X65164727Y-19988814D01*
X65338538Y-19895910D01*
X65490883Y-19770883D01*
X65615910Y-19618538D01*
X65708814Y-19444727D01*
X65766024Y-19256132D01*
X65785341Y-19060000D01*
X65766024Y-18863868D01*
X65749838Y-18810513D01*
X65749214Y-18740648D01*
X65786462Y-18681534D01*
X65849756Y-18651943D01*
X65919000Y-18661268D01*
X65956180Y-18686837D01*
X71361681Y-24092338D01*
X71395166Y-24153661D01*
X71397403Y-24167865D01*
X71413975Y-24336129D01*
X71413976Y-24336132D01*
X71454944Y-24471186D01*
X71471188Y-24524733D01*
X71564086Y-24698532D01*
X71564090Y-24698539D01*
X71689116Y-24850883D01*
X71841460Y-24975909D01*
X71841467Y-24975913D01*
X72015266Y-25068811D01*
X72015269Y-25068811D01*
X72015273Y-25068814D01*
X72203868Y-25126024D01*
X72400000Y-25145341D01*
X72596132Y-25126024D01*
X72784727Y-25068814D01*
X72860217Y-25028464D01*
X72884908Y-25015266D01*
X72958538Y-24975910D01*
X72996834Y-24944480D01*
X73061144Y-24917167D01*
X73130011Y-24928957D01*
X73181572Y-24976109D01*
X73199500Y-25040333D01*
X73199500Y-29401686D01*
X73179815Y-29468725D01*
X73140777Y-29507113D01*
X72993960Y-29598017D01*
X72993958Y-29598019D01*
X72843237Y-29735418D01*
X72720327Y-29898178D01*
X72629422Y-30080739D01*
X72629417Y-30080752D01*
X72573602Y-30276917D01*
X72554785Y-30479999D01*
X72554785Y-30480000D01*
X72573602Y-30683082D01*
X72629417Y-30879247D01*
X72629422Y-30879260D01*
X72704922Y-31030883D01*
X72720327Y-31061821D01*
X72843236Y-31224579D01*
X72869817Y-31248811D01*
X72893433Y-31270339D01*
X72929715Y-31330050D01*
X72927955Y-31399897D01*
X72897577Y-31449658D01*
X71572756Y-32774479D01*
X71568614Y-32778434D01*
X71509022Y-32832760D01*
X71460427Y-32897109D01*
X71456873Y-32901596D01*
X71405350Y-32963644D01*
X71405344Y-32963652D01*
X71395951Y-32980517D01*
X71386579Y-32994900D01*
X71374943Y-33010309D01*
X71338988Y-33082512D01*
X71336319Y-33087575D01*
X71297083Y-33158017D01*
X71290947Y-33176325D01*
X71284379Y-33192183D01*
X71275773Y-33209466D01*
X71275771Y-33209470D01*
X71275771Y-33209472D01*
X71256174Y-33278345D01*
X71253698Y-33287048D01*
X71252004Y-33292517D01*
X71226382Y-33368962D01*
X71226380Y-33368973D01*
X71223713Y-33388089D01*
X71220171Y-33404881D01*
X71214885Y-33423459D01*
X71214885Y-33423462D01*
X71207442Y-33503779D01*
X71206782Y-33509466D01*
X71195644Y-33589314D01*
X71195644Y-33589317D01*
X71195644Y-33589319D01*
X71199259Y-33667516D01*
X71199368Y-33669869D01*
X71199500Y-33675595D01*
X71199500Y-39435499D01*
X71214884Y-39601535D01*
X71214885Y-39601537D01*
X71275769Y-39815523D01*
X71275775Y-39815538D01*
X71374938Y-40014683D01*
X71374943Y-40014691D01*
X71509020Y-40192238D01*
X71673437Y-40342123D01*
X71673439Y-40342125D01*
X71862595Y-40459245D01*
X71862596Y-40459245D01*
X71862599Y-40459247D01*
X72070060Y-40539618D01*
X72288757Y-40580500D01*
X72288759Y-40580500D01*
X72511241Y-40580500D01*
X72511243Y-40580500D01*
X72729940Y-40539618D01*
X72937401Y-40459247D01*
X73126562Y-40342124D01*
X73290981Y-40192236D01*
X73425058Y-40014689D01*
X73524229Y-39815528D01*
X73585115Y-39601536D01*
X73600500Y-39435503D01*
X73600500Y-38100000D01*
X76464659Y-38100000D01*
X76483975Y-38296129D01*
X76483976Y-38296132D01*
X76537421Y-38472317D01*
X76541188Y-38484733D01*
X76634086Y-38658532D01*
X76634090Y-38658539D01*
X76759116Y-38810883D01*
X76911460Y-38935909D01*
X76911467Y-38935913D01*
X77085266Y-39028811D01*
X77085269Y-39028811D01*
X77085273Y-39028814D01*
X77273868Y-39086024D01*
X77470000Y-39105341D01*
X77666132Y-39086024D01*
X77854727Y-39028814D01*
X77892970Y-39008373D01*
X78009575Y-38946046D01*
X78028538Y-38935910D01*
X78180883Y-38810883D01*
X78305910Y-38658538D01*
X78398814Y-38484727D01*
X78456024Y-38296132D01*
X78475341Y-38100000D01*
X80274659Y-38100000D01*
X80293975Y-38296129D01*
X80293976Y-38296132D01*
X80347421Y-38472317D01*
X80351188Y-38484733D01*
X80444086Y-38658532D01*
X80444090Y-38658539D01*
X80569116Y-38810883D01*
X80721460Y-38935909D01*
X80721467Y-38935913D01*
X80895266Y-39028811D01*
X80895269Y-39028811D01*
X80895273Y-39028814D01*
X81083868Y-39086024D01*
X81280000Y-39105341D01*
X81476132Y-39086024D01*
X81664727Y-39028814D01*
X81702970Y-39008373D01*
X81819575Y-38946046D01*
X81838538Y-38935910D01*
X81990883Y-38810883D01*
X82115910Y-38658538D01*
X82208814Y-38484727D01*
X82266024Y-38296132D01*
X82285341Y-38100000D01*
X84084659Y-38100000D01*
X84103975Y-38296129D01*
X84103976Y-38296132D01*
X84157421Y-38472317D01*
X84161188Y-38484733D01*
X84254086Y-38658532D01*
X84254090Y-38658539D01*
X84379116Y-38810883D01*
X84531460Y-38935909D01*
X84531467Y-38935913D01*
X84705266Y-39028811D01*
X84705269Y-39028811D01*
X84705273Y-39028814D01*
X84893868Y-39086024D01*
X85090000Y-39105341D01*
X85286132Y-39086024D01*
X85474727Y-39028814D01*
X85512970Y-39008373D01*
X85629575Y-38946046D01*
X85648538Y-38935910D01*
X85800883Y-38810883D01*
X85925910Y-38658538D01*
X86018814Y-38484727D01*
X86076024Y-38296132D01*
X86087462Y-38180000D01*
X88964357Y-38180000D01*
X88984884Y-38401535D01*
X88984885Y-38401537D01*
X89045769Y-38615523D01*
X89045775Y-38615538D01*
X89144938Y-38814683D01*
X89144943Y-38814691D01*
X89279020Y-38992238D01*
X89443437Y-39142123D01*
X89443439Y-39142125D01*
X89632595Y-39259245D01*
X89632596Y-39259245D01*
X89632599Y-39259247D01*
X89840060Y-39339618D01*
X90058757Y-39380500D01*
X90058759Y-39380500D01*
X90281241Y-39380500D01*
X90281243Y-39380500D01*
X90499940Y-39339618D01*
X90707401Y-39259247D01*
X90896562Y-39142124D01*
X91060981Y-38992236D01*
X91195058Y-38814689D01*
X91294229Y-38615528D01*
X91355115Y-38401536D01*
X91375643Y-38180000D01*
X91355115Y-37958464D01*
X91294229Y-37744472D01*
X91279690Y-37715273D01*
X91195061Y-37545316D01*
X91195056Y-37545308D01*
X91060979Y-37367761D01*
X90896562Y-37217876D01*
X90896560Y-37217874D01*
X90707404Y-37100754D01*
X90707398Y-37100752D01*
X90499940Y-37020382D01*
X90281243Y-36979500D01*
X90058757Y-36979500D01*
X89840060Y-37020382D01*
X89708864Y-37071207D01*
X89632601Y-37100752D01*
X89632595Y-37100754D01*
X89443439Y-37217874D01*
X89443437Y-37217876D01*
X89279020Y-37367761D01*
X89144943Y-37545308D01*
X89144938Y-37545316D01*
X89045775Y-37744461D01*
X89045769Y-37744476D01*
X88984885Y-37958462D01*
X88984884Y-37958464D01*
X88964357Y-38179999D01*
X88964357Y-38180000D01*
X86087462Y-38180000D01*
X86095341Y-38100000D01*
X86076024Y-37903868D01*
X86018814Y-37715273D01*
X86018811Y-37715269D01*
X86018811Y-37715266D01*
X85925913Y-37541467D01*
X85925909Y-37541460D01*
X85800883Y-37389116D01*
X85648539Y-37264090D01*
X85648532Y-37264086D01*
X85474733Y-37171188D01*
X85474727Y-37171186D01*
X85286132Y-37113976D01*
X85286129Y-37113975D01*
X85090000Y-37094659D01*
X84893870Y-37113975D01*
X84705266Y-37171188D01*
X84531467Y-37264086D01*
X84531460Y-37264090D01*
X84379116Y-37389116D01*
X84254090Y-37541460D01*
X84254086Y-37541467D01*
X84161188Y-37715266D01*
X84103975Y-37903870D01*
X84084659Y-38100000D01*
X82285341Y-38100000D01*
X82266024Y-37903868D01*
X82208814Y-37715273D01*
X82208811Y-37715269D01*
X82208811Y-37715266D01*
X82115913Y-37541467D01*
X82115909Y-37541460D01*
X81990883Y-37389116D01*
X81838539Y-37264090D01*
X81838532Y-37264086D01*
X81664733Y-37171188D01*
X81664727Y-37171186D01*
X81476132Y-37113976D01*
X81476129Y-37113975D01*
X81280000Y-37094659D01*
X81083870Y-37113975D01*
X80895266Y-37171188D01*
X80721467Y-37264086D01*
X80721460Y-37264090D01*
X80569116Y-37389116D01*
X80444090Y-37541460D01*
X80444086Y-37541467D01*
X80351188Y-37715266D01*
X80293975Y-37903870D01*
X80274659Y-38100000D01*
X78475341Y-38100000D01*
X78456024Y-37903868D01*
X78398814Y-37715273D01*
X78398811Y-37715269D01*
X78398811Y-37715266D01*
X78305913Y-37541467D01*
X78305909Y-37541460D01*
X78180883Y-37389116D01*
X78028539Y-37264090D01*
X78028532Y-37264086D01*
X77854733Y-37171188D01*
X77854727Y-37171186D01*
X77666132Y-37113976D01*
X77666129Y-37113975D01*
X77470000Y-37094659D01*
X77273870Y-37113975D01*
X77085266Y-37171188D01*
X76911467Y-37264086D01*
X76911460Y-37264090D01*
X76759116Y-37389116D01*
X76634090Y-37541460D01*
X76634086Y-37541467D01*
X76541188Y-37715266D01*
X76483975Y-37903870D01*
X76464659Y-38100000D01*
X73600500Y-38100000D01*
X73600500Y-34193624D01*
X73620185Y-34126585D01*
X73636814Y-34105948D01*
X73731163Y-34011599D01*
X73792484Y-33978116D01*
X73862176Y-33983100D01*
X73918109Y-34024972D01*
X73942526Y-34090436D01*
X73942245Y-34111435D01*
X73924659Y-34289999D01*
X73943975Y-34486129D01*
X74001188Y-34674733D01*
X74094086Y-34848532D01*
X74094090Y-34848539D01*
X74219116Y-35000883D01*
X74371460Y-35125909D01*
X74371467Y-35125913D01*
X74545266Y-35218811D01*
X74545269Y-35218811D01*
X74545273Y-35218814D01*
X74733868Y-35276024D01*
X74930000Y-35295341D01*
X75126132Y-35276024D01*
X75314727Y-35218814D01*
X75488538Y-35125910D01*
X75640883Y-35000883D01*
X75765910Y-34848538D01*
X75858814Y-34674727D01*
X75916024Y-34486132D01*
X75935341Y-34290000D01*
X84084659Y-34290000D01*
X84103975Y-34486129D01*
X84161188Y-34674733D01*
X84254086Y-34848532D01*
X84254090Y-34848539D01*
X84379116Y-35000883D01*
X84531460Y-35125909D01*
X84531467Y-35125913D01*
X84705266Y-35218811D01*
X84705269Y-35218811D01*
X84705273Y-35218814D01*
X84893868Y-35276024D01*
X85090000Y-35295341D01*
X85286132Y-35276024D01*
X85474727Y-35218814D01*
X85648538Y-35125910D01*
X85800883Y-35000883D01*
X85925910Y-34848538D01*
X86018814Y-34674727D01*
X86076024Y-34486132D01*
X86095341Y-34290000D01*
X86076024Y-34093868D01*
X86018814Y-33905273D01*
X86018811Y-33905269D01*
X86018811Y-33905266D01*
X85925913Y-33731467D01*
X85925909Y-33731460D01*
X85800883Y-33579116D01*
X85648539Y-33454090D01*
X85648532Y-33454086D01*
X85474733Y-33361188D01*
X85474727Y-33361186D01*
X85286132Y-33303976D01*
X85286129Y-33303975D01*
X85090000Y-33284659D01*
X84893870Y-33303975D01*
X84705266Y-33361188D01*
X84531467Y-33454086D01*
X84531460Y-33454090D01*
X84379116Y-33579116D01*
X84254090Y-33731460D01*
X84254086Y-33731467D01*
X84161188Y-33905266D01*
X84103975Y-34093870D01*
X84084659Y-34290000D01*
X75935341Y-34290000D01*
X75916024Y-34093868D01*
X75858814Y-33905273D01*
X75858811Y-33905269D01*
X75858811Y-33905266D01*
X75765913Y-33731467D01*
X75765909Y-33731460D01*
X75640883Y-33579116D01*
X75488539Y-33454090D01*
X75488532Y-33454086D01*
X75314733Y-33361188D01*
X75314727Y-33361186D01*
X75126132Y-33303976D01*
X75126129Y-33303975D01*
X74930000Y-33284659D01*
X74929999Y-33284659D01*
X74751434Y-33302245D01*
X74682788Y-33289226D01*
X74632078Y-33241161D01*
X74615404Y-33173310D01*
X74638060Y-33107215D01*
X74651592Y-33091169D01*
X75227251Y-32515510D01*
X75231373Y-32511575D01*
X75290981Y-32457236D01*
X75339591Y-32392863D01*
X75343106Y-32388425D01*
X75394652Y-32326353D01*
X75404051Y-32309476D01*
X75413417Y-32295102D01*
X75425058Y-32279689D01*
X75439251Y-32251186D01*
X75461008Y-32207492D01*
X75463666Y-32202448D01*
X75502915Y-32131985D01*
X75509051Y-32113675D01*
X75515624Y-32097808D01*
X75524227Y-32080532D01*
X75524226Y-32080532D01*
X75524229Y-32080528D01*
X75546312Y-32002911D01*
X75547987Y-31997502D01*
X75573618Y-31921033D01*
X75576285Y-31901906D01*
X75579830Y-31885108D01*
X75585115Y-31866536D01*
X75592559Y-31786194D01*
X75593209Y-31780586D01*
X75604356Y-31700681D01*
X75600632Y-31620128D01*
X75600500Y-31614403D01*
X75600500Y-25400000D01*
X76464659Y-25400000D01*
X76483975Y-25596129D01*
X76541188Y-25784733D01*
X76634086Y-25958532D01*
X76634090Y-25958539D01*
X76759116Y-26110883D01*
X76911460Y-26235909D01*
X76911467Y-26235913D01*
X77085266Y-26328811D01*
X77085269Y-26328811D01*
X77085273Y-26328814D01*
X77273868Y-26386024D01*
X77470000Y-26405341D01*
X77666132Y-26386024D01*
X77854727Y-26328814D01*
X78028538Y-26235910D01*
X78180883Y-26110883D01*
X78305910Y-25958538D01*
X78398814Y-25784727D01*
X78456024Y-25596132D01*
X78475341Y-25400000D01*
X80274659Y-25400000D01*
X80293975Y-25596129D01*
X80351188Y-25784733D01*
X80444086Y-25958532D01*
X80444090Y-25958539D01*
X80569116Y-26110883D01*
X80721460Y-26235909D01*
X80721467Y-26235913D01*
X80895266Y-26328811D01*
X80895269Y-26328811D01*
X80895273Y-26328814D01*
X81083868Y-26386024D01*
X81280000Y-26405341D01*
X81476132Y-26386024D01*
X81664727Y-26328814D01*
X81838538Y-26235910D01*
X81990883Y-26110883D01*
X82115910Y-25958538D01*
X82208814Y-25784727D01*
X82266024Y-25596132D01*
X82285341Y-25400000D01*
X84084659Y-25400000D01*
X84103975Y-25596129D01*
X84161188Y-25784733D01*
X84254086Y-25958532D01*
X84254090Y-25958539D01*
X84379116Y-26110883D01*
X84531460Y-26235909D01*
X84531467Y-26235913D01*
X84705266Y-26328811D01*
X84705269Y-26328811D01*
X84705273Y-26328814D01*
X84893868Y-26386024D01*
X85090000Y-26405341D01*
X85286132Y-26386024D01*
X85474727Y-26328814D01*
X85648538Y-26235910D01*
X85800883Y-26110883D01*
X85925910Y-25958538D01*
X86018814Y-25784727D01*
X86076024Y-25596132D01*
X86095341Y-25400000D01*
X86076024Y-25203868D01*
X86018814Y-25015273D01*
X86018811Y-25015269D01*
X86018811Y-25015266D01*
X85925913Y-24841467D01*
X85925909Y-24841460D01*
X85800883Y-24689116D01*
X85648539Y-24564090D01*
X85648532Y-24564086D01*
X85474733Y-24471188D01*
X85474727Y-24471186D01*
X85292910Y-24416032D01*
X85286129Y-24413975D01*
X85090000Y-24394659D01*
X84893870Y-24413975D01*
X84705266Y-24471188D01*
X84531467Y-24564086D01*
X84531460Y-24564090D01*
X84379116Y-24689116D01*
X84254090Y-24841460D01*
X84254086Y-24841467D01*
X84161188Y-25015266D01*
X84103975Y-25203870D01*
X84084659Y-25400000D01*
X82285341Y-25400000D01*
X82266024Y-25203868D01*
X82208814Y-25015273D01*
X82208811Y-25015269D01*
X82208811Y-25015266D01*
X82115913Y-24841467D01*
X82115909Y-24841460D01*
X81990883Y-24689116D01*
X81838539Y-24564090D01*
X81838532Y-24564086D01*
X81664733Y-24471188D01*
X81664727Y-24471186D01*
X81482910Y-24416032D01*
X81476129Y-24413975D01*
X81280000Y-24394659D01*
X81083870Y-24413975D01*
X80895266Y-24471188D01*
X80721467Y-24564086D01*
X80721460Y-24564090D01*
X80569116Y-24689116D01*
X80444090Y-24841460D01*
X80444086Y-24841467D01*
X80351188Y-25015266D01*
X80293975Y-25203870D01*
X80274659Y-25400000D01*
X78475341Y-25400000D01*
X78456024Y-25203868D01*
X78398814Y-25015273D01*
X78398811Y-25015269D01*
X78398811Y-25015266D01*
X78305913Y-24841467D01*
X78305909Y-24841460D01*
X78180883Y-24689116D01*
X78028539Y-24564090D01*
X78028532Y-24564086D01*
X77854733Y-24471188D01*
X77854727Y-24471186D01*
X77672910Y-24416032D01*
X77666129Y-24413975D01*
X77470000Y-24394659D01*
X77273870Y-24413975D01*
X77085266Y-24471188D01*
X76911467Y-24564086D01*
X76911460Y-24564090D01*
X76759116Y-24689116D01*
X76634090Y-24841460D01*
X76634086Y-24841467D01*
X76541188Y-25015266D01*
X76483975Y-25203870D01*
X76464659Y-25400000D01*
X75600500Y-25400000D01*
X75600500Y-17419225D01*
X75600632Y-17413499D01*
X75601338Y-17398229D01*
X75604356Y-17332949D01*
X75593210Y-17253052D01*
X75592558Y-17247429D01*
X75585115Y-17167094D01*
X75579826Y-17148508D01*
X75576283Y-17131706D01*
X75573619Y-17112604D01*
X75573618Y-17112603D01*
X75573618Y-17112597D01*
X75547987Y-17036125D01*
X75546311Y-17030716D01*
X75524229Y-16953102D01*
X75515622Y-16935817D01*
X75509051Y-16919953D01*
X75502914Y-16901642D01*
X75463662Y-16831173D01*
X75461012Y-16826148D01*
X75425058Y-16753941D01*
X75425057Y-16753940D01*
X75425057Y-16753939D01*
X75413421Y-16738531D01*
X75404051Y-16724152D01*
X75394652Y-16707277D01*
X75394648Y-16707272D01*
X75343132Y-16645234D01*
X75339574Y-16640743D01*
X75290979Y-16576391D01*
X75231383Y-16522063D01*
X75227240Y-16518107D01*
X74401891Y-15692758D01*
X74397935Y-15688615D01*
X74343606Y-15629018D01*
X74343603Y-15629016D01*
X74279255Y-15580423D01*
X74274764Y-15576867D01*
X74273054Y-15575447D01*
X74212723Y-15525348D01*
X74195847Y-15515948D01*
X74181471Y-15506580D01*
X74166062Y-15494944D01*
X74166049Y-15494936D01*
X74093876Y-15458998D01*
X74088809Y-15456327D01*
X74018359Y-15417086D01*
X74009164Y-15414004D01*
X74000036Y-15410945D01*
X73984179Y-15404375D01*
X73971254Y-15397940D01*
X73966899Y-15395771D01*
X73926237Y-15384201D01*
X73889309Y-15373694D01*
X73883873Y-15372011D01*
X73846784Y-15359581D01*
X73807402Y-15346381D01*
X73788285Y-15343715D01*
X73771485Y-15340171D01*
X73752904Y-15334884D01*
X73752905Y-15334884D01*
X73672590Y-15327442D01*
X73666902Y-15326782D01*
X73587055Y-15315644D01*
X73587051Y-15315644D01*
X73509420Y-15319233D01*
X73506501Y-15319368D01*
X73500775Y-15319500D01*
X72948625Y-15319500D01*
X72881586Y-15299815D01*
X72860944Y-15283181D01*
X72817763Y-15240000D01*
X76464659Y-15240000D01*
X76483975Y-15436129D01*
X76483976Y-15436132D01*
X76527746Y-15580423D01*
X76541188Y-15624733D01*
X76634086Y-15798532D01*
X76634090Y-15798539D01*
X76759116Y-15950883D01*
X76911460Y-16075909D01*
X76911467Y-16075913D01*
X77085266Y-16168811D01*
X77085269Y-16168811D01*
X77085273Y-16168814D01*
X77273868Y-16226024D01*
X77470000Y-16245341D01*
X77666132Y-16226024D01*
X77854727Y-16168814D01*
X78028538Y-16075910D01*
X78180883Y-15950883D01*
X78305910Y-15798538D01*
X78396520Y-15629019D01*
X78398811Y-15624733D01*
X78398811Y-15624732D01*
X78398814Y-15624727D01*
X78456024Y-15436132D01*
X78475341Y-15240000D01*
X80274659Y-15240000D01*
X80293975Y-15436129D01*
X80293976Y-15436132D01*
X80337746Y-15580423D01*
X80351188Y-15624733D01*
X80444086Y-15798532D01*
X80444090Y-15798539D01*
X80569116Y-15950883D01*
X80721460Y-16075909D01*
X80721467Y-16075913D01*
X80895266Y-16168811D01*
X80895269Y-16168811D01*
X80895273Y-16168814D01*
X81083868Y-16226024D01*
X81280000Y-16245341D01*
X81476132Y-16226024D01*
X81664727Y-16168814D01*
X81838538Y-16075910D01*
X81990883Y-15950883D01*
X82115910Y-15798538D01*
X82206520Y-15629019D01*
X82208811Y-15624733D01*
X82208811Y-15624732D01*
X82208814Y-15624727D01*
X82266024Y-15436132D01*
X82285341Y-15240000D01*
X84084659Y-15240000D01*
X84103975Y-15436129D01*
X84103976Y-15436132D01*
X84147746Y-15580423D01*
X84161188Y-15624733D01*
X84254086Y-15798532D01*
X84254090Y-15798539D01*
X84379116Y-15950883D01*
X84531460Y-16075909D01*
X84531467Y-16075913D01*
X84705266Y-16168811D01*
X84705269Y-16168811D01*
X84705273Y-16168814D01*
X84893868Y-16226024D01*
X85090000Y-16245341D01*
X85286132Y-16226024D01*
X85474727Y-16168814D01*
X85648538Y-16075910D01*
X85800883Y-15950883D01*
X85925910Y-15798538D01*
X86016520Y-15629019D01*
X86018811Y-15624733D01*
X86018811Y-15624732D01*
X86018814Y-15624727D01*
X86076024Y-15436132D01*
X86094356Y-15250000D01*
X88974357Y-15250000D01*
X88994884Y-15471535D01*
X88994885Y-15471537D01*
X89055769Y-15685523D01*
X89055775Y-15685538D01*
X89154938Y-15884683D01*
X89154943Y-15884691D01*
X89289020Y-16062238D01*
X89453437Y-16212123D01*
X89453439Y-16212125D01*
X89642595Y-16329245D01*
X89642596Y-16329245D01*
X89642599Y-16329247D01*
X89850060Y-16409618D01*
X90068757Y-16450500D01*
X90068759Y-16450500D01*
X90291241Y-16450500D01*
X90291243Y-16450500D01*
X90509940Y-16409618D01*
X90717401Y-16329247D01*
X90906562Y-16212124D01*
X91055981Y-16075910D01*
X91070979Y-16062238D01*
X91155071Y-15950883D01*
X91205058Y-15884689D01*
X91304229Y-15685528D01*
X91365115Y-15471536D01*
X91385643Y-15250000D01*
X91382980Y-15221266D01*
X91365115Y-15028464D01*
X91365114Y-15028462D01*
X91355357Y-14994171D01*
X91304229Y-14814472D01*
X91238000Y-14681467D01*
X91205061Y-14615316D01*
X91205056Y-14615308D01*
X91070979Y-14437761D01*
X90906562Y-14287876D01*
X90906560Y-14287874D01*
X90717404Y-14170754D01*
X90717398Y-14170752D01*
X90509940Y-14090382D01*
X90291243Y-14049500D01*
X90068757Y-14049500D01*
X89850060Y-14090382D01*
X89718864Y-14141207D01*
X89642601Y-14170752D01*
X89642595Y-14170754D01*
X89453439Y-14287874D01*
X89453437Y-14287876D01*
X89289020Y-14437761D01*
X89154943Y-14615308D01*
X89154938Y-14615316D01*
X89055775Y-14814461D01*
X89055769Y-14814476D01*
X88994885Y-15028462D01*
X88994884Y-15028464D01*
X88974357Y-15249999D01*
X88974357Y-15250000D01*
X86094356Y-15250000D01*
X86095341Y-15240000D01*
X86076024Y-15043868D01*
X86018814Y-14855273D01*
X86018811Y-14855269D01*
X86018811Y-14855266D01*
X85925913Y-14681467D01*
X85925909Y-14681460D01*
X85800883Y-14529116D01*
X85648539Y-14404090D01*
X85648532Y-14404086D01*
X85474733Y-14311188D01*
X85474727Y-14311186D01*
X85286132Y-14253976D01*
X85286129Y-14253975D01*
X85090000Y-14234659D01*
X84893870Y-14253975D01*
X84705266Y-14311188D01*
X84531467Y-14404086D01*
X84531460Y-14404090D01*
X84379116Y-14529116D01*
X84254090Y-14681460D01*
X84254086Y-14681467D01*
X84161188Y-14855266D01*
X84103975Y-15043870D01*
X84084659Y-15240000D01*
X82285341Y-15240000D01*
X82266024Y-15043868D01*
X82208814Y-14855273D01*
X82208811Y-14855269D01*
X82208811Y-14855266D01*
X82115913Y-14681467D01*
X82115909Y-14681460D01*
X81990883Y-14529116D01*
X81838539Y-14404090D01*
X81838532Y-14404086D01*
X81664733Y-14311188D01*
X81664727Y-14311186D01*
X81476132Y-14253976D01*
X81476129Y-14253975D01*
X81280000Y-14234659D01*
X81083870Y-14253975D01*
X80895266Y-14311188D01*
X80721467Y-14404086D01*
X80721460Y-14404090D01*
X80569116Y-14529116D01*
X80444090Y-14681460D01*
X80444086Y-14681467D01*
X80351188Y-14855266D01*
X80293975Y-15043870D01*
X80274659Y-15240000D01*
X78475341Y-15240000D01*
X78456024Y-15043868D01*
X78398814Y-14855273D01*
X78398811Y-14855269D01*
X78398811Y-14855266D01*
X78305913Y-14681467D01*
X78305909Y-14681460D01*
X78180883Y-14529116D01*
X78028539Y-14404090D01*
X78028532Y-14404086D01*
X77854733Y-14311188D01*
X77854727Y-14311186D01*
X77666132Y-14253976D01*
X77666129Y-14253975D01*
X77470000Y-14234659D01*
X77273870Y-14253975D01*
X77085266Y-14311188D01*
X76911467Y-14404086D01*
X76911460Y-14404090D01*
X76759116Y-14529116D01*
X76634090Y-14681460D01*
X76634086Y-14681467D01*
X76541188Y-14855266D01*
X76483975Y-15043870D01*
X76464659Y-15240000D01*
X72817763Y-15240000D01*
X69007763Y-11430000D01*
X73924659Y-11430000D01*
X73943975Y-11626129D01*
X74001188Y-11814733D01*
X74094086Y-11988532D01*
X74094090Y-11988539D01*
X74219116Y-12140883D01*
X74371460Y-12265909D01*
X74371467Y-12265913D01*
X74545266Y-12358811D01*
X74545269Y-12358811D01*
X74545273Y-12358814D01*
X74733868Y-12416024D01*
X74930000Y-12435341D01*
X75126132Y-12416024D01*
X75314727Y-12358814D01*
X75488538Y-12265910D01*
X75640883Y-12140883D01*
X75765910Y-11988538D01*
X75858814Y-11814727D01*
X75916024Y-11626132D01*
X75935341Y-11430000D01*
X84084659Y-11430000D01*
X84103975Y-11626129D01*
X84161188Y-11814733D01*
X84254086Y-11988532D01*
X84254090Y-11988539D01*
X84379116Y-12140883D01*
X84531460Y-12265909D01*
X84531467Y-12265913D01*
X84705266Y-12358811D01*
X84705269Y-12358811D01*
X84705273Y-12358814D01*
X84893868Y-12416024D01*
X85090000Y-12435341D01*
X85286132Y-12416024D01*
X85474727Y-12358814D01*
X85648538Y-12265910D01*
X85800883Y-12140883D01*
X85925910Y-11988538D01*
X86018814Y-11814727D01*
X86076024Y-11626132D01*
X86095341Y-11430000D01*
X86076024Y-11233868D01*
X86018814Y-11045273D01*
X86018811Y-11045269D01*
X86018811Y-11045266D01*
X85925913Y-10871467D01*
X85925909Y-10871460D01*
X85800883Y-10719116D01*
X85648539Y-10594090D01*
X85648532Y-10594086D01*
X85474733Y-10501188D01*
X85474727Y-10501186D01*
X85286132Y-10443976D01*
X85286129Y-10443975D01*
X85090000Y-10424659D01*
X84893870Y-10443975D01*
X84705266Y-10501188D01*
X84531467Y-10594086D01*
X84531460Y-10594090D01*
X84379116Y-10719116D01*
X84254090Y-10871460D01*
X84254086Y-10871467D01*
X84161188Y-11045266D01*
X84103975Y-11233870D01*
X84084659Y-11430000D01*
X75935341Y-11430000D01*
X75916024Y-11233868D01*
X75858814Y-11045273D01*
X75858811Y-11045269D01*
X75858811Y-11045266D01*
X75765913Y-10871467D01*
X75765909Y-10871460D01*
X75640883Y-10719116D01*
X75488539Y-10594090D01*
X75488532Y-10594086D01*
X75314733Y-10501188D01*
X75314727Y-10501186D01*
X75126132Y-10443976D01*
X75126129Y-10443975D01*
X74930000Y-10424659D01*
X74733870Y-10443975D01*
X74545266Y-10501188D01*
X74371467Y-10594086D01*
X74371460Y-10594090D01*
X74219116Y-10719116D01*
X74094090Y-10871460D01*
X74094086Y-10871467D01*
X74001188Y-11045266D01*
X73943975Y-11233870D01*
X73924659Y-11430000D01*
X69007763Y-11430000D01*
X66910521Y-9332758D01*
X66906565Y-9328615D01*
X66852236Y-9269018D01*
X66852233Y-9269016D01*
X66787885Y-9220423D01*
X66783394Y-9216867D01*
X66721355Y-9165350D01*
X66721353Y-9165348D01*
X66704477Y-9155948D01*
X66690101Y-9146580D01*
X66674692Y-9134944D01*
X66674679Y-9134936D01*
X66602506Y-9098998D01*
X66597439Y-9096327D01*
X66526989Y-9057086D01*
X66517794Y-9054004D01*
X66508666Y-9050945D01*
X66492809Y-9044375D01*
X66483341Y-9039661D01*
X66475529Y-9035771D01*
X66434867Y-9024201D01*
X66397939Y-9013694D01*
X66392503Y-9012011D01*
X66355414Y-8999581D01*
X66316032Y-8986381D01*
X66296915Y-8983715D01*
X66280115Y-8980171D01*
X66261534Y-8974884D01*
X66261535Y-8974884D01*
X66181220Y-8967442D01*
X66175532Y-8966782D01*
X66095685Y-8955644D01*
X66095681Y-8955644D01*
X66018050Y-8959233D01*
X66015131Y-8959368D01*
X66009405Y-8959500D01*
X51465595Y-8959500D01*
X51459869Y-8959368D01*
X51457516Y-8959259D01*
X51379319Y-8955644D01*
X51379317Y-8955644D01*
X51379314Y-8955644D01*
X51299466Y-8966782D01*
X51293779Y-8967442D01*
X51213462Y-8974885D01*
X51213459Y-8974885D01*
X51194881Y-8980171D01*
X51178089Y-8983713D01*
X51158973Y-8986380D01*
X51158962Y-8986382D01*
X51082517Y-9012004D01*
X51077046Y-9013698D01*
X50999472Y-9035771D01*
X50999470Y-9035771D01*
X50999466Y-9035773D01*
X50982183Y-9044379D01*
X50966325Y-9050947D01*
X50948017Y-9057083D01*
X50877575Y-9096319D01*
X50872512Y-9098988D01*
X50800309Y-9134943D01*
X50784900Y-9146579D01*
X50770517Y-9155951D01*
X50753652Y-9165344D01*
X50753644Y-9165350D01*
X50691596Y-9216873D01*
X50687109Y-9220427D01*
X50622760Y-9269022D01*
X50568434Y-9328614D01*
X50564479Y-9332756D01*
X37907756Y-21989479D01*
X37903614Y-21993434D01*
X37844022Y-22047760D01*
X37795427Y-22112109D01*
X37791873Y-22116596D01*
X37740350Y-22178644D01*
X37740344Y-22178652D01*
X37730951Y-22195517D01*
X37721579Y-22209900D01*
X37709943Y-22225309D01*
X37673988Y-22297512D01*
X37671319Y-22302575D01*
X37632083Y-22373017D01*
X37625947Y-22391325D01*
X37619379Y-22407183D01*
X37610773Y-22424466D01*
X37610771Y-22424473D01*
X37588698Y-22502048D01*
X37587004Y-22507517D01*
X37561382Y-22583962D01*
X37561380Y-22583973D01*
X37558713Y-22603089D01*
X37555171Y-22619881D01*
X37549885Y-22638459D01*
X37549885Y-22638462D01*
X37542442Y-22718779D01*
X37541782Y-22724466D01*
X37530644Y-22804314D01*
X37534368Y-22884869D01*
X37534500Y-22890595D01*
X37534500Y-25360251D01*
X37514815Y-25427290D01*
X37498181Y-25447932D01*
X31777932Y-31168181D01*
X31716609Y-31201666D01*
X31690251Y-31204500D01*
X29809497Y-31204500D01*
X29764601Y-31208660D01*
X29643464Y-31219884D01*
X29643462Y-31219885D01*
X29429476Y-31280769D01*
X29429461Y-31280775D01*
X29230316Y-31379938D01*
X29230308Y-31379943D01*
X29052761Y-31514020D01*
X28902876Y-31678437D01*
X28902874Y-31678439D01*
X28785754Y-31867595D01*
X28785752Y-31867601D01*
X28765052Y-31921034D01*
X28705382Y-32075060D01*
X28664500Y-32293757D01*
X28664500Y-32516243D01*
X9220821Y-32516243D01*
X6048443Y-29343865D01*
X6014958Y-29282542D01*
X6019942Y-29212850D01*
X6061814Y-29156917D01*
X6127278Y-29132500D01*
X6163402Y-29137319D01*
X6163668Y-29135918D01*
X6172798Y-29137645D01*
X6172801Y-29137646D01*
X6172803Y-29137646D01*
X6181198Y-29139234D01*
X6189595Y-29140500D01*
X6189598Y-29140500D01*
X6246745Y-29140500D01*
X6251383Y-29140587D01*
X6308509Y-29142725D01*
X6308509Y-29142724D01*
X6308510Y-29142725D01*
X6308510Y-29142724D01*
X6317742Y-29141685D01*
X6317835Y-29142513D01*
X6333139Y-29140500D01*
X7390399Y-29140500D01*
X7404281Y-29141279D01*
X7415226Y-29142513D01*
X7439694Y-29145270D01*
X7439694Y-29145269D01*
X7439696Y-29145270D01*
X7495897Y-29134635D01*
X7500387Y-29133872D01*
X7556948Y-29125348D01*
X7556952Y-29125345D01*
X7565108Y-29122830D01*
X7573130Y-29120024D01*
X7573131Y-29120023D01*
X7573133Y-29120023D01*
X7623749Y-29093270D01*
X7627754Y-29091248D01*
X7679303Y-29066425D01*
X7679304Y-29066423D01*
X7679306Y-29066423D01*
X7686356Y-29061616D01*
X7693195Y-29056567D01*
X7693199Y-29056566D01*
X7733635Y-29016128D01*
X7736921Y-29012962D01*
X7778855Y-28974055D01*
X7778857Y-28974050D01*
X7784648Y-28966790D01*
X7785304Y-28967313D01*
X7794693Y-28955070D01*
X8362945Y-28386819D01*
X8424268Y-28353334D01*
X8450626Y-28350500D01*
X24772738Y-28350500D01*
X24786620Y-28351279D01*
X24799421Y-28352722D01*
X24822033Y-28355270D01*
X24822033Y-28355269D01*
X24822035Y-28355270D01*
X24878236Y-28344635D01*
X24882726Y-28343872D01*
X24939287Y-28335348D01*
X24939291Y-28335345D01*
X24947447Y-28332830D01*
X24955469Y-28330024D01*
X24955470Y-28330023D01*
X24955472Y-28330023D01*
X25006088Y-28303270D01*
X25010093Y-28301248D01*
X25061642Y-28276425D01*
X25061643Y-28276423D01*
X25061645Y-28276423D01*
X25068695Y-28271616D01*
X25075534Y-28266567D01*
X25075538Y-28266566D01*
X25115975Y-28226127D01*
X25119261Y-28222961D01*
X25161194Y-28184055D01*
X25161196Y-28184050D01*
X25166987Y-28176790D01*
X25167643Y-28177313D01*
X25177032Y-28165070D01*
X31256094Y-22086007D01*
X31308842Y-22054712D01*
X31325053Y-22049953D01*
X31325055Y-22049951D01*
X31325057Y-22049951D01*
X31419153Y-21989479D01*
X31446128Y-21972143D01*
X31540377Y-21863373D01*
X31600165Y-21732457D01*
X31620647Y-21590000D01*
X31600165Y-21447543D01*
X31540377Y-21316627D01*
X31446128Y-21207857D01*
X31325053Y-21130047D01*
X31325051Y-21130046D01*
X31325049Y-21130045D01*
X31325050Y-21130045D01*
X31186963Y-21089500D01*
X31186961Y-21089500D01*
X31043039Y-21089500D01*
X31043036Y-21089500D01*
X30904949Y-21130045D01*
X30783873Y-21207856D01*
X30689623Y-21316626D01*
X30689621Y-21316629D01*
X30647095Y-21409745D01*
X30621983Y-21445912D01*
X24654716Y-27413181D01*
X24593393Y-27446666D01*
X24567035Y-27449500D01*
X8244923Y-27449500D01*
X8231040Y-27448720D01*
X8227032Y-27448268D01*
X8195626Y-27444729D01*
X8139443Y-27455358D01*
X8134879Y-27456133D01*
X8078376Y-27464651D01*
X8070217Y-27467167D01*
X8062190Y-27469976D01*
X8016034Y-27494370D01*
X8011625Y-27496700D01*
X8007490Y-27498787D01*
X7956019Y-27523575D01*
X7948969Y-27528380D01*
X7942120Y-27533435D01*
X7901720Y-27573836D01*
X7898383Y-27577051D01*
X7856465Y-27615946D01*
X7850674Y-27623208D01*
X7850023Y-27622688D01*
X7840628Y-27634928D01*
X7272377Y-28203181D01*
X7211054Y-28236666D01*
X7184696Y-28239500D01*
X6495465Y-28239500D01*
X6428426Y-28219815D01*
X6407784Y-28203181D01*
X6389259Y-28184656D01*
X6355774Y-28123333D01*
X6353619Y-28084018D01*
X6372960Y-27900000D01*
X6353174Y-27711744D01*
X6294679Y-27531716D01*
X6200033Y-27367784D01*
X6073371Y-27227112D01*
X6073370Y-27227111D01*
X5920234Y-27115851D01*
X5920229Y-27115848D01*
X5747307Y-27038857D01*
X5747302Y-27038855D01*
X5592072Y-27005861D01*
X5562146Y-26999500D01*
X5372854Y-26999500D01*
X5342928Y-27005861D01*
X5187697Y-27038855D01*
X5187692Y-27038857D01*
X5014770Y-27115848D01*
X5014765Y-27115851D01*
X4861629Y-27227111D01*
X4734966Y-27367785D01*
X4640321Y-27531715D01*
X4640318Y-27531722D01*
X4581827Y-27711740D01*
X4581826Y-27711744D01*
X4562040Y-27899999D01*
X4562040Y-27900000D01*
X4568221Y-27958814D01*
X4555651Y-28027544D01*
X4507918Y-28078567D01*
X4440178Y-28095684D01*
X4373937Y-28073461D01*
X4357219Y-28059455D01*
X3902029Y-27604265D01*
X3892763Y-27593897D01*
X3879329Y-27577051D01*
X3870540Y-27566030D01*
X3870539Y-27566029D01*
X3870538Y-27566028D01*
X3845011Y-27548624D01*
X3823294Y-27533818D01*
X3819530Y-27531147D01*
X3773547Y-27497209D01*
X3765958Y-27493198D01*
X3758336Y-27489528D01*
X3703710Y-27472679D01*
X3699305Y-27471230D01*
X3695721Y-27469976D01*
X3687694Y-27467167D01*
X3645356Y-27452352D01*
X3636987Y-27450768D01*
X3628565Y-27449500D01*
X3628563Y-27449500D01*
X3571399Y-27449500D01*
X3566762Y-27449413D01*
X3564746Y-27449337D01*
X3509650Y-27447275D01*
X3500417Y-27448316D01*
X3500323Y-27447486D01*
X3485025Y-27449500D01*
X3182592Y-27449500D01*
X3115553Y-27429815D01*
X3069798Y-27377011D01*
X3065551Y-27366456D01*
X3032566Y-27272193D01*
X3020293Y-27237118D01*
X2939650Y-27127850D01*
X2830382Y-27047207D01*
X2830380Y-27047206D01*
X2702200Y-27002353D01*
X2671770Y-26999500D01*
X2671766Y-26999500D01*
X1663234Y-26999500D01*
X1663230Y-26999500D01*
X1632800Y-27002353D01*
X1625427Y-27003964D01*
X1625150Y-27002698D01*
X1563173Y-27005861D01*
X1502546Y-26971130D01*
X1470321Y-26909136D01*
X1468000Y-26885258D01*
X1468000Y-24660463D01*
X1487685Y-24593424D01*
X1504315Y-24572786D01*
X2254533Y-23822567D01*
X2315854Y-23789084D01*
X2316019Y-23789048D01*
X2447303Y-23761144D01*
X2620230Y-23684151D01*
X2773371Y-23572888D01*
X2900033Y-23432216D01*
X2994679Y-23268284D01*
X3053174Y-23088256D01*
X3072960Y-22900000D01*
X4562040Y-22900000D01*
X4581826Y-23088256D01*
X4581827Y-23088259D01*
X4640318Y-23268277D01*
X4640319Y-23268279D01*
X4640321Y-23268284D01*
X4734967Y-23432216D01*
X4744662Y-23442983D01*
X4861629Y-23572888D01*
X5014765Y-23684148D01*
X5014770Y-23684151D01*
X5187692Y-23761142D01*
X5187697Y-23761144D01*
X5372854Y-23800500D01*
X5372855Y-23800500D01*
X5562145Y-23800500D01*
X5562146Y-23800500D01*
X5635460Y-23784916D01*
X5705126Y-23790231D01*
X5748922Y-23818525D01*
X7135459Y-25205062D01*
X7168944Y-25266385D01*
X7171778Y-25292743D01*
X7171778Y-26428325D01*
X7160572Y-26479836D01*
X7137113Y-26531203D01*
X7137112Y-26531204D01*
X7116631Y-26673662D01*
X7137112Y-26816118D01*
X7168688Y-26885258D01*
X7196901Y-26947035D01*
X7291150Y-27055805D01*
X7412225Y-27133615D01*
X7412228Y-27133616D01*
X7412227Y-27133616D01*
X7550314Y-27174161D01*
X7550316Y-27174162D01*
X7550317Y-27174162D01*
X7694240Y-27174162D01*
X7694240Y-27174161D01*
X7832331Y-27133615D01*
X7953406Y-27055805D01*
X8047655Y-26947035D01*
X8107443Y-26816119D01*
X8127925Y-26673662D01*
X8107443Y-26531205D01*
X8104762Y-26525335D01*
X8083984Y-26479836D01*
X8072778Y-26428325D01*
X8072778Y-25087039D01*
X8073558Y-25073154D01*
X8077548Y-25037744D01*
X8073296Y-25015273D01*
X8066911Y-24981531D01*
X8066142Y-24976997D01*
X8065978Y-24975908D01*
X8057626Y-24920491D01*
X8057624Y-24920487D01*
X8055114Y-24912349D01*
X8052302Y-24904312D01*
X8052301Y-24904306D01*
X8025563Y-24853719D01*
X8023501Y-24849632D01*
X8009883Y-24821353D01*
X7998703Y-24798136D01*
X7998701Y-24798134D01*
X7998701Y-24798133D01*
X7993920Y-24791120D01*
X7988844Y-24784243D01*
X7988843Y-24784240D01*
X7948443Y-24743840D01*
X7945225Y-24740499D01*
X7906338Y-24698587D01*
X7899070Y-24692792D01*
X7899590Y-24692139D01*
X7887345Y-24682742D01*
X6389259Y-23184656D01*
X6355774Y-23123333D01*
X6353619Y-23084018D01*
X6372960Y-22900000D01*
X6353174Y-22711744D01*
X6294679Y-22531716D01*
X6200033Y-22367784D01*
X6073371Y-22227112D01*
X6073370Y-22227111D01*
X5920234Y-22115851D01*
X5920229Y-22115848D01*
X5747307Y-22038857D01*
X5747302Y-22038855D01*
X5601501Y-22007865D01*
X5562146Y-21999500D01*
X5372854Y-21999500D01*
X5340397Y-22006398D01*
X5187697Y-22038855D01*
X5187692Y-22038857D01*
X5014770Y-22115848D01*
X5014765Y-22115851D01*
X4861629Y-22227111D01*
X4734966Y-22367785D01*
X4640321Y-22531715D01*
X4640318Y-22531722D01*
X4581827Y-22711740D01*
X4581826Y-22711744D01*
X4562040Y-22900000D01*
X3072960Y-22900000D01*
X3053174Y-22711744D01*
X2994679Y-22531716D01*
X2900033Y-22367784D01*
X2773371Y-22227112D01*
X2773370Y-22227111D01*
X2620234Y-22115851D01*
X2620229Y-22115848D01*
X2447307Y-22038857D01*
X2447302Y-22038855D01*
X2301501Y-22007865D01*
X2262146Y-21999500D01*
X2072854Y-21999500D01*
X2040397Y-22006398D01*
X1887697Y-22038855D01*
X1887692Y-22038857D01*
X1714770Y-22115848D01*
X1714765Y-22115851D01*
X1561629Y-22227111D01*
X1434966Y-22367785D01*
X1340321Y-22531715D01*
X1340318Y-22531722D01*
X1281827Y-22711740D01*
X1281826Y-22711744D01*
X1262040Y-22900000D01*
X1281826Y-23088256D01*
X1281827Y-23088259D01*
X1340318Y-23268277D01*
X1340319Y-23268279D01*
X1340321Y-23268284D01*
X1363862Y-23309059D01*
X1380335Y-23376956D01*
X1357483Y-23442983D01*
X1344156Y-23458738D01*
X721763Y-24081131D01*
X711399Y-24090394D01*
X701817Y-24098036D01*
X637131Y-24124447D01*
X568435Y-24111694D01*
X517539Y-24063825D01*
X500500Y-24001092D01*
X500500Y-14927605D01*
X5290642Y-14927605D01*
X5301483Y-14986770D01*
X5302610Y-14994171D01*
X5309859Y-15053871D01*
X5309860Y-15053874D01*
X5313451Y-15063343D01*
X5319474Y-15084946D01*
X5321304Y-15094930D01*
X5345991Y-15149782D01*
X5348854Y-15156694D01*
X5370182Y-15212930D01*
X5370183Y-15212931D01*
X5375936Y-15221266D01*
X5386961Y-15240813D01*
X5391120Y-15250055D01*
X5391124Y-15250060D01*
X5428215Y-15297403D01*
X5432655Y-15303438D01*
X5466812Y-15352924D01*
X5466816Y-15352929D01*
X5511828Y-15392805D01*
X5517283Y-15397940D01*
X5837058Y-15717715D01*
X5842178Y-15723153D01*
X5882071Y-15768183D01*
X5926049Y-15798539D01*
X5931573Y-15802352D01*
X5937591Y-15806780D01*
X5984944Y-15843878D01*
X5984947Y-15843880D01*
X5984946Y-15843880D01*
X5994177Y-15848034D01*
X6013731Y-15859062D01*
X6022070Y-15864818D01*
X6078331Y-15886154D01*
X6085208Y-15889003D01*
X6106563Y-15898615D01*
X6140063Y-15913693D01*
X6140066Y-15913693D01*
X6140069Y-15913695D01*
X6150034Y-15915521D01*
X6171656Y-15921548D01*
X6174777Y-15922731D01*
X6181128Y-15925140D01*
X6238689Y-15932128D01*
X6240815Y-15932387D01*
X6248222Y-15933514D01*
X6307394Y-15944358D01*
X6367433Y-15940725D01*
X6374921Y-15940500D01*
X6702265Y-15940500D01*
X6769304Y-15960185D01*
X6794119Y-15982274D01*
X6794287Y-15982107D01*
X6797165Y-15984985D01*
X6798114Y-15985830D01*
X6798590Y-15986410D01*
X6958550Y-16117685D01*
X7141046Y-16215232D01*
X7339066Y-16275300D01*
X7339065Y-16275300D01*
X7377647Y-16279100D01*
X7493392Y-16290500D01*
X7493395Y-16290500D01*
X7746605Y-16290500D01*
X7746608Y-16290500D01*
X7900934Y-16275300D01*
X8098954Y-16215232D01*
X8281450Y-16117685D01*
X8441410Y-15986410D01*
X8572685Y-15826450D01*
X8670232Y-15643954D01*
X8730300Y-15445934D01*
X8750583Y-15240000D01*
X8730300Y-15034066D01*
X8670232Y-14836046D01*
X8572685Y-14653550D01*
X8520702Y-14590209D01*
X8441410Y-14493589D01*
X8281452Y-14362317D01*
X8281453Y-14362317D01*
X8281450Y-14362315D01*
X8098954Y-14264768D01*
X7900934Y-14204700D01*
X7900932Y-14204699D01*
X7900934Y-14204699D01*
X7781805Y-14192966D01*
X7746608Y-14189500D01*
X7493392Y-14189500D01*
X7455298Y-14193251D01*
X7339067Y-14204699D01*
X7141043Y-14264769D01*
X6958546Y-14362317D01*
X6898164Y-14411871D01*
X6833853Y-14439183D01*
X6764986Y-14427391D01*
X6713426Y-14380238D01*
X6695500Y-14316017D01*
X6695500Y-10795000D01*
X22225000Y-10795000D01*
X24765000Y-10795000D01*
X24765000Y-10320000D01*
X44714659Y-10320000D01*
X44733975Y-10516129D01*
X44791188Y-10704733D01*
X44884086Y-10878532D01*
X44884090Y-10878539D01*
X45009116Y-11030883D01*
X45161460Y-11155909D01*
X45161467Y-11155913D01*
X45335266Y-11248811D01*
X45335269Y-11248811D01*
X45335273Y-11248814D01*
X45523868Y-11306024D01*
X45720000Y-11325341D01*
X45916132Y-11306024D01*
X46104727Y-11248814D01*
X46278538Y-11155910D01*
X46430883Y-11030883D01*
X46555910Y-10878538D01*
X46602362Y-10791632D01*
X46648811Y-10704733D01*
X46648811Y-10704732D01*
X46648814Y-10704727D01*
X46706024Y-10516132D01*
X46725341Y-10320000D01*
X46706024Y-10123868D01*
X46648814Y-9935273D01*
X46648811Y-9935269D01*
X46648811Y-9935266D01*
X46555913Y-9761467D01*
X46555909Y-9761460D01*
X46430883Y-9609116D01*
X46278539Y-9484090D01*
X46278532Y-9484086D01*
X46104733Y-9391188D01*
X46104727Y-9391186D01*
X45916132Y-9333976D01*
X45916129Y-9333975D01*
X45720000Y-9314659D01*
X45523870Y-9333975D01*
X45335266Y-9391188D01*
X45161467Y-9484086D01*
X45161460Y-9484090D01*
X45009116Y-9609116D01*
X44884090Y-9761460D01*
X44884086Y-9761467D01*
X44791188Y-9935266D01*
X44733975Y-10123870D01*
X44714659Y-10320000D01*
X24765000Y-10320000D01*
X24765000Y-9307500D01*
X27505343Y-9307500D01*
X27523926Y-9496181D01*
X27523927Y-9496183D01*
X27578963Y-9677615D01*
X27578964Y-9677618D01*
X27578965Y-9677619D01*
X27578966Y-9677622D01*
X27668334Y-9844818D01*
X27668338Y-9844825D01*
X27788616Y-9991383D01*
X27935174Y-10111661D01*
X27935181Y-10111665D01*
X28102377Y-10201033D01*
X28102378Y-10201033D01*
X28102385Y-10201037D01*
X28283817Y-10256073D01*
X28283816Y-10256073D01*
X28300733Y-10257739D01*
X28472500Y-10274657D01*
X28661183Y-10256073D01*
X28842615Y-10201037D01*
X29009824Y-10111662D01*
X29156383Y-9991383D01*
X29276662Y-9844824D01*
X29366037Y-9677615D01*
X29421073Y-9496183D01*
X29432740Y-9377720D01*
X29458900Y-9312933D01*
X29463737Y-9307500D01*
X32585343Y-9307500D01*
X32603926Y-9496181D01*
X32603927Y-9496183D01*
X32658963Y-9677615D01*
X32658964Y-9677618D01*
X32658965Y-9677619D01*
X32658966Y-9677622D01*
X32748334Y-9844818D01*
X32748338Y-9844825D01*
X32868616Y-9991383D01*
X33015174Y-10111661D01*
X33015181Y-10111665D01*
X33182377Y-10201033D01*
X33182378Y-10201033D01*
X33182385Y-10201037D01*
X33363817Y-10256073D01*
X33363816Y-10256073D01*
X33380733Y-10257739D01*
X33552500Y-10274657D01*
X33741183Y-10256073D01*
X33922615Y-10201037D01*
X34089824Y-10111662D01*
X34236383Y-9991383D01*
X34356662Y-9844824D01*
X34446037Y-9677615D01*
X34501073Y-9496183D01*
X34519657Y-9307500D01*
X34501073Y-9118817D01*
X34446037Y-8937385D01*
X34446033Y-8937377D01*
X34356665Y-8770181D01*
X34356661Y-8770174D01*
X34236383Y-8623616D01*
X34089825Y-8503338D01*
X34089818Y-8503334D01*
X33922622Y-8413966D01*
X33922619Y-8413965D01*
X33922618Y-8413964D01*
X33922615Y-8413963D01*
X33741183Y-8358927D01*
X33741181Y-8358926D01*
X33741183Y-8358926D01*
X33552500Y-8340343D01*
X33363818Y-8358926D01*
X33287754Y-8382000D01*
X33182385Y-8413963D01*
X33182382Y-8413964D01*
X33182380Y-8413965D01*
X33182377Y-8413966D01*
X33015181Y-8503334D01*
X33015174Y-8503338D01*
X32868616Y-8623616D01*
X32748338Y-8770174D01*
X32748334Y-8770181D01*
X32658966Y-8937377D01*
X32658965Y-8937380D01*
X32658964Y-8937382D01*
X32658963Y-8937385D01*
X32644100Y-8986382D01*
X32603926Y-9118818D01*
X32585343Y-9307500D01*
X29463737Y-9307500D01*
X29468453Y-9302202D01*
X34223838Y-4546819D01*
X34285161Y-4513334D01*
X34311519Y-4510500D01*
X38458301Y-4510500D01*
X38525340Y-4530185D01*
X38549937Y-4550961D01*
X38553234Y-4554578D01*
X38703958Y-4691980D01*
X38703960Y-4691982D01*
X38764955Y-4729748D01*
X38877363Y-4799348D01*
X39067544Y-4873024D01*
X39268024Y-4910500D01*
X39268026Y-4910500D01*
X39471974Y-4910500D01*
X39471976Y-4910500D01*
X39672456Y-4873024D01*
X39862637Y-4799348D01*
X39975039Y-4729752D01*
X40809500Y-4729752D01*
X40821131Y-4788229D01*
X40821132Y-4788230D01*
X40865447Y-4854552D01*
X40931769Y-4898867D01*
X40931770Y-4898868D01*
X40990247Y-4910499D01*
X40990250Y-4910500D01*
X40990252Y-4910500D01*
X42829750Y-4910500D01*
X42829751Y-4910499D01*
X42844568Y-4907552D01*
X42888229Y-4898868D01*
X42888229Y-4898867D01*
X42888231Y-4898867D01*
X42954552Y-4854552D01*
X42998867Y-4788231D01*
X42998867Y-4788229D01*
X42998868Y-4788229D01*
X43008697Y-4738811D01*
X43010500Y-4729748D01*
X43010500Y-3810000D01*
X43444659Y-3810000D01*
X43463975Y-4006129D01*
X43521188Y-4194733D01*
X43614086Y-4368532D01*
X43614090Y-4368539D01*
X43739116Y-4520883D01*
X43891460Y-4645909D01*
X43891467Y-4645913D01*
X44065266Y-4738811D01*
X44065269Y-4738811D01*
X44065273Y-4738814D01*
X44253868Y-4796024D01*
X44450000Y-4815341D01*
X44646132Y-4796024D01*
X44834727Y-4738814D01*
X44845562Y-4733023D01*
X44943357Y-4680750D01*
X45008538Y-4645910D01*
X45160883Y-4520883D01*
X45285910Y-4368538D01*
X45371053Y-4209247D01*
X45378811Y-4194733D01*
X45378811Y-4194732D01*
X45378814Y-4194727D01*
X45436024Y-4006132D01*
X45455341Y-3810000D01*
X53604659Y-3810000D01*
X53623975Y-4006129D01*
X53681188Y-4194733D01*
X53774086Y-4368532D01*
X53774090Y-4368539D01*
X53899116Y-4520883D01*
X54051460Y-4645909D01*
X54051467Y-4645913D01*
X54225266Y-4738811D01*
X54225269Y-4738811D01*
X54225273Y-4738814D01*
X54413868Y-4796024D01*
X54610000Y-4815341D01*
X54806132Y-4796024D01*
X54994727Y-4738814D01*
X55005562Y-4733023D01*
X55103357Y-4680750D01*
X55168538Y-4645910D01*
X55320883Y-4520883D01*
X55445910Y-4368538D01*
X55531053Y-4209247D01*
X55538811Y-4194733D01*
X55538811Y-4194732D01*
X55538814Y-4194727D01*
X55596024Y-4006132D01*
X55615341Y-3810000D01*
X55596024Y-3613868D01*
X55538814Y-3425273D01*
X55538811Y-3425269D01*
X55538811Y-3425266D01*
X55445913Y-3251467D01*
X55445909Y-3251460D01*
X55320883Y-3099116D01*
X55282679Y-3067763D01*
X90145787Y-3067763D01*
X90175413Y-3337013D01*
X90175415Y-3337024D01*
X90238498Y-3578318D01*
X90243928Y-3599088D01*
X90349870Y-3848390D01*
X90450381Y-4013083D01*
X90490979Y-4079605D01*
X90490986Y-4079615D01*
X90664253Y-4287819D01*
X90664259Y-4287824D01*
X90717381Y-4335421D01*
X90865998Y-4468582D01*
X91091910Y-4618044D01*
X91337176Y-4733020D01*
X91337183Y-4733022D01*
X91337185Y-4733023D01*
X91596557Y-4811057D01*
X91596564Y-4811058D01*
X91596569Y-4811060D01*
X91864561Y-4850500D01*
X91864566Y-4850500D01*
X92067629Y-4850500D01*
X92067631Y-4850500D01*
X92067636Y-4850499D01*
X92067648Y-4850499D01*
X92105191Y-4847750D01*
X92270156Y-4835677D01*
X92382758Y-4810593D01*
X92534546Y-4776782D01*
X92534548Y-4776781D01*
X92534553Y-4776780D01*
X92787558Y-4680014D01*
X93023777Y-4547441D01*
X93238177Y-4381888D01*
X93426186Y-4186881D01*
X93583799Y-3966579D01*
X93664302Y-3809999D01*
X93707649Y-3725690D01*
X93707651Y-3725684D01*
X93707656Y-3725675D01*
X93795118Y-3469305D01*
X93844319Y-3202933D01*
X93854212Y-2932235D01*
X93824586Y-2662982D01*
X93756072Y-2400912D01*
X93650130Y-2151610D01*
X93509018Y-1920390D01*
X93507845Y-1918981D01*
X93335746Y-1712180D01*
X93335740Y-1712175D01*
X93134002Y-1531418D01*
X92908092Y-1381957D01*
X92908090Y-1381956D01*
X92662824Y-1266980D01*
X92662819Y-1266978D01*
X92662814Y-1266976D01*
X92403442Y-1188942D01*
X92403428Y-1188939D01*
X92287791Y-1171921D01*
X92135439Y-1149500D01*
X91932369Y-1149500D01*
X91932351Y-1149500D01*
X91729844Y-1164323D01*
X91729831Y-1164325D01*
X91465453Y-1223217D01*
X91465446Y-1223220D01*
X91212439Y-1319987D01*
X90976226Y-1452557D01*
X90761822Y-1618112D01*
X90573822Y-1813109D01*
X90573816Y-1813116D01*
X90416202Y-2033419D01*
X90416199Y-2033424D01*
X90292350Y-2274309D01*
X90292343Y-2274327D01*
X90204884Y-2530685D01*
X90204882Y-2530695D01*
X90161522Y-2765447D01*
X90155681Y-2797068D01*
X90155680Y-2797075D01*
X90145787Y-3067763D01*
X55282679Y-3067763D01*
X55168539Y-2974090D01*
X55168532Y-2974086D01*
X54994733Y-2881188D01*
X54994727Y-2881186D01*
X54806132Y-2823976D01*
X54806129Y-2823975D01*
X54610000Y-2804659D01*
X54413870Y-2823975D01*
X54225266Y-2881188D01*
X54051467Y-2974086D01*
X54051460Y-2974090D01*
X53899116Y-3099116D01*
X53774090Y-3251460D01*
X53774086Y-3251467D01*
X53681188Y-3425266D01*
X53623975Y-3613870D01*
X53604659Y-3810000D01*
X45455341Y-3810000D01*
X45436024Y-3613868D01*
X45378814Y-3425273D01*
X45378811Y-3425269D01*
X45378811Y-3425266D01*
X45285913Y-3251467D01*
X45285909Y-3251460D01*
X45160883Y-3099116D01*
X45008539Y-2974090D01*
X45008532Y-2974086D01*
X44834733Y-2881188D01*
X44834727Y-2881186D01*
X44646132Y-2823976D01*
X44646129Y-2823975D01*
X44450000Y-2804659D01*
X44253870Y-2823975D01*
X44065266Y-2881188D01*
X43891467Y-2974086D01*
X43891460Y-2974090D01*
X43739116Y-3099116D01*
X43614090Y-3251460D01*
X43614086Y-3251467D01*
X43521188Y-3425266D01*
X43463975Y-3613870D01*
X43444659Y-3810000D01*
X43010500Y-3810000D01*
X43010500Y-2890252D01*
X43010500Y-2890249D01*
X43010499Y-2890247D01*
X42998868Y-2831770D01*
X42998867Y-2831769D01*
X42954552Y-2765447D01*
X42888230Y-2721132D01*
X42888229Y-2721131D01*
X42829752Y-2709500D01*
X42829748Y-2709500D01*
X40990252Y-2709500D01*
X40990247Y-2709500D01*
X40931770Y-2721131D01*
X40931769Y-2721132D01*
X40865447Y-2765447D01*
X40821132Y-2831769D01*
X40821131Y-2831770D01*
X40809500Y-2890247D01*
X40809500Y-4729752D01*
X39975039Y-4729752D01*
X40036041Y-4691981D01*
X40186764Y-4554579D01*
X40309673Y-4391821D01*
X40400582Y-4209250D01*
X40456397Y-4013083D01*
X40475215Y-3810000D01*
X40456397Y-3606917D01*
X40400582Y-3410750D01*
X40383235Y-3375913D01*
X40320978Y-3250883D01*
X40309673Y-3228179D01*
X40226175Y-3117610D01*
X40186762Y-3065418D01*
X40036041Y-2928019D01*
X40036039Y-2928017D01*
X39862642Y-2820655D01*
X39862635Y-2820651D01*
X39720135Y-2765447D01*
X39672456Y-2746976D01*
X39471976Y-2709500D01*
X39268024Y-2709500D01*
X39067544Y-2746976D01*
X39067541Y-2746976D01*
X39067541Y-2746977D01*
X38877364Y-2820651D01*
X38877357Y-2820655D01*
X38703960Y-2928017D01*
X38703958Y-2928019D01*
X38553234Y-3065421D01*
X38549937Y-3069039D01*
X38490226Y-3105320D01*
X38458301Y-3109500D01*
X33994921Y-3109500D01*
X33987433Y-3109274D01*
X33927396Y-3105642D01*
X33927389Y-3105642D01*
X33868227Y-3116483D01*
X33860827Y-3117610D01*
X33801128Y-3124860D01*
X33801127Y-3124860D01*
X33791653Y-3128453D01*
X33770042Y-3134477D01*
X33760068Y-3136305D01*
X33705220Y-3160989D01*
X33698305Y-3163853D01*
X33642076Y-3185179D01*
X33642061Y-3185187D01*
X33633723Y-3190942D01*
X33614188Y-3201960D01*
X33604948Y-3206119D01*
X33604938Y-3206124D01*
X33557597Y-3243213D01*
X33551569Y-3247649D01*
X33502068Y-3281819D01*
X33462183Y-3326838D01*
X33457051Y-3332290D01*
X28477805Y-8311536D01*
X28416482Y-8345021D01*
X28402280Y-8347258D01*
X28283818Y-8358926D01*
X28207754Y-8382000D01*
X28102385Y-8413963D01*
X28102382Y-8413964D01*
X28102380Y-8413965D01*
X28102377Y-8413966D01*
X27935181Y-8503334D01*
X27935174Y-8503338D01*
X27788616Y-8623616D01*
X27668338Y-8770174D01*
X27668334Y-8770181D01*
X27578966Y-8937377D01*
X27578965Y-8937380D01*
X27578964Y-8937382D01*
X27578963Y-8937385D01*
X27564100Y-8986382D01*
X27523926Y-9118818D01*
X27505343Y-9307500D01*
X24765000Y-9307500D01*
X24765000Y-8382000D01*
X24130000Y-7874000D01*
X22860000Y-7874000D01*
X22225000Y-8382000D01*
X22225000Y-10795000D01*
X6695500Y-10795000D01*
X6695500Y-9257500D01*
X19885343Y-9257500D01*
X19903926Y-9446181D01*
X19919094Y-9496183D01*
X19958963Y-9627615D01*
X19958964Y-9627618D01*
X19958965Y-9627619D01*
X19958966Y-9627622D01*
X20048334Y-9794818D01*
X20048338Y-9794825D01*
X20168616Y-9941383D01*
X20315174Y-10061661D01*
X20315181Y-10061665D01*
X20482377Y-10151033D01*
X20482378Y-10151033D01*
X20482385Y-10151037D01*
X20663817Y-10206073D01*
X20663816Y-10206073D01*
X20680733Y-10207739D01*
X20852500Y-10224657D01*
X21041183Y-10206073D01*
X21222615Y-10151037D01*
X21389824Y-10061662D01*
X21536383Y-9941383D01*
X21656662Y-9794824D01*
X21746037Y-9627615D01*
X21801073Y-9446183D01*
X21819657Y-9257500D01*
X21801073Y-9068817D01*
X21746037Y-8887385D01*
X21746033Y-8887377D01*
X21656665Y-8720181D01*
X21656661Y-8720174D01*
X21536383Y-8573616D01*
X21389825Y-8453338D01*
X21389818Y-8453334D01*
X21222622Y-8363966D01*
X21222619Y-8363965D01*
X21222618Y-8363964D01*
X21222615Y-8363963D01*
X21041183Y-8308927D01*
X21041181Y-8308926D01*
X21041183Y-8308926D01*
X20852500Y-8290343D01*
X20663818Y-8308926D01*
X20560251Y-8340343D01*
X20482385Y-8363963D01*
X20482382Y-8363964D01*
X20482380Y-8363965D01*
X20482377Y-8363966D01*
X20315181Y-8453334D01*
X20315174Y-8453338D01*
X20168616Y-8573616D01*
X20048338Y-8720174D01*
X20048334Y-8720181D01*
X19958966Y-8887377D01*
X19958965Y-8887380D01*
X19958964Y-8887382D01*
X19958963Y-8887385D01*
X19943796Y-8937385D01*
X19903926Y-9068818D01*
X19885343Y-9257500D01*
X6695500Y-9257500D01*
X6695500Y-8316518D01*
X6715185Y-8249479D01*
X6731814Y-8228842D01*
X8743837Y-6216818D01*
X8805160Y-6183334D01*
X8831518Y-6180500D01*
X8991974Y-6180500D01*
X8991976Y-6180500D01*
X9192456Y-6143024D01*
X9382637Y-6069348D01*
X9495039Y-5999752D01*
X10329500Y-5999752D01*
X10341131Y-6058229D01*
X10341132Y-6058230D01*
X10385447Y-6124552D01*
X10451769Y-6168867D01*
X10451770Y-6168868D01*
X10510247Y-6180499D01*
X10510250Y-6180500D01*
X10510252Y-6180500D01*
X12349750Y-6180500D01*
X12349751Y-6180499D01*
X12364568Y-6177552D01*
X12408229Y-6168868D01*
X12408229Y-6168867D01*
X12408231Y-6168867D01*
X12474552Y-6124552D01*
X12518867Y-6058231D01*
X12518867Y-6058229D01*
X12518868Y-6058229D01*
X12530499Y-5999752D01*
X12530500Y-5999750D01*
X12530500Y-5021518D01*
X12550185Y-4954479D01*
X12566814Y-4933842D01*
X13922339Y-3578316D01*
X13983660Y-3544833D01*
X13997855Y-3542597D01*
X14166132Y-3526024D01*
X14354727Y-3468814D01*
X14528538Y-3375910D01*
X14680883Y-3250883D01*
X14805910Y-3098538D01*
X14894801Y-2932235D01*
X14898811Y-2924733D01*
X14898811Y-2924732D01*
X14898814Y-2924727D01*
X14956024Y-2736132D01*
X14975341Y-2540000D01*
X14956024Y-2343868D01*
X14898814Y-2155273D01*
X14898811Y-2155269D01*
X14898811Y-2155266D01*
X14805913Y-1981467D01*
X14805909Y-1981460D01*
X14680883Y-1829116D01*
X14528539Y-1704090D01*
X14528532Y-1704086D01*
X14354733Y-1611188D01*
X14354727Y-1611186D01*
X14166132Y-1553976D01*
X14166129Y-1553975D01*
X13970000Y-1534659D01*
X13773870Y-1553975D01*
X13585266Y-1611188D01*
X13411467Y-1704086D01*
X13411460Y-1704090D01*
X13259116Y-1829116D01*
X13134090Y-1981460D01*
X13134086Y-1981467D01*
X13041188Y-2155266D01*
X12983975Y-2343870D01*
X12967403Y-2512133D01*
X12941242Y-2576921D01*
X12931681Y-2587660D01*
X11576162Y-3943181D01*
X11514839Y-3976666D01*
X11488481Y-3979500D01*
X10510247Y-3979500D01*
X10451770Y-3991131D01*
X10451769Y-3991132D01*
X10385447Y-4035447D01*
X10341132Y-4101769D01*
X10341131Y-4101770D01*
X10329500Y-4160247D01*
X10329500Y-5999752D01*
X9495039Y-5999752D01*
X9556041Y-5961981D01*
X9706764Y-5824579D01*
X9829673Y-5661821D01*
X9920582Y-5479250D01*
X9976397Y-5283083D01*
X9995215Y-5080000D01*
X9976397Y-4876917D01*
X9920582Y-4680750D01*
X9903235Y-4645913D01*
X9876272Y-4591764D01*
X9829673Y-4498179D01*
X9741854Y-4381888D01*
X9706762Y-4335418D01*
X9556041Y-4198019D01*
X9556039Y-4198017D01*
X9382642Y-4090655D01*
X9382635Y-4090651D01*
X9240135Y-4035447D01*
X9192456Y-4016976D01*
X8991976Y-3979500D01*
X8788024Y-3979500D01*
X8587544Y-4016976D01*
X8587541Y-4016976D01*
X8587541Y-4016977D01*
X8397364Y-4090651D01*
X8397357Y-4090655D01*
X8223960Y-4198017D01*
X8223958Y-4198019D01*
X8073237Y-4335418D01*
X7950327Y-4498178D01*
X7859422Y-4680739D01*
X7859417Y-4680752D01*
X7803602Y-4876917D01*
X7784785Y-5079999D01*
X7784785Y-5080003D01*
X7789128Y-5126883D01*
X7775712Y-5195453D01*
X7753338Y-5226003D01*
X5517290Y-7462051D01*
X5511838Y-7467183D01*
X5466819Y-7507068D01*
X5432649Y-7556569D01*
X5428213Y-7562597D01*
X5391124Y-7609938D01*
X5391119Y-7609948D01*
X5386960Y-7619188D01*
X5375942Y-7638723D01*
X5370187Y-7647061D01*
X5370179Y-7647076D01*
X5348853Y-7703305D01*
X5345989Y-7710220D01*
X5321305Y-7765068D01*
X5319477Y-7775042D01*
X5313453Y-7796653D01*
X5309860Y-7806127D01*
X5309860Y-7806128D01*
X5302610Y-7865827D01*
X5301483Y-7873227D01*
X5290642Y-7932389D01*
X5290642Y-7932395D01*
X5294274Y-7992432D01*
X5294500Y-7999920D01*
X5294500Y-14860078D01*
X5294274Y-14867566D01*
X5290642Y-14927603D01*
X5290642Y-14927605D01*
X500500Y-14927605D01*
X500500Y-3067763D01*
X1145787Y-3067763D01*
X1175413Y-3337013D01*
X1175415Y-3337024D01*
X1238498Y-3578318D01*
X1243928Y-3599088D01*
X1349870Y-3848390D01*
X1450381Y-4013083D01*
X1490979Y-4079605D01*
X1490986Y-4079615D01*
X1664253Y-4287819D01*
X1664259Y-4287824D01*
X1717381Y-4335421D01*
X1865998Y-4468582D01*
X2091910Y-4618044D01*
X2337176Y-4733020D01*
X2337183Y-4733022D01*
X2337185Y-4733023D01*
X2596557Y-4811057D01*
X2596564Y-4811058D01*
X2596569Y-4811060D01*
X2864561Y-4850500D01*
X2864566Y-4850500D01*
X3067629Y-4850500D01*
X3067631Y-4850500D01*
X3067636Y-4850499D01*
X3067648Y-4850499D01*
X3105191Y-4847750D01*
X3270156Y-4835677D01*
X3382758Y-4810593D01*
X3534546Y-4776782D01*
X3534548Y-4776781D01*
X3534553Y-4776780D01*
X3787558Y-4680014D01*
X4023777Y-4547441D01*
X4238177Y-4381888D01*
X4426186Y-4186881D01*
X4583799Y-3966579D01*
X4664302Y-3809999D01*
X4707649Y-3725690D01*
X4707651Y-3725684D01*
X4707656Y-3725675D01*
X4795118Y-3469305D01*
X4844319Y-3202933D01*
X4854212Y-2932235D01*
X4824586Y-2662982D01*
X4756072Y-2400912D01*
X4650130Y-2151610D01*
X4509018Y-1920390D01*
X4507845Y-1918981D01*
X4335746Y-1712180D01*
X4335740Y-1712175D01*
X4134002Y-1531418D01*
X3908092Y-1381957D01*
X3908090Y-1381956D01*
X3662824Y-1266980D01*
X3662819Y-1266978D01*
X3662814Y-1266976D01*
X3403442Y-1188942D01*
X3403428Y-1188939D01*
X3287791Y-1171921D01*
X3135439Y-1149500D01*
X2932369Y-1149500D01*
X2932351Y-1149500D01*
X2729844Y-1164323D01*
X2729831Y-1164325D01*
X2465453Y-1223217D01*
X2465446Y-1223220D01*
X2212439Y-1319987D01*
X1976226Y-1452557D01*
X1761822Y-1618112D01*
X1573822Y-1813109D01*
X1573816Y-1813116D01*
X1416202Y-2033419D01*
X1416199Y-2033424D01*
X1292350Y-2274309D01*
X1292343Y-2274327D01*
X1204884Y-2530685D01*
X1204882Y-2530695D01*
X1161522Y-2765447D01*
X1155681Y-2797068D01*
X1155680Y-2797075D01*
X1145787Y-3067763D01*
X500500Y-3067763D01*
X500500Y-624500D01*
X520185Y-557461D01*
X572989Y-511706D01*
X624500Y-500500D01*
X94375500Y-500500D01*
X94442539Y-520185D01*
G37*
%TD.AperFunction*%
%TD*%
M02*
