%TF.GenerationSoftware,KiCad,Pcbnew,7.0.11*%
%TF.CreationDate,2024-12-01T20:51:01+09:00*%
%TF.ProjectId,AudioAmp_v0,41756469-6f41-46d7-905f-76302e6b6963,rev?*%
%TF.SameCoordinates,Original*%
%TF.FileFunction,Soldermask,Bot*%
%TF.FilePolarity,Negative*%
%FSLAX46Y46*%
G04 Gerber Fmt 4.6, Leading zero omitted, Abs format (unit mm)*
G04 Created by KiCad (PCBNEW 7.0.11) date 2024-12-01 20:51:01*
%MOMM*%
%LPD*%
G01*
G04 APERTURE LIST*
G04 Aperture macros list*
%AMRoundRect*
0 Rectangle with rounded corners*
0 $1 Rounding radius*
0 $2 $3 $4 $5 $6 $7 $8 $9 X,Y pos of 4 corners*
0 Add a 4 corners polygon primitive as box body*
4,1,4,$2,$3,$4,$5,$6,$7,$8,$9,$2,$3,0*
0 Add four circle primitives for the rounded corners*
1,1,$1+$1,$2,$3*
1,1,$1+$1,$4,$5*
1,1,$1+$1,$6,$7*
1,1,$1+$1,$8,$9*
0 Add four rect primitives between the rounded corners*
20,1,$1+$1,$2,$3,$4,$5,0*
20,1,$1+$1,$4,$5,$6,$7,0*
20,1,$1+$1,$6,$7,$8,$9,0*
20,1,$1+$1,$8,$9,$2,$3,0*%
G04 Aperture macros list end*
%ADD10R,1.800000X1.800000*%
%ADD11C,1.800000*%
%ADD12C,1.600000*%
%ADD13O,1.600000X1.600000*%
%ADD14RoundRect,0.250000X-0.750000X0.600000X-0.750000X-0.600000X0.750000X-0.600000X0.750000X0.600000X0*%
%ADD15O,2.000000X1.700000*%
%ADD16C,2.000000*%
%ADD17C,3.200000*%
%ADD18R,1.600000X1.600000*%
%ADD19O,2.997200X1.803400*%
%ADD20O,1.498600X2.997200*%
%ADD21C,1.524000*%
%ADD22C,1.000000*%
%ADD23R,1.900000X1.900000*%
%ADD24C,1.900000*%
%ADD25RoundRect,0.250000X0.450000X-0.450000X0.450000X0.450000X-0.450000X0.450000X-0.450000X-0.450000X0*%
%ADD26C,1.400000*%
%ADD27RoundRect,0.250000X-0.675000X0.600000X-0.675000X-0.600000X0.675000X-0.600000X0.675000X0.600000X0*%
%ADD28O,1.850000X1.700000*%
%ADD29C,1.700000*%
G04 APERTURE END LIST*
D10*
%TO.C,D3*%
X5080000Y-54610000D03*
D11*
X2540000Y-54610000D03*
%TD*%
D12*
%TO.C,R33*%
X8012613Y-63854341D03*
D13*
X8012613Y-53694341D03*
%TD*%
D14*
%TO.C,J6*%
X9800000Y-36850000D03*
D15*
X9800000Y-39350000D03*
%TD*%
D12*
%TO.C,C5*%
X45720000Y-53180000D03*
D13*
X45720000Y-33180000D03*
%TD*%
D14*
%TO.C,J7*%
X9800000Y-45740000D03*
D15*
X9800000Y-48240000D03*
%TD*%
D16*
%TO.C,C11*%
X90170000Y-38180000D03*
X90170000Y-48180000D03*
%TD*%
D17*
%TO.C,REF\u002A\u002A*%
X92000000Y-3000000D03*
%TD*%
D10*
%TO.C,D1*%
X11430000Y-5080000D03*
D11*
X8890000Y-5080000D03*
%TD*%
D12*
%TO.C,R2*%
X52070000Y-38100000D03*
D13*
X52070000Y-48260000D03*
%TD*%
D12*
%TO.C,R3*%
X59690000Y-15240000D03*
D13*
X59690000Y-25400000D03*
%TD*%
D12*
%TO.C,R1*%
X52070000Y-15240000D03*
D13*
X52070000Y-25400000D03*
%TD*%
D12*
%TO.C,R8*%
X85090000Y-34290000D03*
D13*
X74930000Y-34290000D03*
%TD*%
D18*
%TO.C,U2*%
X64780000Y-16520000D03*
D13*
X64780000Y-19060000D03*
X64780000Y-21600000D03*
X64780000Y-24140000D03*
X72400000Y-24140000D03*
X72400000Y-21600000D03*
X72400000Y-19060000D03*
X72400000Y-16520000D03*
%TD*%
D12*
%TO.C,R4*%
X59690000Y-38100000D03*
D13*
X59690000Y-48260000D03*
%TD*%
D12*
%TO.C,R11*%
X81280000Y-25400000D03*
D13*
X81280000Y-15240000D03*
%TD*%
D19*
%TO.C,J3*%
X25400000Y-62294000D03*
D20*
X25400000Y-57793999D03*
%TD*%
D12*
%TO.C,R31*%
X24130000Y-2540000D03*
D13*
X13970000Y-2540000D03*
%TD*%
D12*
%TO.C,R32*%
X54610000Y-3810000D03*
D13*
X44450000Y-3810000D03*
%TD*%
D17*
%TO.C,REF\u002A\u002A*%
X3000000Y-69000000D03*
%TD*%
D21*
%TO.C,U1*%
X20852500Y-9257500D03*
X23392500Y-9307500D03*
X28472500Y-9307500D03*
X31012500Y-9307500D03*
X33552500Y-9307500D03*
%TD*%
D22*
%TO.C,J5*%
X76240000Y-61000000D03*
X81240000Y-61000000D03*
D23*
X76490000Y-57000000D03*
D24*
X80990000Y-57000000D03*
X75840000Y-64500000D03*
X81640000Y-64500000D03*
%TD*%
D16*
%TO.C,RV1*%
X53200000Y-58355000D03*
X50700000Y-58355000D03*
X48200000Y-58355000D03*
X53200000Y-60855000D03*
X50700000Y-60855000D03*
X48200000Y-60855000D03*
%TD*%
D17*
%TO.C,REF\u002A\u002A*%
X92000000Y-69000000D03*
%TD*%
D12*
%TO.C,R9*%
X85090000Y-25400000D03*
D13*
X85090000Y-15240000D03*
%TD*%
D25*
%TO.C,SW1*%
X2167500Y-27900000D03*
D26*
X2167500Y-25400000D03*
X2167500Y-22900000D03*
X5467500Y-27900000D03*
X5467500Y-25400000D03*
X5467500Y-22900000D03*
%TD*%
D27*
%TO.C,J2*%
X7620000Y-12740000D03*
D28*
X7620000Y-15240000D03*
%TD*%
D10*
%TO.C,D2*%
X41910000Y-3810000D03*
D11*
X39370000Y-3810000D03*
%TD*%
D16*
%TO.C,C10*%
X90180000Y-15250000D03*
X90180000Y-25250000D03*
%TD*%
D12*
%TO.C,R6*%
X55880000Y-38100000D03*
D13*
X55880000Y-48260000D03*
%TD*%
D12*
%TO.C,R12*%
X81280000Y-48260000D03*
D13*
X81280000Y-38100000D03*
%TD*%
D12*
%TO.C,R10*%
X85090000Y-48260000D03*
D13*
X85090000Y-38100000D03*
%TD*%
D18*
%TO.C,U3*%
X64780000Y-39380000D03*
D13*
X64780000Y-41920000D03*
X64780000Y-44460000D03*
X64780000Y-47000000D03*
X72400000Y-47000000D03*
X72400000Y-44460000D03*
X72400000Y-41920000D03*
X72400000Y-39380000D03*
%TD*%
D19*
%TO.C,J4*%
X38100000Y-62294000D03*
D20*
X38100000Y-57793999D03*
%TD*%
D12*
%TO.C,R7*%
X85090000Y-11430000D03*
D13*
X74930000Y-11430000D03*
%TD*%
D12*
%TO.C,R15*%
X72390000Y-59690000D03*
D13*
X62230000Y-59690000D03*
%TD*%
D22*
%TO.C,J1*%
X12740000Y-61000000D03*
X17740000Y-61000000D03*
D23*
X12990000Y-57000000D03*
D24*
X17490000Y-57000000D03*
X12340000Y-64500000D03*
X18140000Y-64500000D03*
%TD*%
D12*
%TO.C,R13*%
X77470000Y-25400000D03*
D13*
X77470000Y-15240000D03*
%TD*%
D12*
%TO.C,R5*%
X55880000Y-15240000D03*
D13*
X55880000Y-25400000D03*
%TD*%
D12*
%TO.C,R34*%
X58420000Y-31750000D03*
D13*
X68580000Y-31750000D03*
%TD*%
D12*
%TO.C,C4*%
X45720000Y-30320000D03*
D13*
X45720000Y-10320000D03*
%TD*%
D12*
%TO.C,R16*%
X72390000Y-55880000D03*
D13*
X62230000Y-55880000D03*
%TD*%
D12*
%TO.C,R14*%
X77470000Y-48260000D03*
D13*
X77470000Y-38100000D03*
%TD*%
D17*
%TO.C,REF\u002A\u002A*%
X3000000Y-3000000D03*
%TD*%
D16*
%TO.C,SW2*%
X58770000Y-63060000D03*
X58770000Y-69060000D03*
X70770000Y-63060000D03*
X70770000Y-69060000D03*
D29*
X60770000Y-64810000D03*
X64770000Y-64810000D03*
X68770000Y-64810000D03*
X60770000Y-67310000D03*
X64770000Y-67310000D03*
X68770000Y-67310000D03*
%TD*%
D10*
%TO.C,D4*%
X71120000Y-30480000D03*
D11*
X73660000Y-30480000D03*
%TD*%
M02*
